<svg width="24" height="24" viewBox="0 0 24 24" fill="none" xmlns="http://www.w3.org/2000/svg">
<g clip-path="url(#clip0_166_273)">
<path d="M23.8587 -0.00195312H0V24.0006H23.8629V16.0789C23.9631 15.9215 24.0125 15.737 24.0042 15.5505C24.0042 15.3054 23.9577 15.1527 23.8629 15.0247" fill="url(#paint0_radial_166_273)"/>
<path d="M2.15105 10.3845L1.69156 9.26323L1.23546 10.3845H2.15105ZM12.2623 9.93835C12.1591 9.98773 12.0444 10.0077 11.9306 9.99603H11.1157V9.37179H11.9416C12.0498 9.36323 12.1586 9.38038 12.2589 9.42183C12.3046 9.44428 12.3425 9.47998 12.3677 9.5243C12.3929 9.56861 12.4043 9.61949 12.4003 9.67034C12.404 9.72339 12.3931 9.77645 12.3688 9.82372C12.3444 9.87099 12.3076 9.91065 12.2623 9.93835ZM18.0732 10.3845L17.6095 9.26323L17.1483 10.3845H18.0732ZM7.2418 11.5982H6.55469V9.39299L5.5824 11.5982H4.99006L4.01523 9.39299V11.5982H2.64946L2.3956 10.9705H0.999365L0.738735 11.5982H0.010154L1.21092 8.78572H2.20774L3.34589 11.4481V8.78572H4.44003L5.31754 10.6932L6.12397 8.78572H7.24011V11.5982H7.2418ZM9.98181 11.5982H7.74022V8.78572H9.98012V9.37179H8.41126V9.88068H9.94288V10.4574H8.41126V11.0189H9.98012L9.98181 11.5982ZM13.1424 9.54312C13.1473 9.70115 13.1048 9.85704 13.0205 9.99068C12.9362 10.1243 12.8139 10.2296 12.6693 10.2929C12.7991 10.3405 12.9137 10.4222 13.0011 10.5295C13.0958 10.6695 13.1128 10.7941 13.1128 11.0452V11.5982H12.4358V11.2428C12.4358 11.0732 12.4519 10.8306 12.33 10.6957C12.2319 10.5965 12.0829 10.5753 11.8418 10.5753H11.1216V11.5982H10.4506V8.78572H11.9932C12.3317 8.78572 12.5856 8.79505 12.8056 8.92058C13.0256 9.0461 13.1424 9.2293 13.1424 9.54312ZM14.2154 11.5982H13.5308V8.78572H14.2154V11.5982ZM22.1536 11.5982H21.1999L19.9306 9.48714V11.5982H18.5632L18.3017 10.9705H16.9088L16.655 11.5982H15.8705C15.5447 11.5982 15.1318 11.5252 14.8982 11.2869C14.6647 11.0486 14.5395 10.7246 14.5395 10.2132C14.5395 9.79586 14.6131 9.41505 14.9008 9.11056C15.1183 8.8858 15.4576 8.78233 15.9162 8.78233H16.5653V9.38536H15.9348C15.6903 9.38536 15.5524 9.42183 15.4187 9.55499C15.3044 9.67373 15.2257 9.89425 15.2257 10.1919C15.2257 10.4896 15.2858 10.7102 15.4102 10.8527C15.5134 10.9638 15.7013 10.9977 15.8781 10.9977H16.1794L17.1195 8.78572H18.1248L19.2638 11.4481V8.78572H20.2843L21.4631 10.7441V8.78572H22.1502V11.5982H22.1536ZM0.00338424 12.1503H1.14914L1.40724 11.5252H1.98604L2.2399 12.1503H4.49503V11.6728L4.69558 12.152H5.86503L6.06643 11.6652V12.1503H11.67V11.1249H11.7783C11.8545 11.1249 11.8765 11.1342 11.8765 11.2606V12.1503H14.7739V11.9111C15.1079 12.0773 15.4774 12.1594 15.8502 12.1503H17.0696L17.3302 11.5252H17.909L18.1629 12.1503H20.512V11.5566L20.8682 12.1503H22.7502V8.2251H20.8885V8.68818L20.6237 8.2251H18.7121V8.68818L18.4735 8.2251H15.8908C15.4584 8.2251 15.0785 8.28532 14.7713 8.4541V8.2251H12.9892V8.4541C12.7946 8.28023 12.528 8.2251 12.2319 8.2251H5.72202L5.28538 9.24287L4.8369 8.2251H2.78655V8.68818L2.56484 8.2251H0.812354L0 10.091V12.1486L0.00338424 12.1503Z" fill="white"/>
<path d="M23.8582 14.2241H22.6354C22.5421 14.2133 22.4477 14.231 22.3646 14.275C22.3315 14.2968 22.3049 14.3271 22.2876 14.3628C22.2704 14.3985 22.263 14.4382 22.2665 14.4777C22.2648 14.5239 22.2782 14.5693 22.3046 14.6071C22.331 14.6449 22.369 14.673 22.4129 14.6872C22.4968 14.7123 22.5843 14.7229 22.6718 14.7186L23.0348 14.7288C23.4012 14.7381 23.6466 14.8009 23.7964 14.9552C23.8202 14.9756 23.8412 14.999 23.859 15.0248L23.8582 14.2241ZM23.859 16.079C23.6957 16.3174 23.3784 16.4386 22.9485 16.4386H21.6538V15.8356H22.9434C23.0712 15.8356 23.1609 15.8186 23.2151 15.7661C23.2402 15.7425 23.2601 15.714 23.2736 15.6823C23.2872 15.6506 23.294 15.6165 23.2938 15.582C23.2948 15.5466 23.2876 15.5115 23.273 15.4793C23.2583 15.4471 23.2365 15.4187 23.2091 15.3963C23.1407 15.3464 23.0562 15.324 22.9722 15.3335C22.3426 15.3123 21.5573 15.353 21.5573 14.4633C21.5573 14.0553 21.8112 13.6262 22.5195 13.6262H23.8556V13.0664H22.6193C22.2445 13.0664 21.9728 13.1563 21.7799 13.2963V13.0664H19.9419C19.6483 13.0664 19.3039 13.1393 19.1406 13.2963V13.0664H15.8624V13.2963C15.6018 13.1071 15.1617 13.0664 14.9587 13.0664H12.7966V13.2963C12.5901 13.0952 12.1306 13.0664 11.8514 13.0664H9.43126L8.87784 13.6669L8.35912 13.0664H4.74414V16.9908H8.29058L8.86092 16.381L9.3991 16.9908H11.5848V16.0697H11.7998C12.09 16.0739 12.4319 16.0621 12.7306 15.9314V16.9908H14.5339V15.9679H14.6185C14.7293 15.9679 14.7403 15.9679 14.7403 16.0841V16.9908H20.2246C20.5724 16.9908 20.9354 16.9017 21.1368 16.7363V16.9908H22.8732C23.2345 16.9908 23.5874 16.9399 23.8565 16.8101V16.079H23.859ZM21.1808 14.9552C21.3111 15.0901 21.3813 15.2614 21.3813 15.5489C21.3813 16.1545 21.0039 16.4369 20.3278 16.4369H19.0238V15.8339H20.3244C20.4212 15.8454 20.5189 15.8207 20.5986 15.7644C20.6238 15.7409 20.644 15.7124 20.6576 15.6807C20.6713 15.649 20.6783 15.6148 20.6781 15.5803C20.6784 15.545 20.6709 15.5102 20.6563 15.4781C20.6417 15.446 20.6202 15.4175 20.5935 15.3946C20.5242 15.3454 20.4394 15.3231 20.3549 15.3318C19.7279 15.3106 18.9426 15.3513 18.9426 14.4616C18.9426 14.0536 19.1964 13.6245 19.9013 13.6245H21.2451V14.2233H20.0181C19.9254 14.2122 19.8316 14.2296 19.749 14.2733C19.7142 14.2976 19.6866 14.3309 19.6691 14.3696C19.6516 14.4083 19.6449 14.4511 19.6497 14.4933C19.6545 14.5356 19.6705 14.5757 19.6962 14.6096C19.7219 14.6434 19.7562 14.6696 19.7956 14.6855C19.8799 14.7112 19.9681 14.7221 20.0562 14.7177L20.4175 14.7271C20.7814 14.7381 21.031 14.8009 21.1808 14.9552ZM15.1296 14.7814C15.0261 14.8298 14.9116 14.8497 14.7979 14.839H13.9881V14.208H14.814C14.9231 14.1982 15.0329 14.2154 15.1338 14.2581C15.1787 14.2828 15.2156 14.3199 15.2402 14.365C15.2648 14.4101 15.276 14.4612 15.2726 14.5125C15.2748 14.5657 15.2629 14.6186 15.2383 14.6658C15.2136 14.713 15.177 14.7528 15.1321 14.7814H15.1296ZM15.5341 15.1316C15.6637 15.1778 15.7777 15.2595 15.8632 15.3674C15.9572 15.5048 15.9716 15.6329 15.9741 15.8806V16.4386H15.2971V16.0867C15.2971 15.917 15.3132 15.6668 15.1888 15.5362C15.0907 15.4353 14.9417 15.4115 14.6972 15.4115H13.9881V16.4386H13.3111V13.6262H14.8588C15.1973 13.6262 15.4461 13.6406 15.6661 13.7585C15.7773 13.8184 15.8689 13.9091 15.93 14.0198C15.9911 14.1305 16.019 14.2565 16.0105 14.3827C16.0156 14.5408 15.9732 14.6968 15.8886 14.8304C15.8041 14.9639 15.6815 15.0689 15.5366 15.1316H15.5341ZM16.3803 13.6262H18.6185V14.2072H17.0522V14.7161H18.5838V15.2902H17.0522V15.85H18.6219V16.4335H16.3837L16.3803 13.6262ZM11.8599 14.9255H10.9933V14.2097H11.8675C12.1095 14.2097 12.2779 14.3081 12.2779 14.5541C12.2779 14.8 12.1171 14.9255 11.8599 14.9255ZM10.3248 16.1842L9.29587 15.0383L10.3248 13.9298V16.1842ZM7.66608 15.8543H6.01768V15.2945H7.49007V14.7203H6.01768V14.2114H7.69908L8.43189 15.0316L7.66608 15.8543ZM12.9972 14.5541C12.9972 15.3352 12.4158 15.4963 11.8294 15.4963H10.9933V16.4403H9.68935L8.8643 15.5074L8.00541 16.4403H5.34918V13.6262H8.04687L8.87192 14.5481L9.72489 13.6262H11.8675C12.3997 13.6262 12.9972 13.7738 12.9972 14.5524V14.5541Z" fill="white"/>
</g>
<defs>
<radialGradient id="paint0_radial_166_273" cx="0" cy="0" r="1" gradientUnits="userSpaceOnUse" gradientTransform="translate(4.20986 4.19213) scale(22.3888 22.4403)">
<stop stop-color="#9DD5F6"/>
<stop offset="0.07" stop-color="#98D3F5"/>
<stop offset="0.16" stop-color="#89CEF3"/>
<stop offset="0.25" stop-color="#70C6EF"/>
<stop offset="0.35" stop-color="#4EBBEA"/>
<stop offset="0.45" stop-color="#23ADE3"/>
<stop offset="0.5" stop-color="#0DA6E0"/>
<stop offset="1" stop-color="#2E77BC"/>
</radialGradient>
<clipPath id="clip0_166_273">
<rect width="24" height="24" fill="white"/>
</clipPath>
</defs>
</svg>
