<svg class="svg-inline" version="1.1" id="ccbill-logo" width="70" xmlns="http://www.w3.org/2000/svg" x="0" y="0" viewBox="0 0 441 286" xml:space="preserve"><style>.st0{fill:#0072b7}</style><g id="CCBill_logo"><path class="st0" d="M438.1 196.5c-3.7-.1-6.3-1.5-7.9-4.1-.9-1.4-1.4-4.3-1.6-8.6V80.3h-7.8l-22.4 9 2.2 6c.4-.1.8-.1 1.2-.1 3.5 0 6.4 3.2 6.7 7.2 0 .3.1.5.1.8v80.4c-.2 4.4-.7 7.4-1.6 8.9-1.6 2.6-4.2 3.9-7.9 4.1h-.7v5.8H439v-5.8h-.9zM384.8 192.4c-.9-1.4-1.4-4.3-1.6-8.6V80.3h-7.8l-22.4 9 2.2 6c.4-.1.8-.1 1.2-.1 3.5 0 6.4 3.2 6.7 7.2 0 .3.1.5.1.8v80.4c-.2 4.4-.7 7.4-1.6 8.9-1.6 2.6-4.2 3.9-7.9 4.1h-.7v5.8h40.5v-5.8h-.7c-3.7-.3-6.3-1.6-8-4.2zM328.2 108.9c5.3 0 9.6-4.3 9.6-9.6s-4.3-9.6-9.6-9.6-9.6 4.3-9.6 9.6c-.1 5.3 4.2 9.6 9.6 9.6zM339.5 192.4c-.9-1.4-1.4-4.3-1.6-8.6v-62.6h-7.2l-22.4 9 2.2 6c.4-.1.8-.1 1.2-.1 3.5 0 6.4 3.2 6.7 7.2 0 .3.1.5.1.8v39.4c-.2 4.4-.7 7.4-1.6 8.9-1.6 2.6-4.2 3.9-7.9 4.1h-.7v5.8h39.8v-5.8h-.7c-3.7-.2-6.3-1.5-7.9-4.1zM292.6 127.9c-5-5.5-12.7-9.5-22.9-12-.9-.2-2.1-.5-3.5-.7 5-2.4 9.1-5.7 12.2-10.1 3.7-5.2 5.6-10.8 5.6-16.5 0-8.2-3.3-16.2-8.6-21.1-4.1-3.7-11-7.2-19.2-8.9-14.8-2.8-27.2-2.6-29.7-2.6-1 0-9.5-.1-10.9-.1h-35.9v6.3c3 0 12.9 1.1 12.9 14.8l-.2 39.6-.4 52.8c0 9.2-.8 15.2-2.3 17.9-2.5 4.2-6.6 5.9-12.4 5.9H170l.7 9.2h69.8c16.3 0 28.6-1.8 36.6-5.3s14.4-9.2 19-16.9 6.9-15.8 6.9-24.1c.2-11.1-3.4-20.6-10.4-28.2zm-78.1-62.6h12.1c8.1 0 14.9 1.2 20.4 3.4 5.4 2.3 9.3 5.4 11.7 9.3 2.4 3.9 3.6 8.1 3.6 12.3 0 6.4-2.7 11.9-7.9 16.3-5.3 4.4-13.1 6.6-23.3 6.6-3 0-13.3-.2-16.5-.5V65.3h-.1zm52 118.2c-6.6 6.5-16.3 9.8-28.9 9.8-7.7 0-15.7-1.1-23.7-3.2v-67.9c1.8-.3 4.1-.6 6.9-.7 3.1-.2 6.9-.2 11.3-.2 10 0 18.5 1.7 25.2 5.1 6.7 3.4 11.6 8 14.6 13.8 3 5.9 4.5 12 4.5 18.4 0 9.7-3.3 18.4-9.9 24.9z"></path><path class="st0" d="M154.4 260.1c-7.8 4.2-18.3 6.4-28.6 6.4-11.8 0-22.5-2.7-31.7-8.1-9.2-5.3-16.1-13.1-20.7-23.2-2.2-4.8-3.9-10.1-5-15.8-1.1-6.1-1.6-12.8-1.6-19.7 0-9.2.7-17.7 2.1-25.4 4.5.6 9.2 1 14.1 1 15.2 0 28.6-3.5 39.7-10.3 9.3-5.7 17.8-14.5 25.3-25.9l-8.1-5.3c-7.3 8.7-14.1 14.8-20.2 18.1-7.8 4.2-18.3 6.4-28.6 6.4-5.9 0-11.6-.7-16.9-2.1 4.8-10.8 11.4-18.8 19.6-23.8 8.4-5.1 17.9-7.7 28.4-7.7 12.4 0 23.2 3.5 32 10.4 8 6.2 14.4 16.3 19.2 30l.3.9h9.1l-3.9-55.6h-6.4s-1.6 11.4-9.4 11.4c-1.4 0-2.7-.4-6.6-2.5-11.6-5.9-23.6-8.8-35.5-8.8-15.3 0-29.7 3.8-42.6 11.4-10.2 5.9-18.7 13.9-25.5 23.7-6-4.9-10.7-11.1-14.1-18.6-2.2-4.8-3.9-10.1-5-15.8-1.1-6.1-1.6-12.8-1.6-19.7 0-13 1.4-24.6 4.1-34.5.9-3 1.9-5.8 3-8.3C44 37.6 50.7 29.4 59.1 24.3s17.9-7.7 28.4-7.7c12.4 0 23.2 3.5 32 10.4 8 6.2 14.4 16.3 19.2 30l.3 1h9.1l-3.9-55.6h-6.4s-1.6 11.4-9.4 11.4c-1.4 0-2.7-.4-6.6-2.5-11.6-5.9-23.6-8.8-35.5-8.8-15.3 0-29.7 3.8-42.6 11.4-13 7.6-23.3 18.4-30.6 32.2C5.7 59.8 2 75.1 2 91.4c0 20.4 5.7 38.4 16.9 53.4 6.6 8.9 14.5 15.9 23.7 20.9-3.9 10.6-5.9 21.9-5.9 33.9 0 20.4 5.7 38.4 16.9 53.4 15.1 20.3 36.7 30.6 64.2 30.6 15.2 0 28.6-3.5 39.7-10.3 9.3-5.7 17.8-14.5 25.3-25.9l-8.1-5.3c-7.4 8.7-14.2 14.8-20.3 18z"></path></g></svg>
