<svg xmlns="http://www.w3.org/2000/svg" xmlns:xlink="http://www.w3.org/1999/xlink" preserveAspectRatio="xMidYMid" width="65" height="65" viewBox="0 0 265.625 60">
    <defs>
        <style>
            .cls-1 {
            fill: #f24c3d;
            }

            .cls-1, .cls-2, .cls-3, .cls-4, .cls-5 {
            fill-rule: evenodd;
            }

            .cls-2 {
            fill: #0c6;
            }

            .cls-3 {
            fill: #0094de;
            }

            .cls-4 {
            fill: #f2d231;
            }

            .cls-5 {
            fill: #1f2b3b;
            }
        </style>
    </defs>
    <g>
        <path d="M46.000,46.000 L14.000,46.000 L14.000,14.000 L46.000,14.000 L46.000,46.000 Z" class="cls-1"/>
        <path d="M52.000,-0.000 L16.000,-0.000 L8.000,8.000 L52.000,8.000 L52.000,52.000 L60.000,44.000 L60.000,-0.000 L52.000,-0.000 Z" class="cls-2"/>
        <path d="M-0.000,60.000 L44.000,60.000 L52.000,52.000 L8.000,52.000 L-0.000,60.000 Z" class="cls-3"/>
        <path d="M-0.000,60.000 L8.000,52.000 L8.000,8.000 L-0.000,16.000 L-0.000,60.000 Z" class="cls-4"/>
        <path d="M253.812,54.219 C250.052,54.219 247.153,53.364 244.390,50.979 L246.972,46.839 C248.738,48.774 251.049,49.539 253.812,49.539 C256.575,49.539 259.836,48.324 259.836,44.050 L259.836,41.845 C258.115,44.005 255.760,45.265 253.087,45.265 C247.606,45.265 243.438,41.440 243.438,34.196 C243.438,27.086 247.561,23.127 253.087,23.127 C255.714,23.127 258.070,24.251 259.836,26.456 L259.836,23.666 L265.635,23.666 L265.635,43.915 C265.635,52.194 259.202,54.219 253.812,54.219 ZM259.836,30.686 C258.885,29.246 256.801,28.211 254.899,28.211 C251.637,28.211 249.372,30.461 249.372,34.196 C249.372,37.930 251.637,40.180 254.899,40.180 C256.801,40.180 258.885,39.100 259.836,37.705 L259.836,30.686 ZM233.222,32.261 C233.222,29.246 231.636,28.211 229.190,28.211 C226.925,28.211 225.158,29.471 224.207,30.776 L224.207,45.400 L218.454,45.400 L218.454,23.666 L224.207,23.666 L224.207,26.501 C225.611,24.836 228.284,23.127 231.863,23.127 C236.664,23.127 238.974,25.826 238.974,30.056 L238.974,45.400 L233.222,45.400 L233.222,32.261 ZM209.820,21.327 C207.963,21.327 206.377,19.797 206.377,17.907 C206.377,16.017 207.963,14.532 209.820,14.532 C211.722,14.532 213.262,16.017 213.262,17.907 C213.262,19.797 211.722,21.327 209.820,21.327 ZM195.478,15.387 L201.231,15.387 L201.231,45.400 L195.478,45.400 L195.478,15.387 ZM184.053,15.387 L189.806,15.387 L189.806,45.400 L184.053,45.400 L184.053,15.387 ZM175.446,21.327 C173.588,21.327 172.003,19.797 172.003,17.907 C172.003,16.017 173.588,14.532 175.446,14.532 C177.348,14.532 178.888,16.017 178.888,17.907 C178.888,19.797 177.348,21.327 175.446,21.327 ZM158.452,45.940 C155.825,45.940 153.424,44.770 151.702,42.610 L151.702,45.400 L145.950,45.400 L145.950,15.387 L151.702,15.387 L151.702,26.456 C153.424,24.251 155.870,23.127 158.452,23.127 C164.024,23.127 168.146,27.446 168.146,34.556 C168.146,41.800 163.978,45.940 158.452,45.940 ZM156.640,28.211 C154.783,28.211 152.654,29.291 151.702,30.731 L151.702,38.425 C152.654,39.820 154.783,40.855 156.640,40.855 C159.992,40.855 162.212,38.335 162.212,34.556 C162.212,30.776 159.992,28.211 156.640,28.211 ZM127.511,45.985 C118.678,45.985 111.430,39.865 111.430,30.416 C111.430,20.922 118.678,14.892 127.511,14.892 C133.807,14.892 137.748,18.042 140.013,21.597 L134.668,24.476 C133.309,22.362 130.727,20.562 127.511,20.562 C122.030,20.562 118.044,24.746 118.044,30.416 C118.044,36.085 122.030,40.270 127.511,40.270 C130.183,40.270 132.720,39.100 133.943,37.975 L133.943,34.376 L125.971,34.376 L125.971,28.796 L140.376,28.796 L140.376,40.315 C137.295,43.735 132.992,45.985 127.511,45.985 ZM96.701,40.270 C99.827,40.270 102.544,38.380 103.813,35.905 L109.339,38.560 C107.165,42.295 103.360,45.940 96.701,45.940 C87.641,45.940 80.620,39.640 80.620,30.416 C80.620,21.192 87.641,14.892 96.701,14.892 C103.360,14.892 107.210,18.492 109.339,22.227 L103.813,24.926 C102.544,22.497 99.827,20.562 96.701,20.562 C91.220,20.562 87.234,24.746 87.234,30.416 C87.234,36.085 91.220,40.270 96.701,40.270 ZM178.345,45.400 L172.592,45.400 L172.592,23.666 L178.345,23.666 L178.345,45.400 ZM212.719,45.400 L206.966,45.400 L206.966,23.666 L212.719,23.666 L212.719,45.400 Z" class="cls-5"/>
    </g>
</svg>
