<svg width="41" height="42" viewBox="0 0 41 42" fill="none" xmlns="http://www.w3.org/2000/svg">
<path fill-rule="evenodd" clip-rule="evenodd" d="M3.49598 16.2765H1.80859V22.2927H3.47407C4.37274 22.2927 5.00809 22.0905 5.57792 21.5967C6.23539 21.0357 6.65166 20.1824 6.65166 19.2845C6.65166 17.5113 5.35863 16.2765 3.49598 16.2765ZM4.83282 20.811C4.46038 21.1254 3.99987 21.2825 3.25498 21.2825H2.94826V17.3091H3.25498C3.99987 17.3091 4.43826 17.4437 4.83282 17.7804C5.22718 18.1394 5.46838 18.701 5.46838 19.2845C5.46817 19.8682 5.22718 20.4519 4.83282 20.811ZM7.17767 22.2929H8.31713V16.2765H7.17767V22.2929ZM11.1221 18.5887C10.4208 18.3194 10.2236 18.1623 10.2236 17.8255C10.2236 17.4439 10.596 17.1746 11.0782 17.1746C11.4288 17.1746 11.7138 17.3093 11.9986 17.6459L12.6123 16.8604C12.1082 16.4114 11.5166 16.1869 10.8811 16.1869C9.82924 16.1869 9.04032 16.9278 9.04032 17.9155C9.04032 18.7461 9.41277 19.1502 10.4867 19.5542C10.947 19.7113 11.1661 19.8235 11.2756 19.8909C11.5166 20.0482 11.6262 20.2724 11.6262 20.5195C11.6262 21.0134 11.2537 21.3725 10.7277 21.3725C10.2017 21.3725 9.74161 21.0808 9.47849 20.5644L8.75551 21.3052C9.28153 22.0907 9.91688 22.45 10.7934 22.45C11.9767 22.45 12.8097 21.6418 12.8097 20.4746C12.8094 19.5091 12.4151 19.0825 11.1221 18.5887ZM13.1602 19.2845C13.1602 21.0579 14.5189 22.4273 16.2718 22.4273C16.754 22.4273 17.1922 22.3374 17.6963 22.0905V20.6986C17.236 21.1699 16.8417 21.3721 16.3157 21.3721C15.1762 21.3721 14.3435 20.4966 14.3435 19.2843C14.3435 18.1394 15.1981 17.2191 16.2718 17.2191C16.8198 17.2191 17.236 17.4211 17.6963 17.8926V16.5231C17.2141 16.2536 16.7979 16.1416 16.2937 16.1416C14.5625 16.1418 13.1602 17.5562 13.1602 19.2845Z" fill="white"/>
<path fill-rule="evenodd" clip-rule="evenodd" d="M21.2687 16.1416C19.5373 16.1416 18.1348 17.5335 18.1348 19.2394C18.1348 21.0803 19.4716 22.4271 21.2687 22.4271C23.0214 22.4271 24.4023 21.0577 24.4023 19.2843C24.4025 17.5335 23.0436 16.1416 21.2687 16.1416Z" fill="#DB8135"/>
<path fill-rule="evenodd" clip-rule="evenodd" d="M21.2687 16.1416C19.5373 16.1416 18.1348 17.5335 18.1348 19.2394C18.1348 21.0803 19.4716 22.4271 21.2687 22.4271C23.0214 22.4271 24.4023 21.0577 24.4023 19.2843C24.4025 17.5335 23.0436 16.1416 21.2687 16.1416ZM21.2687 19.2843H24.4023H21.2687Z" fill="#DB8135"/>
<path fill-rule="evenodd" clip-rule="evenodd" d="M21.2687 19.2843H24.4023C24.4023 17.5333 23.0433 16.1416 21.2687 16.1416C19.5373 16.1416 18.1348 17.5335 18.1348 19.2394C18.1348 21.0803 19.4716 22.4271 21.2687 22.4271C23.0214 22.4271 24.4023 21.0577 24.4023 19.2843H21.2687Z" fill="#DB8135"/>
<path fill-rule="evenodd" clip-rule="evenodd" d="M21.2687 19.2843H24.4023C24.4023 17.5333 23.0433 16.1416 21.2687 16.1416C19.5373 16.1416 18.1348 17.5335 18.1348 19.2394C18.1348 21.0803 19.4716 22.4271 21.2687 22.4271C23.0214 22.4271 24.4023 21.0577 24.4023 19.2843H21.2687Z" fill="#DB8137"/>
<path fill-rule="evenodd" clip-rule="evenodd" d="M21.2687 19.2843H24.4023C24.4023 17.5333 23.0433 16.1416 21.2687 16.1416C19.5373 16.1416 18.1348 17.5335 18.1348 19.2394C18.1348 21.0803 19.4716 22.4271 21.2687 22.4271C23.0214 22.4271 24.4023 21.0577 24.4023 19.2843H21.2687Z" fill="#DC8337"/>
<path fill-rule="evenodd" clip-rule="evenodd" d="M21.2687 19.2843H24.4023C24.4023 17.5333 23.0433 16.1416 21.2687 16.1416C19.5373 16.1416 18.1348 17.5335 18.1348 19.2394C18.1348 21.0803 19.4716 22.4271 21.2687 22.4271C23.0214 22.4271 24.4023 21.0577 24.4023 19.2843H21.2687Z" fill="#DC8539"/>
<path fill-rule="evenodd" clip-rule="evenodd" d="M21.2687 19.2843H24.4023C24.4023 17.5333 23.0433 16.1416 21.2687 16.1416C19.5373 16.1416 18.1348 17.5335 18.1348 19.2394C18.1348 21.0803 19.4716 22.4271 21.2687 22.4271C23.0214 22.4271 24.4023 21.0577 24.4023 19.2843H21.2687Z" fill="#DC853A"/>
<path fill-rule="evenodd" clip-rule="evenodd" d="M21.2687 19.2843H24.4023C24.4023 17.5333 23.0433 16.1416 21.2687 16.1416C19.5373 16.1416 18.1348 17.5335 18.1348 19.2394C18.1348 21.0803 19.4716 22.4271 21.2687 22.4271C23.0214 22.4271 24.4023 21.0577 24.4023 19.2843H21.2687Z" fill="#DC853C"/>
<path fill-rule="evenodd" clip-rule="evenodd" d="M21.2687 19.2843H24.4023C24.4023 17.5333 23.0433 16.1416 21.2687 16.1416C19.5373 16.1416 18.1348 17.5335 18.1348 19.2394C18.1348 21.0803 19.4716 22.4271 21.2687 22.4271C23.0214 22.4271 24.4023 21.0577 24.4023 19.2843H21.2687Z" fill="#DD873E"/>
<path fill-rule="evenodd" clip-rule="evenodd" d="M21.2687 19.2843H24.4023C24.4023 17.5333 23.0433 16.1416 21.2687 16.1416C19.5373 16.1416 18.1348 17.5335 18.1348 19.2394C18.1348 21.0803 19.4716 22.4271 21.2687 22.4271C23.0214 22.4271 24.4023 21.0577 24.4023 19.2843H21.2687Z" fill="#DD873E"/>
<path fill-rule="evenodd" clip-rule="evenodd" d="M21.2687 19.2843H24.4023C24.4023 17.5333 23.0433 16.1416 21.2687 16.1416C19.5373 16.1416 18.1348 17.5335 18.1348 19.2394C18.1348 21.0803 19.4716 22.4271 21.2687 22.4271C23.0214 22.4271 24.4023 21.0577 24.4023 19.2843H21.2687Z" fill="#DD883F"/>
<path fill-rule="evenodd" clip-rule="evenodd" d="M21.2687 19.2843H24.4023C24.4023 17.5333 23.0433 16.1416 21.2687 16.1416C19.5373 16.1416 18.1348 17.5335 18.1348 19.2394C18.1348 21.0803 19.4716 22.4271 21.2687 22.4271C23.0214 22.4271 24.4023 21.0577 24.4023 19.2843H21.2687Z" fill="#DD8841"/>
<path fill-rule="evenodd" clip-rule="evenodd" d="M21.2687 19.2843H24.4023C24.4023 17.5333 23.0433 16.1416 21.2687 16.1416C19.5373 16.1416 18.1348 17.5335 18.1348 19.2394C18.1348 21.0803 19.4716 22.4271 21.2687 22.4271C23.0214 22.4271 24.4023 21.0577 24.4023 19.2843H21.2687Z" fill="#DE8A41"/>
<path fill-rule="evenodd" clip-rule="evenodd" d="M21.2687 19.2843H24.4023C24.4023 17.5333 23.0433 16.1416 21.2687 16.1416C19.5373 16.1416 18.1348 17.5335 18.1348 19.2394C18.1348 21.0803 19.4716 22.4271 21.2687 22.4271C23.0214 22.4271 24.4023 21.0577 24.4023 19.2843H21.2687Z" fill="#DE8A43"/>
<path fill-rule="evenodd" clip-rule="evenodd" d="M21.2687 19.2843H24.4023C24.4023 17.5333 23.0433 16.1416 21.2687 16.1416C19.5373 16.1416 18.1348 17.5335 18.1348 19.2394C18.1348 21.0803 19.4716 22.4271 21.2687 22.4271C23.0214 22.4271 24.4023 21.0577 24.4023 19.2843H21.2687Z" fill="#DE8A44"/>
<path fill-rule="evenodd" clip-rule="evenodd" d="M21.2687 19.2843H24.4023C24.4023 17.5333 23.0433 16.1416 21.2687 16.1416C19.5373 16.1416 18.1348 17.5335 18.1348 19.2394C18.1348 21.0803 19.4716 22.4271 21.2687 22.4271C23.0214 22.4271 24.4023 21.0577 24.4023 19.2843H21.2687Z" fill="#DE8C46"/>
<path fill-rule="evenodd" clip-rule="evenodd" d="M21.2683 19.2845H24.4019H21.2683ZM24.4021 19.2845C24.4021 19.2572 24.4017 19.23 24.4008 19.2028V19.2017C24.4003 19.1749 24.3993 19.1482 24.3978 19.1215V19.1193C24.3965 19.0931 24.3949 19.067 24.393 19.0409C24.393 19.0398 24.393 19.0387 24.3925 19.0376C24.3908 19.0119 24.3887 18.9863 24.3864 18.9607C24.3859 18.9592 24.3859 18.9579 24.3859 18.9563C24.3834 18.9312 24.3805 18.9062 24.3772 18.8812V18.8805C24.3742 18.8566 24.371 18.8328 24.3676 18.809C24.3672 18.8066 24.3668 18.8042 24.3668 18.8018C24.363 18.7783 24.3593 18.755 24.3551 18.7315L24.3538 18.7236L24.3472 18.6855L24.3385 18.6404L24.334 18.6188C24.3302 18.6005 24.3266 18.5822 24.3223 18.5641C24.3206 18.5556 24.3181 18.5473 24.3166 18.5388L24.304 18.4879L24.2915 18.4399L24.2853 18.4164C24.2809 18.3996 24.2758 18.3831 24.2713 18.3665L24.2638 18.3406C23.8759 17.0587 22.7092 16.1416 21.2685 16.1416C20.0004 16.1416 18.909 16.8885 18.4155 17.9584C18.2328 18.3677 18.1371 18.8121 18.1348 19.2622C18.1371 19.6512 18.1994 20.0179 18.3128 20.3541L18.3226 20.3822L18.3268 20.394C18.4478 20.73 18.6228 21.0429 18.8448 21.3196C19.4084 22.0086 20.2669 22.4271 21.2685 22.4271C22.6926 22.4271 23.8708 21.5233 24.263 20.233L24.283 20.1637V20.1634C24.3402 19.9572 24.3769 19.7456 24.3927 19.5318L24.3932 19.5313C24.3949 19.5043 24.397 19.4771 24.3981 19.4499V19.4496C24.4007 19.3946 24.402 19.3396 24.4021 19.2845Z" fill="#DF8E47"/>
<path fill-rule="evenodd" clip-rule="evenodd" d="M21.2683 19.2843H24.38C24.38 18.0632 23.6974 17.0062 22.7049 16.478C22.2778 16.2627 21.7914 16.1416 21.2683 16.1416C20.5951 16.1416 19.9725 16.3523 19.4618 16.7092C18.6733 17.2829 18.1562 18.2214 18.1562 19.2843C18.1562 20.4535 18.782 21.4826 19.7064 22.0373C20.1601 22.2877 20.69 22.4271 21.2683 22.4271C21.9975 22.4271 22.6618 22.1901 23.1893 21.7861C23.9125 21.2004 24.38 20.2946 24.38 19.2843H21.2683Z" fill="#DF8E48"/>
<path fill-rule="evenodd" clip-rule="evenodd" d="M21.2694 19.2843H24.3371C24.3371 17.5557 22.9566 16.1416 21.2694 16.1416C21.2428 16.1416 21.2167 16.142 21.1905 16.1427H21.1884C19.5382 16.1869 18.2012 17.5836 18.2012 19.2843C18.2004 19.9423 18.3998 20.5843 18.7715 21.121C19.1433 21.6577 19.669 22.0624 20.2757 22.279C20.585 22.3755 20.9183 22.4273 21.2692 22.4273C21.6976 22.4273 22.1034 22.3452 22.4727 22.1959C23.027 21.9501 23.4989 21.5434 23.8302 21.026C24.1614 20.5086 24.3376 19.9032 24.3368 19.2845H21.2694V19.2843Z" fill="#DF8E4A"/>
<path fill-rule="evenodd" clip-rule="evenodd" d="M21.269 19.2845H24.3149C24.3149 17.5784 22.956 16.1641 21.269 16.1641C19.5814 16.1641 18.2227 17.5784 18.2227 19.2845C18.2218 19.6945 18.3 20.1007 18.4528 20.4797C18.6056 20.8587 18.8299 21.2031 19.113 21.493C19.396 21.783 19.7322 22.0128 20.1022 22.1693C20.4722 22.3258 20.8687 22.4058 21.269 22.4049C21.6693 22.4058 22.0657 22.3257 22.4357 22.1691C22.8056 22.0126 23.1417 21.7828 23.4248 21.4929C23.7078 21.2029 23.9321 20.8586 24.0849 20.4796C24.2376 20.1007 24.3158 19.6945 24.3149 19.2845H21.269Z" fill="#DF904A"/>
<path fill-rule="evenodd" clip-rule="evenodd" d="M21.2686 19.2845H24.2926C24.2926 17.5784 22.9336 16.209 21.2686 16.209C19.6029 16.209 18.2441 17.5784 18.2441 19.2845C18.2441 20.9908 19.6029 22.3825 21.2686 22.3825C22.9336 22.3825 24.2926 20.9906 24.2926 19.2845H21.2686Z" fill="#E0914C"/>
<path fill-rule="evenodd" clip-rule="evenodd" d="M21.2682 19.2843H24.2701C24.2701 17.6007 22.9115 16.2314 21.2682 16.2314C19.6244 16.2314 18.2656 17.6007 18.2656 19.2843C18.2656 20.9906 19.6244 22.3599 21.2682 22.3599C22.9117 22.3599 24.2701 20.9906 24.2701 19.2843H21.2682Z" fill="#E0914E"/>
<path fill-rule="evenodd" clip-rule="evenodd" d="M21.2693 19.2846H24.2275C24.2275 17.6234 22.9126 16.2539 21.2693 16.2539C19.6255 16.2539 18.3105 17.6234 18.3105 19.2846C18.3105 20.9682 19.6255 22.3375 21.2693 22.3375C22.9128 22.3375 24.2275 20.9682 24.2275 19.2846H21.2693Z" fill="#DF924F"/>
<path fill-rule="evenodd" clip-rule="evenodd" d="M21.2688 19.2844H24.2052C24.2052 17.6232 22.8903 16.2764 21.2688 16.2764C19.647 16.2764 18.332 17.6234 18.332 19.2844C18.332 20.9454 19.647 22.2926 21.2688 22.2926C22.8903 22.2926 24.2052 20.9454 24.2052 19.2844H21.2688Z" fill="#E09351"/>
<path fill-rule="evenodd" clip-rule="evenodd" d="M21.2684 19.2844H24.1827C24.1827 17.6456 22.8677 16.3213 21.2684 16.3213C19.6685 16.3213 18.3535 17.6456 18.3535 19.2844C18.3535 20.9456 19.6685 22.2702 21.2684 22.2702C22.8679 22.2702 24.1827 20.9456 24.1827 19.2844H21.2684Z" fill="#E09552"/>
<path fill-rule="evenodd" clip-rule="evenodd" d="M21.268 19.2844H24.1386C24.1386 17.6683 22.8673 16.3438 21.268 16.3438C19.668 16.3438 18.375 17.6683 18.375 19.2844C18.375 20.9232 19.668 22.2475 21.268 22.2475C22.8675 22.2475 24.1386 20.9232 24.1386 19.2844H21.268Z" fill="#E09554"/>
<path fill-rule="evenodd" clip-rule="evenodd" d="M21.2689 19.2844H24.1176C24.1183 18.901 24.0451 18.5212 23.9022 18.1668C23.7593 17.8125 23.5495 17.4905 23.2848 17.2193C23.0201 16.9482 22.7058 16.7333 22.3599 16.5869C22.0139 16.4405 21.6432 16.3655 21.2689 16.3662C20.8946 16.3654 20.5238 16.4404 20.1778 16.5868C19.8318 16.7331 19.5175 16.9481 19.2528 17.2192C18.9881 17.4903 18.7782 17.8123 18.6353 18.1668C18.4924 18.5212 18.4192 18.901 18.4199 19.2844C18.4199 20.9008 19.6908 22.2253 21.2689 22.2253C22.8463 22.2253 24.1176 20.9008 24.1176 19.2844H21.2689Z" fill="#E09555"/>
<path fill-rule="evenodd" clip-rule="evenodd" d="M21.2687 19.2845H24.0953C24.0953 17.6906 22.8244 16.3887 21.2687 16.3887C19.7125 16.3887 18.4414 17.6906 18.4414 19.2845C18.4414 20.9008 19.7125 22.1805 21.2687 22.1805C21.6402 22.1814 22.0082 22.1071 22.3515 21.9619C22.6949 21.8167 23.0069 21.6034 23.2696 21.3343C23.5322 21.0652 23.7404 20.7455 23.8821 20.3938C24.0238 20.042 24.0963 19.665 24.0953 19.2845H21.2687Z" fill="#E19756"/>
<path fill-rule="evenodd" clip-rule="evenodd" d="M21.268 19.2845H24.0728C24.0728 17.7133 22.824 16.4336 21.268 16.4336C19.7119 16.4336 18.4629 17.7133 18.4629 19.2845C18.4618 19.6622 18.5335 20.0364 18.6741 20.3855C18.8147 20.7347 19.0212 21.0519 19.282 21.319C19.5427 21.586 19.8524 21.7976 20.1932 21.9416C20.5341 22.0856 20.8994 22.159 21.268 22.1578C21.6367 22.159 22.0019 22.0855 22.3427 21.9415C22.6835 21.7975 22.9932 21.5859 23.2539 21.3188C23.5145 21.0518 23.7211 20.7345 23.8616 20.3854C24.0022 20.0363 24.0739 19.6621 24.0728 19.2845H21.268Z" fill="#E19757"/>
<path fill-rule="evenodd" clip-rule="evenodd" d="M21.2676 19.2845H24.0285C24.0285 17.7133 22.8012 16.4561 21.2676 16.4561C19.7334 16.4561 18.4844 17.7133 18.4844 19.2845C18.4844 20.8559 19.7336 22.1354 21.2676 22.1354C22.8014 22.1354 24.0285 20.8557 24.0285 19.2845H21.2676Z" fill="#E29959"/>
<path fill-rule="evenodd" clip-rule="evenodd" d="M21.2687 19.2845H24.0077C24.0077 17.7355 22.7804 16.4785 21.2687 16.4785C19.7564 16.4785 18.5293 17.7355 18.5293 19.2845C18.5293 20.8335 19.7566 22.113 21.2687 22.113C22.7804 22.113 24.0077 20.8335 24.0077 19.2845H21.2687Z" fill="#E2995B"/>
<path fill-rule="evenodd" clip-rule="evenodd" d="M21.2683 19.2845H23.9852C23.9852 17.7582 22.7579 16.501 21.2683 16.501C19.7779 16.501 18.5508 17.7582 18.5508 19.2845C18.5508 20.8335 19.7781 22.0681 21.2683 22.0681C22.7581 22.0681 23.9852 20.8335 23.9852 19.2845H21.2683Z" fill="#E29B5B"/>
<path fill-rule="evenodd" clip-rule="evenodd" d="M21.2679 19.2846H23.9633C23.9633 17.7805 22.7577 16.5459 21.2679 16.5459C19.7774 16.5459 18.5723 17.7805 18.5723 19.2846C18.5723 20.8111 19.7777 22.0457 21.2679 22.0457C22.7577 22.0457 23.9633 20.8109 23.9633 19.2846H21.2679Z" fill="#E29B5D"/>
<path fill-rule="evenodd" clip-rule="evenodd" d="M21.269 19.2846H23.9203C23.921 18.9277 23.8529 18.5742 23.7199 18.2444C23.5869 17.9145 23.3916 17.6148 23.1453 17.3625C22.8989 17.1101 22.6064 16.9101 22.2844 16.7738C21.9624 16.6375 21.6174 16.5677 21.269 16.5684C19.8005 16.5684 18.6172 17.7805 18.6172 19.2846C18.6172 20.7887 19.8005 22.0235 21.269 22.0235C22.7371 22.0235 23.9203 20.7887 23.9203 19.2846H21.269Z" fill="#E39D5F"/>
<path fill-rule="evenodd" clip-rule="evenodd" d="M21.2685 19.2846H23.8978C23.8978 17.803 22.7147 16.5908 21.2685 16.5908C19.8219 16.5908 18.6387 17.803 18.6387 19.2846C18.6387 20.7887 19.8219 22.0009 21.2685 22.0009C22.7147 22.0009 23.8978 20.7887 23.8978 19.2846H21.2685Z" fill="#E39D61"/>
<path fill-rule="evenodd" clip-rule="evenodd" d="M21.2681 19.2846H23.8759C23.8759 17.8254 22.7143 16.6133 21.2681 16.6133C19.8215 16.6133 18.6602 17.8254 18.6602 19.2846C18.6602 20.7663 19.8215 21.956 21.2681 21.956C22.7143 21.956 23.8759 20.7663 23.8759 19.2846H21.2681Z" fill="#E39F63"/>
<path fill-rule="evenodd" clip-rule="evenodd" d="M21.2677 19.2847H23.8533C23.8533 17.8254 22.6918 16.6582 21.2677 16.6582C19.843 16.6582 18.6816 17.8254 18.6816 19.2847C18.6816 20.7439 19.843 21.9338 21.2677 21.9338C22.6918 21.9338 23.8533 20.7439 23.8533 19.2847H21.2677Z" fill="#E39F63"/>
<path fill-rule="evenodd" clip-rule="evenodd" d="M21.2688 19.2847H23.8104C23.8104 17.8481 22.6714 16.6807 21.2688 16.6807C19.866 16.6807 18.7266 17.8479 18.7266 19.2847C18.7266 20.7439 19.866 21.9112 21.2688 21.9112C22.6714 21.9112 23.8104 20.7439 23.8104 19.2847H21.2688Z" fill="#E39F64"/>
<path fill-rule="evenodd" clip-rule="evenodd" d="M21.2684 19.2847H23.7885C23.7885 17.8706 22.671 16.7031 21.2684 16.7031C19.8656 16.7031 18.748 17.8706 18.748 19.2847C18.748 20.7215 19.8656 21.889 21.2684 21.889C22.671 21.889 23.7885 20.7215 23.7885 19.2847H21.2684Z" fill="#E4A166"/>
<path fill-rule="evenodd" clip-rule="evenodd" d="M21.268 19.2847H23.766C23.766 17.8706 22.6484 16.7256 21.268 16.7256C19.8871 16.7256 18.7695 17.8704 18.7695 19.2847C18.7695 20.6991 19.8871 21.8441 21.268 21.8441C22.6484 21.8441 23.766 20.6991 23.766 19.2847H21.268Z" fill="#E4A367"/>
<path fill-rule="evenodd" clip-rule="evenodd" d="M21.2675 19.2848H23.7436C23.7436 17.8931 22.6261 16.7705 21.2675 16.7705C19.9086 16.7705 18.791 17.8929 18.791 19.2848C18.791 20.6991 19.9086 21.8215 21.2675 21.8215C22.6261 21.8215 23.7436 20.6991 23.7436 19.2848H21.2675Z" fill="#E4A369"/>
<path fill-rule="evenodd" clip-rule="evenodd" d="M21.2686 19.2848H23.7011C23.7011 17.9155 22.6272 16.793 21.2686 16.793C19.9097 16.793 18.8359 17.9155 18.8359 19.2848C18.8359 20.6767 19.9097 21.799 21.2686 21.799C22.6272 21.799 23.7011 20.6767 23.7011 19.2848H21.2686Z" fill="#E4A36A"/>
<path fill-rule="evenodd" clip-rule="evenodd" d="M21.2682 19.2848H23.6786C23.6795 18.9603 23.6178 18.6388 23.4969 18.3388C23.3761 18.0388 23.1986 17.7662 22.9746 17.5367C22.7506 17.3072 22.4846 17.1254 22.1917 17.0016C21.8989 16.8778 21.585 16.8145 21.2682 16.8154C20.9514 16.8145 20.6375 16.8777 20.3446 17.0014C20.0517 17.1252 19.7855 17.307 19.5615 17.5365C19.3374 17.766 19.1599 18.0386 19.0391 18.3387C18.9182 18.6387 18.8565 18.9602 18.8574 19.2848C18.8574 20.6543 19.9312 21.7766 21.2682 21.7766C22.6046 21.7766 23.6786 20.6543 23.6786 19.2848H21.2682Z" fill="#E5A56C"/>
<path fill-rule="evenodd" clip-rule="evenodd" d="M21.2678 19.2846H23.6563C23.6563 17.9378 22.5823 16.8379 21.2678 16.8379C19.9526 16.8379 18.8789 17.9378 18.8789 19.2846C18.8789 20.6316 19.9526 21.7315 21.2678 21.7315C22.5823 21.7315 23.6563 20.6316 23.6563 19.2846H21.2678Z" fill="#E5A56C"/>
<path fill-rule="evenodd" clip-rule="evenodd" d="M21.2693 19.2846H23.6356C23.6356 17.9603 22.5621 16.8828 21.2693 16.8828C19.9761 16.8828 18.9023 17.9603 18.9023 19.2846C18.9023 20.6316 19.9761 21.7089 21.2693 21.7089C22.5621 21.7089 23.6356 20.6316 23.6356 19.2846H21.2693Z" fill="#E5A76E"/>
<path fill-rule="evenodd" clip-rule="evenodd" d="M21.2683 19.2847H23.591C23.591 17.9827 22.5611 16.9053 21.2683 16.9053C19.975 16.9053 18.9453 17.9827 18.9453 19.2847C18.9453 20.6092 19.9752 21.6867 21.2683 21.6867C22.5611 21.6867 23.591 20.6092 23.591 19.2847H21.2683Z" fill="#E5A770"/>
<path fill-rule="evenodd" clip-rule="evenodd" d="M21.268 19.2847H23.5686C23.5686 17.9828 22.5387 16.9277 21.268 16.9277C19.9967 16.9277 18.9668 17.9828 18.9668 19.2847C18.9668 20.5868 19.9967 21.6418 21.268 21.6418C22.5389 21.6418 23.5686 20.5868 23.5686 19.2847H21.268Z" fill="#E6A970"/>
<path fill-rule="evenodd" clip-rule="evenodd" d="M21.2676 19.2847H23.5463C23.5463 18.0052 22.5164 16.9502 21.2676 16.9502C20.0182 16.9502 18.9883 18.0052 18.9883 19.2847C18.9883 20.5868 20.0182 21.6192 21.2676 21.6192C22.5164 21.6192 23.5463 20.5868 23.5463 19.2847H21.2676Z" fill="#E6A972"/>
<path fill-rule="evenodd" clip-rule="evenodd" d="M21.2692 19.2847H23.5262C23.5262 18.0277 22.5179 16.9951 21.2692 16.9951C20.0197 16.9951 19.0117 18.0277 19.0117 19.2847C19.0113 19.5885 19.0694 19.8894 19.1827 20.1702C19.296 20.4509 19.4623 20.706 19.672 20.9208C19.8817 21.1356 20.1307 21.3059 20.4048 21.4219C20.6789 21.538 20.9726 21.5975 21.2692 21.597C21.5657 21.5974 21.8594 21.5379 22.1334 21.4218C22.4074 21.3058 22.6564 21.1354 22.866 20.9206C23.0757 20.7058 23.2419 20.4508 23.3552 20.1701C23.4685 19.8893 23.5266 19.5885 23.5262 19.2847H21.2692Z" fill="#E6AB74"/>
<path fill-rule="evenodd" clip-rule="evenodd" d="M21.2683 19.2848H23.4813C23.4821 18.9868 23.4254 18.6917 23.3144 18.4162C23.2035 18.1408 23.0405 17.8906 22.8349 17.6799C22.6292 17.4692 22.385 17.3023 22.1161 17.1886C21.8473 17.0749 21.5592 17.0168 21.2683 17.0176C20.9774 17.0167 20.6892 17.0748 20.4203 17.1884C20.1514 17.302 19.907 17.469 19.7013 17.6797C19.4956 17.8904 19.3326 18.1406 19.2216 18.4161C19.1106 18.6916 19.0539 18.9868 19.0547 19.2848C19.0547 20.542 20.0408 21.5746 21.2683 21.5746C22.4952 21.5746 23.4813 20.542 23.4813 19.2848H21.2683Z" fill="#E6AB75"/>
<path fill-rule="evenodd" clip-rule="evenodd" d="M21.2679 19.2848H23.4589C23.4589 18.05 22.4731 17.04 21.2679 17.04C20.0625 17.04 19.0762 18.0502 19.0762 19.2848C19.0762 20.542 20.0623 21.5297 21.2679 21.5297C21.5559 21.5307 21.8413 21.4733 22.1076 21.3609C22.3739 21.2484 22.6159 21.0831 22.8195 20.8744C23.0232 20.6657 23.1845 20.4178 23.2943 20.145C23.404 19.8722 23.46 19.5798 23.4589 19.2848H21.2679Z" fill="#E7AD77"/>
<path fill-rule="evenodd" clip-rule="evenodd" d="M21.2694 19.2848H23.4388C23.4388 18.0726 22.4746 17.0625 21.2694 17.0625C20.064 17.0625 19.0996 18.0726 19.0996 19.2848C19.0996 20.5196 20.0638 21.5073 21.2694 21.5073C21.5546 21.5085 21.8373 21.4518 22.101 21.3406C22.3648 21.2293 22.6044 21.0656 22.8061 20.859C23.0078 20.6524 23.1675 20.4069 23.2761 20.1367C23.3847 19.8665 23.44 19.577 23.4388 19.2848H21.2694Z" fill="#E7AD77"/>
<path fill-rule="evenodd" clip-rule="evenodd" d="M21.269 19.2845H23.4164C23.4164 18.0724 22.4522 17.1069 21.269 17.1069C20.0855 17.1069 19.1211 18.0724 19.1211 19.2845C19.1211 20.4969 20.0853 21.4846 21.269 21.4846C22.452 21.4846 23.4164 20.4969 23.4164 19.2845H21.269Z" fill="#E8AF79"/>
<path fill-rule="evenodd" clip-rule="evenodd" d="M21.2681 19.2848H23.3716C23.3716 18.0951 22.4293 17.1299 21.2681 17.1299C20.1066 17.1299 19.1641 18.0951 19.1641 19.2848C19.1641 20.4972 20.1063 21.4624 21.2681 21.4624C22.4293 21.4624 23.3716 20.4972 23.3716 19.2848H21.2681Z" fill="#E8AF7B"/>
<path fill-rule="evenodd" clip-rule="evenodd" d="M21.2677 19.2846H23.3494C23.3494 18.1173 22.4289 17.1519 21.2677 17.1519C20.1061 17.1519 19.1855 18.1173 19.1855 19.2846C19.1855 20.4743 20.1059 21.4173 21.2677 21.4173C22.4289 21.4173 23.3494 20.4745 23.3494 19.2846H21.2677Z" fill="#E8B17B"/>
<path fill-rule="evenodd" clip-rule="evenodd" d="M21.2692 19.2844H23.3291C23.3293 19.0072 23.2763 18.7327 23.1728 18.4766C23.0694 18.2204 22.9177 17.9877 22.7264 17.7917C22.535 17.5957 22.3079 17.4403 22.0578 17.3344C21.8078 17.2284 21.5398 17.174 21.2692 17.1743C20.9986 17.174 20.7306 17.2283 20.4805 17.3342C20.2304 17.4401 20.0032 17.5955 19.8118 17.7915C19.6204 17.9875 19.4687 18.2203 19.3653 18.4765C19.2618 18.7326 19.2087 19.0072 19.209 19.2844C19.2087 19.5616 19.2618 19.8362 19.3652 20.0924C19.4686 20.3486 19.6204 20.5813 19.8117 20.7774C20.0031 20.9734 20.2304 21.1288 20.4805 21.2347C20.7306 21.3407 20.9986 21.395 21.2692 21.3947C21.5398 21.3949 21.8078 21.3405 22.0578 21.2346C22.3079 21.1286 22.5351 20.9732 22.7264 20.7771C22.9177 20.5811 23.0694 20.3484 23.1728 20.0922C23.2763 19.8361 23.3293 19.5616 23.3291 19.2844H21.2692Z" fill="#E8B17D"/>
<path fill-rule="evenodd" clip-rule="evenodd" d="M21.2688 19.2844H23.3065C23.3065 18.1396 22.3864 17.2192 21.2688 17.2192C20.1511 17.2192 19.2305 18.1396 19.2305 19.2844C19.2305 20.4292 20.1508 21.3723 21.2688 21.3723C22.3864 21.3723 23.3065 20.4294 23.3065 19.2844H21.2688Z" fill="#E8B17E"/>
<path fill-rule="evenodd" clip-rule="evenodd" d="M21.2678 19.2844H23.2619C23.2619 18.1621 22.3632 17.2417 21.2678 17.2417C21.0056 17.2408 20.7459 17.293 20.5036 17.3953C20.2612 17.4977 20.041 17.6481 19.8556 17.8379C19.6703 18.0278 19.5234 18.2534 19.4235 18.5016C19.3236 18.7499 19.2726 19.0159 19.2734 19.2844C19.2734 20.4293 20.15 21.3496 21.2678 21.3496C22.3632 21.3496 23.2619 20.4293 23.2619 19.2844H21.2678Z" fill="#E9B381"/>
<path fill-rule="evenodd" clip-rule="evenodd" d="M21.2693 19.2845H23.2413C23.2424 19.0189 23.1921 18.7557 23.0934 18.5101C22.9947 18.2645 22.8495 18.0413 22.6662 17.8535C22.4828 17.6657 22.265 17.5169 22.0253 17.4157C21.7855 17.3146 21.5286 17.2631 21.2693 17.2642C21.01 17.2631 20.753 17.3145 20.5132 17.4157C20.2735 17.5168 20.0556 17.6656 19.8722 17.8534C19.6889 18.0412 19.5436 18.2644 19.4449 18.51C19.3461 18.7556 19.2958 19.0188 19.2969 19.2845C19.2958 19.5501 19.3461 19.8133 19.4449 20.059C19.5436 20.3046 19.6888 20.5278 19.8722 20.7156C20.0556 20.9035 20.2734 21.0523 20.5132 21.1534C20.753 21.2546 21.01 21.3061 21.2693 21.305C21.5286 21.3061 21.7855 21.2545 22.0253 21.1533C22.265 21.0522 22.4828 20.9034 22.6662 20.7155C22.8495 20.5277 22.9947 20.3045 23.0934 20.0589C23.1921 19.8133 23.2424 19.5501 23.2413 19.2845H21.2693Z" fill="#E9B381"/>
<path fill-rule="evenodd" clip-rule="evenodd" d="M21.2689 19.2845H23.2189C23.2189 18.1846 22.3424 17.2866 21.2689 17.2866C20.1949 17.2866 19.3184 18.1846 19.3184 19.2845C19.3184 20.3844 20.1949 21.2823 21.2689 21.2823C22.3424 21.2823 23.2189 20.3844 23.2189 19.2845H21.2689Z" fill="#E9B583"/>
<path fill-rule="evenodd" clip-rule="evenodd" d="M21.2684 19.2845H23.1968C23.1968 18.207 22.3198 17.3315 21.2684 17.3315C20.2164 17.3315 19.3398 18.207 19.3398 19.2845C19.3398 20.3844 20.2164 21.2599 21.2684 21.2599C22.3198 21.2599 23.1968 20.3844 23.1968 19.2845H21.2684Z" fill="#E9B584"/>
<path fill-rule="evenodd" clip-rule="evenodd" d="M21.2676 19.2845H23.1519C23.1519 18.2295 22.319 17.354 21.2676 17.354C20.2155 17.354 19.3828 18.2295 19.3828 19.2845C19.3828 20.362 20.2155 21.2375 21.2676 21.2375C22.319 21.2375 23.1519 20.362 23.1519 19.2845H21.2676Z" fill="#EAB786"/>
<path fill-rule="evenodd" clip-rule="evenodd" d="M21.2691 19.2845H23.1316C23.1318 19.0339 23.0838 18.7857 22.9902 18.5541C22.8967 18.3225 22.7596 18.1121 22.5866 17.9349C22.4136 17.7577 22.2082 17.6171 21.9821 17.5213C21.7561 17.4255 21.5138 17.3763 21.2691 17.3765C20.239 17.3765 19.4062 18.2295 19.4062 19.2845C19.4062 20.3396 20.239 21.1926 21.2691 21.1926C21.5138 21.1928 21.7561 21.1436 21.9821 21.0478C22.2082 20.952 22.4136 20.8114 22.5866 20.6342C22.7596 20.457 22.8967 20.2465 22.9902 20.015C23.0838 19.7834 23.1318 19.5352 23.1316 19.2845H21.2691Z" fill="#EAB788"/>
<path fill-rule="evenodd" clip-rule="evenodd" d="M21.2687 19.2846H23.109C23.109 18.252 22.2765 17.3989 21.2687 17.3989C20.2605 17.3989 19.4277 18.252 19.4277 19.2846C19.4277 20.3396 20.2605 21.1702 21.2687 21.1702C22.2765 21.1702 23.109 20.3396 23.109 19.2846H21.2687Z" fill="#EBB989"/>
<path fill-rule="evenodd" clip-rule="evenodd" d="M21.2683 19.2846H23.0871C23.0871 18.2744 22.2763 17.4438 21.2683 17.4438C20.2601 17.4438 19.4492 18.2744 19.4492 19.2846C19.4486 19.5295 19.4953 19.772 19.5865 19.9984C19.6777 20.2247 19.8117 20.4304 19.9807 20.6035C20.1497 20.7766 20.3505 20.9138 20.5715 21.0073C20.7924 21.1007 21.0292 21.1484 21.2683 21.1478C21.5073 21.1484 21.7441 21.1006 21.965 21.0072C22.186 20.9138 22.3867 20.7766 22.5557 20.6034C22.7247 20.4303 22.8587 20.2246 22.9499 19.9983C23.0411 19.772 23.0877 19.5294 23.0871 19.2846H21.2683Z" fill="#EBB98A"/>
<path fill-rule="evenodd" clip-rule="evenodd" d="M21.2694 19.2841H23.0442C23.0452 19.0451 22.9999 18.8082 22.9111 18.5872C22.8222 18.3661 22.6915 18.1653 22.5265 17.9962C22.3615 17.8272 22.1655 17.6933 21.9497 17.6023C21.734 17.5112 21.5027 17.4649 21.2694 17.4658C20.2831 17.4658 19.4941 18.2738 19.4941 19.2841C19.4941 20.2945 20.2831 21.1251 21.2694 21.1251C22.2552 21.1251 23.0442 20.2945 23.0442 19.2841H21.2694Z" fill="#EBBB8C"/>
<path fill-rule="evenodd" clip-rule="evenodd" d="M21.2689 19.2841H23.0216C23.0216 18.2964 22.2331 17.4883 21.2689 17.4883C20.3045 17.4883 19.5156 18.2962 19.5156 19.2841C19.5156 20.2943 20.3045 21.0802 21.2689 21.0802C22.2331 21.0802 23.0216 20.2945 23.0216 19.2841H21.2689Z" fill="#EBBB8C"/>
<path fill-rule="evenodd" clip-rule="evenodd" d="M21.2686 19.2847H22.9998C22.9998 18.3194 22.233 17.5112 21.2686 17.5112C20.3042 17.5112 19.5371 18.3192 19.5371 19.2847C19.5358 19.5179 19.5796 19.7492 19.6662 19.965C19.7527 20.1808 19.8802 20.3769 20.0413 20.5418C20.2023 20.7068 20.3937 20.8374 20.6044 20.926C20.8151 21.0146 21.0408 21.0595 21.2686 21.0581C21.4963 21.0595 21.722 21.0146 21.9327 20.926C22.1434 20.8373 22.3347 20.7068 22.4958 20.5418C22.6568 20.3768 22.7843 20.1808 22.8708 19.965C22.9573 19.7492 23.0011 19.5179 22.9998 19.2847H21.2686Z" fill="#ECBD8F"/>
<path fill-rule="evenodd" clip-rule="evenodd" d="M21.2681 19.2842H22.9772C22.9772 18.3189 22.2104 17.5557 21.2681 17.5557C20.3256 17.5557 19.5586 18.3187 19.5586 19.2842C19.5586 20.2497 20.3256 21.0354 21.2681 21.0354C22.2104 21.0354 22.9772 20.2497 22.9772 19.2842H21.2681Z" fill="#ECBD90"/>
<path fill-rule="evenodd" clip-rule="evenodd" d="M21.2692 19.2842H22.9343C22.9344 19.0602 22.8914 18.8383 22.8077 18.6313C22.7241 18.4243 22.6015 18.2362 22.4468 18.0777C22.2922 17.9193 22.1086 17.7936 21.9066 17.7079C21.7045 17.6222 21.4879 17.5781 21.2692 17.5781C21.0504 17.578 20.8338 17.6221 20.6317 17.7078C20.4296 17.7935 20.2459 17.9191 20.0912 18.0776C19.9365 18.236 19.8138 18.4241 19.7301 18.6312C19.6465 18.8382 19.6034 19.0601 19.6035 19.2842C19.6035 20.227 20.3486 21.0127 21.2692 21.0127C22.1894 21.0127 22.9343 20.227 22.9343 19.2842H21.2692Z" fill="#ECBF93"/>
<path fill-rule="evenodd" clip-rule="evenodd" d="M21.2688 19.2842H22.9123C22.9123 18.3639 22.167 17.6006 21.2688 17.6006C20.3482 17.6006 19.625 18.3639 19.625 19.2842C19.625 20.2271 20.3482 20.9679 21.2688 20.9679C22.167 20.9679 22.9123 20.2271 22.9123 19.2842H21.2688Z" fill="#ECBF93"/>
<path fill-rule="evenodd" clip-rule="evenodd" d="M21.2684 19.2843H22.8898C22.8898 18.3639 22.1666 17.623 21.2684 17.623C20.3697 17.623 19.6465 18.3637 19.6465 19.2843C19.6465 20.2049 20.3697 20.9455 21.2684 20.9455C21.4814 20.946 21.6925 20.9033 21.8895 20.82C22.0864 20.7367 22.2654 20.6143 22.416 20.46C22.5667 20.3056 22.6861 20.1223 22.7674 19.9205C22.8487 19.7188 22.8903 19.5025 22.8898 19.2843H21.2684Z" fill="#EDC195"/>
<path fill-rule="evenodd" clip-rule="evenodd" d="M21.2679 19.2846H22.8675C22.8675 18.3866 22.1447 17.6685 21.2679 17.6685C20.3912 17.6685 19.668 18.3868 19.668 19.2846C19.668 20.1825 20.3912 20.9233 21.2679 20.9233C22.1445 20.9233 22.8675 20.1825 22.8675 19.2846H21.2679Z" fill="#EDC196"/>
<path fill-rule="evenodd" clip-rule="evenodd" d="M21.269 19.2843H22.8247C22.8247 18.4088 22.1235 17.6904 21.269 17.6904C20.4142 17.6904 19.7129 18.4088 19.7129 19.2843C19.7129 20.1823 20.4142 20.9006 21.269 20.9006C22.1237 20.9006 22.8247 20.1823 22.8247 19.2843H21.269Z" fill="#EEC397"/>
<path fill-rule="evenodd" clip-rule="evenodd" d="M21.2686 19.2846H22.8024C22.8024 18.4315 22.1233 17.7134 21.2686 17.7134C20.4138 17.7134 19.7344 18.4318 19.7344 19.2846C19.7332 19.4913 19.772 19.6963 19.8487 19.8875C19.9253 20.0788 20.0383 20.2525 20.181 20.3987C20.3237 20.5449 20.4934 20.6606 20.6801 20.7391C20.8668 20.8176 21.0668 20.8573 21.2686 20.856C21.4704 20.8573 21.6705 20.8175 21.8571 20.739C22.0438 20.6605 22.2134 20.5448 22.356 20.3986C22.4987 20.2524 22.6117 20.0787 22.6883 19.8874C22.7649 19.6962 22.8037 19.4913 22.8024 19.2846H21.2686Z" fill="#EEC399"/>
<path fill-rule="evenodd" clip-rule="evenodd" d="M21.2682 19.2843H22.7799C22.7799 18.4313 22.1007 17.7354 21.2682 17.7354C20.4352 17.7354 19.7559 18.4313 19.7559 19.2843C19.7559 20.1376 20.4352 20.8333 21.2682 20.8333C22.1007 20.8333 22.7799 20.1376 22.7799 19.2843H21.2682Z" fill="#EEC59B"/>
<path fill-rule="evenodd" clip-rule="evenodd" d="M21.2678 19.2844H22.7575C22.7575 18.4538 22.0784 17.7803 21.2678 17.7803C20.4567 17.7803 19.7773 18.4538 19.7773 19.2844C19.7773 20.1376 20.4567 20.8109 21.2678 20.8109C22.0784 20.8109 22.7575 20.1376 22.7575 19.2844H21.2678Z" fill="#EEC69D"/>
<path fill-rule="evenodd" clip-rule="evenodd" d="M21.2689 19.2844H22.715C22.715 18.4765 22.0795 17.8027 21.2689 17.8027C20.4578 17.8027 19.8223 18.4762 19.8223 19.2844C19.8223 20.115 20.4578 20.7885 21.2689 20.7885C22.0795 20.7885 22.715 20.115 22.715 19.2844H21.2689Z" fill="#EEC69F"/>
<path fill-rule="evenodd" clip-rule="evenodd" d="M21.2684 19.2844H22.6925C22.6929 19.0927 22.6563 18.9028 22.5848 18.7257C22.5134 18.5485 22.4085 18.3875 22.2762 18.2519C22.1439 18.1163 21.9868 18.0089 21.8139 17.9356C21.6409 17.8624 21.4556 17.8249 21.2684 17.8252C21.0813 17.8248 20.8958 17.8623 20.7228 17.9355C20.5498 18.0086 20.3926 18.1161 20.2602 18.2517C20.1279 18.3873 20.0229 18.5483 19.9515 18.7255C19.88 18.9027 19.8434 19.0927 19.8438 19.2844C19.8434 19.4762 19.88 19.6661 19.9515 19.8433C20.0229 20.0206 20.1279 20.1816 20.2602 20.3172C20.3926 20.4527 20.5498 20.5602 20.7228 20.6334C20.8958 20.7066 21.0813 20.744 21.2684 20.7436C21.4556 20.744 21.6409 20.7065 21.8139 20.6333C21.9869 20.56 22.144 20.4526 22.2763 20.317C22.4086 20.1814 22.5135 20.0204 22.5849 19.8432C22.6563 19.666 22.6929 19.4761 22.6925 19.2844H21.2684Z" fill="#EFC89F"/>
<path fill-rule="evenodd" clip-rule="evenodd" d="M21.268 19.2842H22.6706C22.6706 18.4987 22.035 17.8477 21.268 17.8477C20.5008 17.8477 19.8652 18.4987 19.8652 19.2842C19.8647 19.4731 19.9006 19.6602 19.9709 19.8348C20.0412 20.0094 20.1445 20.168 20.2749 20.3015C20.4052 20.4351 20.5601 20.5409 20.7306 20.6129C20.901 20.6849 21.0837 20.7216 21.268 20.721C21.4524 20.7216 21.635 20.6848 21.8054 20.6128C21.9759 20.5408 22.1307 20.435 22.261 20.3015C22.3914 20.1679 22.4947 20.0093 22.565 19.8347C22.6353 19.6602 22.6712 19.4731 22.6706 19.2842H21.268Z" fill="#EFC8A1"/>
<path fill-rule="evenodd" clip-rule="evenodd" d="M21.2676 19.2843H22.6481C22.6481 18.5212 22.0344 17.8926 21.2676 17.8926C20.5004 17.8926 19.8867 18.5212 19.8867 19.2843C19.886 19.4702 19.9212 19.6545 19.9903 19.8265C20.0594 19.9984 20.1611 20.1547 20.2895 20.2862C20.4179 20.4176 20.5704 20.5218 20.7383 20.5926C20.9062 20.6634 21.0861 20.6994 21.2676 20.6986C21.4491 20.6993 21.629 20.6633 21.7968 20.5925C21.9646 20.5216 22.1171 20.4175 22.2454 20.286C22.3738 20.1545 22.4754 19.9983 22.5445 19.8264C22.6136 19.6544 22.6488 19.4702 22.6481 19.2843H21.2676Z" fill="#EFCAA3"/>
<path fill-rule="evenodd" clip-rule="evenodd" d="M21.2687 19.2843H22.6051C22.6063 19.1042 22.5725 18.9256 22.5058 18.759C22.439 18.5923 22.3406 18.4409 22.2163 18.3135C22.092 18.1862 21.9442 18.0853 21.7815 18.0169C21.6189 17.9485 21.4446 17.9139 21.2687 17.9151C21.0929 17.9139 20.9185 17.9485 20.7558 18.0169C20.5931 18.0853 20.4452 18.1861 20.3209 18.3134C20.1965 18.4408 20.098 18.5922 20.0312 18.7589C19.9644 18.9255 19.9306 19.1041 19.9317 19.2843C19.9317 20.0476 20.5234 20.6762 21.2687 20.6762C22.0136 20.6762 22.6051 20.0478 22.6051 19.2843H21.2687Z" fill="#EFCAA3"/>
<path fill-rule="evenodd" clip-rule="evenodd" d="M21.2683 19.2843H22.5828C22.5828 18.5435 21.9913 17.9375 21.2683 17.9375C20.5449 17.9375 19.9531 18.5435 19.9531 19.2843C19.9531 20.0251 20.5449 20.6313 21.2683 20.6313C21.991 20.6313 22.5828 20.0251 22.5828 19.2843H21.2683Z" fill="#F0CCA6"/>
<path fill-rule="evenodd" clip-rule="evenodd" d="M21.2679 19.2843H22.5607C22.5607 18.5661 21.9687 17.96 21.2679 17.96C20.5444 17.96 19.9746 18.5661 19.9746 19.2843C19.9746 20.0251 20.5444 20.6089 21.2679 20.6089C21.9687 20.6089 22.5607 20.0251 22.5607 19.2843H21.2679Z" fill="#F0CCA8"/>
<path fill-rule="evenodd" clip-rule="evenodd" d="M21.2694 19.2843H22.5403C22.5403 18.5662 21.9702 18.0049 21.2694 18.0049C20.5681 18.0049 19.998 18.5662 19.998 19.2843C19.9983 19.6297 20.1323 19.9608 20.3707 20.2049C20.6091 20.4491 20.9323 20.5863 21.2694 20.5865C21.6064 20.5862 21.9295 20.4489 22.1678 20.2048C22.4061 19.9606 22.5401 19.6296 22.5403 19.2843H21.2694Z" fill="#F1CEAA"/>
<path fill-rule="evenodd" clip-rule="evenodd" d="M21.2685 19.2844H22.4954C22.4957 19.1192 22.4642 18.9556 22.4026 18.803C22.3411 18.6504 22.2507 18.5117 22.1368 18.3949C22.0228 18.2781 21.8874 18.1855 21.7384 18.1225C21.5894 18.0594 21.4297 18.0271 21.2685 18.0273C20.5889 18.0273 20.041 18.5884 20.041 19.2844C20.041 19.9803 20.5889 20.564 21.2685 20.564C21.9477 20.564 22.4954 19.9803 22.4954 19.2844H21.2685Z" fill="#F1CEAA"/>
<path fill-rule="evenodd" clip-rule="evenodd" d="M21.2679 19.2846H22.4731C22.4731 18.6113 21.9252 18.0498 21.2679 18.0498C20.6102 18.0498 20.0625 18.6111 20.0625 19.2846C20.062 19.4469 20.0929 19.6077 20.1533 19.7577C20.2137 19.9077 20.3025 20.0441 20.4145 20.1588C20.5265 20.2736 20.6596 20.3645 20.8061 20.4264C20.9525 20.4883 21.1095 20.5199 21.2679 20.5194C21.4263 20.5199 21.5833 20.4882 21.7297 20.4263C21.8761 20.3644 22.0092 20.2735 22.1212 20.1587C22.2332 20.044 22.3219 19.9077 22.3823 19.7577C22.4427 19.6076 22.4736 19.4469 22.4731 19.2846H21.2679Z" fill="#F1D0AD"/>
<path fill-rule="evenodd" clip-rule="evenodd" d="M21.2694 19.2844H22.4525C22.4525 18.6333 21.9265 18.0723 21.2694 18.0723C20.6118 18.0723 20.0859 18.6333 20.0859 19.2844C20.0853 19.4438 20.1154 19.6018 20.1747 19.7492C20.2339 19.8966 20.321 20.0305 20.4311 20.1432C20.5411 20.2559 20.6718 20.3452 20.8157 20.4059C20.9596 20.4666 21.1138 20.4974 21.2694 20.4968C21.425 20.4974 21.5792 20.4665 21.723 20.4058C21.8668 20.345 21.9975 20.2558 22.1075 20.1431C22.2175 20.0303 22.3046 19.8964 22.3638 19.7491C22.423 19.6017 22.4532 19.4438 22.4525 19.2844H21.2694Z" fill="#F1D0AE"/>
<path fill-rule="evenodd" clip-rule="evenodd" d="M21.269 19.2844H22.4302C22.4302 18.6334 21.9041 18.1172 21.269 18.1172C20.6334 18.1172 20.1074 18.6334 20.1074 19.2844C20.1074 19.9355 20.6334 20.4741 21.269 20.4741C21.9041 20.4741 22.4302 19.9353 22.4302 19.2844H21.269Z" fill="#F2D2B1"/>
<path fill-rule="evenodd" clip-rule="evenodd" d="M21.2682 19.2845H22.3857C22.3857 18.6561 21.8814 18.1396 21.2682 18.1396C20.6545 18.1396 20.1504 18.6561 20.1504 19.2845C20.1504 19.9355 20.6547 20.4517 21.2682 20.4517C21.8814 20.4517 22.3857 19.9353 22.3857 19.2845H21.2682Z" fill="#F2D2B3"/>
<path fill-rule="evenodd" clip-rule="evenodd" d="M21.2677 19.2845H22.3631C22.3631 18.6783 21.8807 18.1621 21.2677 18.1621C20.6541 18.1621 20.1719 18.6783 20.1719 19.2845C20.1719 19.9131 20.6543 20.4068 21.2677 20.4068C21.8809 20.4068 22.3631 19.9129 22.3631 19.2845H21.2677Z" fill="#F3D4B4"/>
<path fill-rule="evenodd" clip-rule="evenodd" d="M21.2693 19.2845H22.3428C22.3424 18.9929 22.2292 18.7134 22.0279 18.5073C21.8267 18.3011 21.5539 18.185 21.2693 18.1846C20.6773 18.1846 20.1953 18.6785 20.1953 19.2845C20.1953 19.8904 20.6773 20.3844 21.2693 20.3844C21.5539 20.3839 21.8266 20.2678 22.0279 20.0617C22.2291 19.8555 22.3423 19.576 22.3428 19.2845H21.2693Z" fill="#F3D4B5"/>
<path fill-rule="evenodd" clip-rule="evenodd" d="M21.2688 19.2845H22.3202C22.3202 18.701 21.8382 18.2295 21.2688 18.2295C20.6988 18.2295 20.2168 18.701 20.2168 19.2845C20.2168 19.8907 20.699 20.362 21.2688 20.362C21.8385 20.362 22.3202 19.8905 22.3202 19.2845H21.2688Z" fill="#F3D4B7"/>
<path fill-rule="evenodd" clip-rule="evenodd" d="M21.268 19.2846H22.2758C22.2761 19.1489 22.2503 19.0144 22.1998 18.889C22.1493 18.7636 22.0751 18.6496 21.9814 18.5536C21.8878 18.4577 21.7765 18.3816 21.6541 18.3299C21.5317 18.2781 21.4004 18.2516 21.268 18.252C21.1355 18.2516 21.0042 18.278 20.8817 18.3297C20.7593 18.3815 20.648 18.4575 20.5543 18.5535C20.4606 18.6494 20.3863 18.7634 20.3358 18.8889C20.2852 19.0144 20.2594 19.1488 20.2598 19.2846C20.2598 19.8683 20.6982 20.3396 21.268 20.3396C21.8376 20.3396 22.2758 19.8681 22.2758 19.2846H21.268Z" fill="#F3D6B8"/>
<path fill-rule="evenodd" clip-rule="evenodd" d="M21.2676 19.2846H22.2534C22.254 19.1518 22.2288 19.0202 22.1795 18.8974C22.1301 18.7746 22.0575 18.6631 21.9659 18.5691C21.8742 18.4752 21.7653 18.4008 21.6455 18.3503C21.5256 18.2997 21.3972 18.2739 21.2676 18.2744C20.7196 18.2744 20.2812 18.7235 20.2812 19.2846C20.2812 19.8456 20.7196 20.2947 21.2676 20.2947C21.3972 20.2952 21.5256 20.2695 21.6455 20.2189C21.7653 20.1683 21.8742 20.0939 21.9659 20C22.0575 19.9061 22.1301 19.7945 22.1795 19.6717C22.2288 19.5489 22.254 19.4174 22.2534 19.2846H21.2676Z" fill="#F4D8BA"/>
<path fill-rule="evenodd" clip-rule="evenodd" d="M21.2691 19.2846H22.2333C22.2333 18.7457 21.7949 18.2969 21.2691 18.2969C20.7433 18.2969 20.3047 18.7459 20.3047 19.2846C20.3047 19.8459 20.7433 20.2723 21.2691 20.2723C21.7949 20.2723 22.2333 19.8456 22.2333 19.2846H21.2691Z" fill="#F4D9BC"/>
<path fill-rule="evenodd" clip-rule="evenodd" d="M21.2687 19.2846H22.2109C22.2109 18.7682 21.7947 18.3418 21.2687 18.3418C20.7426 18.3418 20.3262 18.7682 20.3262 19.2846C20.3262 19.8235 20.7426 20.2499 21.2687 20.2499C21.7947 20.2499 22.2109 19.8232 22.2109 19.2846H21.2687Z" fill="#F4D9BE"/>
<path fill-rule="evenodd" clip-rule="evenodd" d="M21.2678 19.2846H22.1661C22.1661 18.7682 21.7717 18.3643 21.2678 18.3643C20.7635 18.3643 20.3691 18.7682 20.3691 19.2846C20.3691 19.801 20.7635 20.2275 21.2678 20.2275C21.7717 20.2275 22.1661 19.8008 22.1661 19.2846H21.2678Z" fill="#F4DBBF"/>
<path fill-rule="evenodd" clip-rule="evenodd" d="M21.2693 19.2847H22.1459C22.1452 19.0467 22.0527 18.8187 21.8884 18.6505C21.7242 18.4822 21.5016 18.3874 21.2693 18.3867C20.7869 18.3867 20.3926 18.7907 20.3926 19.2847C20.3926 19.7786 20.7869 20.1826 21.2693 20.1826C21.5016 20.1819 21.7242 20.0871 21.8884 19.9188C22.0527 19.7506 22.1452 19.5226 22.1459 19.2847H21.2693Z" fill="#F4DBC0"/>
<path fill-rule="evenodd" clip-rule="evenodd" d="M21.2689 19.2847H22.1236C22.1236 18.8132 21.729 18.4092 21.2689 18.4092C20.8086 18.4092 20.4141 18.8132 20.4141 19.2847C20.4141 19.7786 20.8086 20.1602 21.2689 20.1602C21.7288 20.1602 22.1236 19.7786 22.1236 19.2847H21.2689Z" fill="#F5DDC3"/>
<path fill-rule="evenodd" clip-rule="evenodd" d="M21.2685 19.2847H22.101C22.101 18.8356 21.7284 18.4541 21.2685 18.4541C20.8082 18.4541 20.4355 18.8356 20.4355 19.2847C20.4355 19.5109 20.5233 19.7279 20.6794 19.8879C20.8356 20.0479 21.0474 20.1377 21.2683 20.1377C21.4891 20.1377 21.7009 20.0479 21.8571 19.8879C22.0133 19.7279 22.101 19.5109 22.101 19.2847H21.2685Z" fill="#F5DDC3"/>
<path fill-rule="evenodd" clip-rule="evenodd" d="M21.2676 19.2845H22.0561C22.0561 18.8354 21.706 18.4766 21.2676 18.4766C20.8293 18.4766 20.4785 18.8356 20.4785 19.2845C20.4785 19.7334 20.8293 20.1151 21.2676 20.1151C21.706 20.1151 22.0561 19.7336 22.0561 19.2845H21.2676Z" fill="#F6DFC6"/>
<path fill-rule="evenodd" clip-rule="evenodd" d="M21.2692 19.2845H22.036C22.036 18.8579 21.6854 18.499 21.2692 18.499C20.8525 18.499 20.502 18.8581 20.502 19.2845C20.502 19.7336 20.8525 20.0702 21.2692 20.0702C21.6854 20.0702 22.036 19.7336 22.036 19.2845H21.2692Z" fill="#F6DFC7"/>
<path fill-rule="evenodd" clip-rule="evenodd" d="M21.2688 19.2845H22.0137C22.0137 18.8806 21.685 18.5215 21.2688 18.5215C20.8521 18.5215 20.5235 18.8806 20.5235 19.2845C20.5226 19.385 20.5414 19.4847 20.5785 19.5777C20.6157 19.6707 20.6706 19.7552 20.7399 19.8262C20.8093 19.8973 20.8918 19.9534 20.9826 19.9915C21.0734 20.0295 21.1707 20.0487 21.2688 20.0478C21.3668 20.0486 21.4641 20.0294 21.5548 19.9914C21.6456 19.9533 21.728 19.8971 21.7973 19.8261C21.8667 19.755 21.9215 19.6705 21.9586 19.5776C21.9958 19.4846 22.0145 19.385 22.0137 19.2845H21.2688Z" fill="#F6E1CA"/>
<path fill-rule="evenodd" clip-rule="evenodd" d="M21.2683 19.2846H21.9911C21.9911 18.8806 21.6625 18.5664 21.2683 18.5664C20.8738 18.5664 20.5449 18.8806 20.5449 19.2846C20.5449 19.6888 20.8735 20.0254 21.2683 20.0254C21.6627 20.0254 21.9911 19.6888 21.9911 19.2846H21.2683Z" fill="#F6E1CC"/>
<path fill-rule="evenodd" clip-rule="evenodd" d="M21.2694 19.2848H21.9486C21.9477 19.1006 21.8759 18.9241 21.7487 18.7938C21.6215 18.6635 21.4493 18.5898 21.2694 18.5889C21.0895 18.5897 20.9172 18.6633 20.7899 18.7936C20.6626 18.924 20.5907 19.1005 20.5898 19.2848C20.5898 19.689 20.8968 20.0032 21.2694 20.0032C21.6417 20.0032 21.9486 19.689 21.9486 19.2848H21.2694Z" fill="#F7E3CD"/>
<path fill-rule="evenodd" clip-rule="evenodd" d="M21.269 19.2846H21.9263C21.9263 18.9255 21.6412 18.6113 21.269 18.6113C20.8963 18.6113 20.6113 18.9255 20.6113 19.2846C20.6113 19.6661 20.8963 19.9581 21.269 19.9581C21.6412 19.9581 21.9263 19.6661 21.9263 19.2846H21.269Z" fill="#F7E3CF"/>
<path fill-rule="evenodd" clip-rule="evenodd" d="M21.2678 19.2844H21.9029C21.9028 19.1118 21.8358 18.9463 21.7168 18.8243C21.5977 18.7022 21.4362 18.6335 21.2678 18.6333C21.102 18.6377 20.9446 18.7082 20.8289 18.8298C20.7132 18.9515 20.6484 19.1145 20.6484 19.2844C20.6484 19.4542 20.7132 19.6173 20.8289 19.7389C20.9446 19.8605 21.102 19.931 21.2678 19.9354C21.4362 19.9352 21.5977 19.8666 21.7168 19.7445C21.8359 19.6224 21.9028 19.4569 21.9029 19.2844H21.2678Z" fill="#F7E3D0"/>
<path fill-rule="evenodd" clip-rule="evenodd" d="M21.268 19.2844H21.8812C21.8812 18.9478 21.5966 18.6782 21.268 18.6782C20.9389 18.6782 20.6543 18.9478 20.6543 19.2844C20.6541 19.367 20.6699 19.4488 20.7007 19.5252C20.7314 19.6015 20.7766 19.6709 20.8337 19.7293C20.8907 19.7877 20.9584 19.834 21.0329 19.8655C21.1074 19.897 21.1873 19.9132 21.268 19.913C21.3486 19.9132 21.4284 19.897 21.5029 19.8654C21.5774 19.8339 21.6451 19.7876 21.702 19.7292C21.759 19.6708 21.8042 19.6014 21.8349 19.5251C21.8657 19.4488 21.8814 19.367 21.8812 19.2844H21.268Z" fill="#F8E5D1"/>
<path fill-rule="evenodd" clip-rule="evenodd" d="M21.2693 19.2847H21.8389C21.8389 18.9705 21.5979 18.7012 21.2693 18.7012C21.1943 18.7006 21.12 18.7153 21.0506 18.7444C20.9812 18.7735 20.9181 18.8165 20.8651 18.8708C20.812 18.9251 20.7701 18.9896 20.7416 19.0607C20.7131 19.1317 20.6987 19.2079 20.6992 19.2847C20.6992 19.6213 20.9402 19.8909 21.2693 19.8909C21.5979 19.8909 21.8389 19.6216 21.8389 19.2847H21.2693Z" fill="#F8E8D4"/>
<path fill-rule="evenodd" clip-rule="evenodd" d="M21.2687 19.2845H21.8162C21.8169 19.2106 21.8032 19.1373 21.776 19.0689C21.7488 19.0005 21.7085 18.9383 21.6575 18.886C21.6065 18.8338 21.5458 18.7924 21.4791 18.7645C21.4123 18.7365 21.3408 18.7225 21.2687 18.7232C21.1965 18.7224 21.1249 18.7365 21.0581 18.7644C20.9913 18.7924 20.9307 18.8337 20.8796 18.8859C20.8286 18.9382 20.7883 19.0004 20.761 19.0688C20.7337 19.1372 20.72 19.2106 20.7207 19.2845C20.72 19.3584 20.7337 19.4317 20.7609 19.5002C20.7882 19.5686 20.8285 19.6308 20.8796 19.683C20.9306 19.7353 20.9913 19.7766 21.0581 19.8046C21.1249 19.8325 21.1965 19.8465 21.2687 19.8458C21.3408 19.8465 21.4123 19.8324 21.4791 19.8044C21.5458 19.7765 21.6065 19.7352 21.6575 19.6829C21.7085 19.6306 21.7488 19.5685 21.776 19.5001C21.8032 19.4316 21.8169 19.3583 21.8162 19.2845H21.2687Z" fill="#F8E8D6"/>
<path fill-rule="evenodd" clip-rule="evenodd" d="M21.2682 19.2845H21.7942C21.7942 18.9927 21.5528 18.7681 21.2682 18.7681C20.9832 18.7681 20.7422 18.9925 20.7422 19.2845C20.7422 19.5764 20.9832 19.8233 21.2682 19.8233C21.5528 19.8233 21.7942 19.5764 21.7942 19.2845H21.2682Z" fill="#F8E8D8"/>
<path fill-rule="evenodd" clip-rule="evenodd" d="M21.268 19.2845H21.7719C21.7719 19.0152 21.5305 18.7905 21.268 18.7905C21.0047 18.7905 20.7637 19.0152 20.7637 19.2845C20.7637 19.5762 21.0047 19.8009 21.268 19.8009C21.5305 19.8009 21.7719 19.5765 21.7719 19.2845H21.268Z" fill="#F9EAD9"/>
<path fill-rule="evenodd" clip-rule="evenodd" d="M21.2689 19.2845H21.7288C21.7288 19.0376 21.5314 18.813 21.2689 18.813C21.0056 18.813 20.8086 19.0374 20.8086 19.2845C20.8086 19.554 21.0056 19.7785 21.2689 19.7785C21.5314 19.7785 21.7288 19.554 21.7288 19.2845H21.2689Z" fill="#FAECDC"/>
<path fill-rule="evenodd" clip-rule="evenodd" d="M21.2685 19.2845H21.7068C21.7064 19.1655 21.6601 19.0516 21.578 18.9674C21.4959 18.8833 21.3846 18.8359 21.2685 18.8354C21.027 18.8354 20.8301 19.0374 20.8301 19.2845C20.8301 19.5316 21.027 19.7336 21.2685 19.7336C21.3846 19.7333 21.4959 19.6858 21.5781 19.6017C21.6602 19.5175 21.7065 19.4035 21.7068 19.2845H21.2685Z" fill="#FAECDD"/>
<path fill-rule="evenodd" clip-rule="evenodd" d="M21.2683 19.2848H21.6845C21.6845 19.0604 21.4871 18.8809 21.2683 18.8809C21.049 18.8809 20.8516 19.0604 20.8516 19.2848C20.8516 19.5317 21.049 19.7115 21.2683 19.7115C21.3229 19.7115 21.3771 19.7004 21.4276 19.679C21.4781 19.6575 21.524 19.6261 21.5627 19.5865C21.6013 19.5469 21.632 19.4998 21.6529 19.4481C21.6738 19.3963 21.6845 19.3408 21.6845 19.2848H21.2683Z" fill="#FAECDF"/>
<path fill-rule="evenodd" clip-rule="evenodd" d="M21.2676 19.2844H21.662C21.662 19.0824 21.4867 18.9028 21.2676 18.9028C21.0483 18.9028 20.873 19.0824 20.873 19.2844C20.873 19.509 21.0483 19.6886 21.2676 19.6886C21.3195 19.6888 21.3709 19.6784 21.4188 19.6582C21.4668 19.6379 21.5103 19.6082 21.547 19.5706C21.5836 19.533 21.6127 19.4884 21.6324 19.4393C21.6521 19.3901 21.6622 19.3375 21.662 19.2844H21.2676Z" fill="#FAEEE0"/>
<path fill-rule="evenodd" clip-rule="evenodd" d="M21.2689 19.2844H21.6195C21.6195 19.0824 21.4657 18.9253 21.2689 18.9253C21.0715 18.9253 20.918 19.0824 20.918 19.2844C20.918 19.4864 21.0718 19.6659 21.2689 19.6659C21.4659 19.6659 21.6195 19.4864 21.6195 19.2844H21.2689Z" fill="#FBF0E3"/>
<path fill-rule="evenodd" clip-rule="evenodd" d="M21.2685 19.2844H21.5971C21.5971 19.1049 21.4434 18.9478 21.2685 18.9478C21.0932 18.9478 20.9395 19.1049 20.9395 19.2844C20.9395 19.4864 21.0932 19.621 21.2685 19.621C21.4434 19.621 21.5971 19.4864 21.5971 19.2844H21.2685Z" fill="#FBF1E5"/>
<path fill-rule="evenodd" clip-rule="evenodd" d="M21.2679 19.2844H21.5744C21.5744 19.1273 21.4427 18.9927 21.2679 18.9927C21.0926 18.9927 20.9609 19.1273 20.9609 19.2844C20.9609 19.4642 21.0926 19.5988 21.2679 19.5988C21.4427 19.5988 21.5744 19.4642 21.5744 19.2844H21.2679Z" fill="#FBF1E7"/>
<path fill-rule="evenodd" clip-rule="evenodd" d="M21.2694 19.2845H21.554C21.554 19.1274 21.4227 19.0151 21.2694 19.0151C21.1156 19.0151 20.9844 19.1274 20.9844 19.2845C20.9844 19.4418 21.1156 19.5762 21.2694 19.5762C21.4227 19.5762 21.554 19.4416 21.554 19.2845H21.2694Z" fill="#FCF3E8"/>
<path fill-rule="evenodd" clip-rule="evenodd" d="M21.2688 19.2845H21.5098C21.5098 19.1498 21.4 19.0376 21.2688 19.0376C21.1371 19.0376 21.0273 19.15 21.0273 19.2845C21.0273 19.4418 21.1371 19.554 21.2688 19.554C21.4 19.554 21.5098 19.4418 21.5098 19.2845H21.2688Z" fill="#FCF3EA"/>
<path fill-rule="evenodd" clip-rule="evenodd" d="M21.2681 19.2845H21.487C21.487 19.1723 21.3994 19.0601 21.2681 19.0601C21.1365 19.0601 21.0488 19.1723 21.0488 19.2845C21.0488 19.4194 21.1365 19.5091 21.2681 19.5091C21.3994 19.5091 21.487 19.4194 21.487 19.2845H21.2681Z" fill="#FCF5ED"/>
<path fill-rule="evenodd" clip-rule="evenodd" d="M21.2677 19.2845H21.4647C21.4647 19.1723 21.377 19.105 21.2677 19.105C21.1579 19.105 21.0703 19.1723 21.0703 19.2845C21.0703 19.3967 21.1579 19.4865 21.2677 19.4865C21.2936 19.4866 21.3193 19.4814 21.3432 19.4713C21.3672 19.4612 21.3889 19.4463 21.4072 19.4275C21.4255 19.4087 21.44 19.3864 21.4499 19.3619C21.4598 19.3374 21.4648 19.3111 21.4647 19.2845H21.2677Z" fill="#FCF5EF"/>
<path fill-rule="evenodd" clip-rule="evenodd" d="M21.269 19.2845H21.4439C21.4439 19.1948 21.3562 19.1274 21.269 19.1274C21.1814 19.1274 21.0938 19.195 21.0938 19.2845C21.0938 19.3743 21.1814 19.4643 21.269 19.4643C21.3562 19.4643 21.4439 19.3743 21.4439 19.2845H21.269Z" fill="#FDF8F1"/>
<path fill-rule="evenodd" clip-rule="evenodd" d="M21.2684 19.2846H21.3996C21.3996 19.2172 21.3339 19.1499 21.2684 19.1499C21.2022 19.1499 21.1367 19.2172 21.1367 19.2846C21.1367 19.3743 21.2024 19.4419 21.2684 19.4419C21.3341 19.4419 21.3996 19.3743 21.3996 19.2846H21.2684Z" fill="#FDF8F3"/>
<path fill-rule="evenodd" clip-rule="evenodd" d="M21.2679 19.2846H21.3773C21.3773 19.2397 21.3337 19.1724 21.2679 19.1724C21.2018 19.1724 21.1582 19.2397 21.1582 19.2846C21.1582 19.3519 21.2018 19.3968 21.2679 19.3968C21.3337 19.3968 21.3773 19.3519 21.3773 19.2846H21.2679Z" fill="#FDF8F5"/>
<path fill-rule="evenodd" clip-rule="evenodd" d="M21.2693 19.2841H21.3565C21.3565 19.2392 21.3129 19.2168 21.2693 19.2168C21.2252 19.2168 21.1816 19.2392 21.1816 19.2841C21.1816 19.329 21.2252 19.3739 21.2693 19.3739C21.3129 19.3739 21.3565 19.329 21.3565 19.2841H21.2693Z" fill="#FEFBF6"/>
<path fill-rule="evenodd" clip-rule="evenodd" d="M21.2693 19.2841H21.3129C21.3129 19.2617 21.2908 19.2393 21.2693 19.2393C21.2472 19.2393 21.2031 19.2617 21.2031 19.2841C21.2031 19.329 21.2472 19.3515 21.2693 19.3515C21.291 19.3515 21.3129 19.329 21.3129 19.2841H21.2693Z" fill="#FFFFFB"/>
<path fill-rule="evenodd" clip-rule="evenodd" d="M21.2682 19.2842H21.2899C21.2899 19.2842 21.2899 19.2617 21.2682 19.2617C21.2461 19.2617 21.2461 19.2842 21.2461 19.2842C21.2461 19.3066 21.2461 19.3291 21.2682 19.3291C21.2899 19.3291 21.2899 19.3066 21.2899 19.2842H21.2682Z" fill="white"/>
<path fill-rule="evenodd" clip-rule="evenodd" d="M26.9878 20.3172L25.4319 16.2764H24.1607L26.6592 22.4497H27.2728L29.8148 16.2764H28.5656L26.9878 20.3172ZM30.3409 22.2928H33.5842V21.2824H31.4803V19.6661H33.4963V18.6335H31.4803V17.309H33.5842V16.2764H30.3409V22.2928ZM38.1203 18.0498C38.1203 16.9274 37.375 16.2764 36.0386 16.2764H34.351V22.2926H35.4904V19.8905H35.6438L37.2216 22.2926H38.6242L36.7835 19.7557C37.6379 19.5763 38.1203 18.9702 38.1203 18.0498ZM35.819 19.0602H35.4904V17.2194H35.841C36.5642 17.2194 36.9364 17.5336 36.9364 18.1173C36.9366 18.7233 36.5644 19.0602 35.819 19.0602ZM2.06949 24.0593V24.5983H2.7193V24.8164H2.06949V25.7556H1.83594V23.8409H2.74057V24.0593H2.06949ZM3.80728 23.8409H4.04104V25.7556H3.80728V23.8409ZM5.16944 23.749L6.57116 25.2557V23.8409H6.80471V25.8344L5.4015 24.3286V25.7556H5.16944V23.749ZM8.96557 25.0576H8.2998L8.63247 24.2824L8.96557 25.0576ZM9.06129 25.276L9.27442 25.7556H9.52583L8.63269 23.7597L7.73997 25.7556H7.99032L8.20409 25.276H9.06129ZM10.4607 23.749L11.8639 25.2557V23.8409H12.0976V25.8344L10.6927 24.3286V25.7556H10.4607V23.749ZM14.5905 24.207C14.4576 24.0845 14.2734 24.0189 14.0971 24.0189C13.6791 24.0189 13.3592 24.3769 13.3592 24.8012C13.3592 25.2202 13.6759 25.578 14.0928 25.578C14.2766 25.578 14.4518 25.5074 14.5903 25.3799V25.6623C14.4407 25.7491 14.2718 25.7953 14.0998 25.7963C13.5657 25.7963 13.125 25.3623 13.125 24.8084C13.125 24.2419 13.5687 23.7995 14.1202 23.7995C14.2842 23.7995 14.4499 23.8409 14.5901 23.9296V24.207H14.5905ZM15.6632 23.8409H15.8955V25.7556H15.6632V23.8409ZM18.0729 25.0576H17.4074L17.7417 24.2824L18.0729 25.0576ZM18.1689 25.276L18.3826 25.7556H18.633L17.7417 23.7597L16.8486 25.7556H17.0983L17.3114 25.276H18.1689ZM19.8233 25.5383H20.3914V25.7556H19.591V23.8409H19.8233V25.5383ZM23.6938 24.2044C23.6262 24.0843 23.5364 24.0235 23.3939 24.0235C23.2448 24.0235 23.0806 24.1275 23.0806 24.2957C23.0806 24.4449 23.2265 24.5242 23.3422 24.5698L23.4752 24.6236C23.7415 24.7297 23.9397 24.8801 23.9397 25.1997C23.9397 25.5481 23.6764 25.7963 23.3422 25.7963C23.0394 25.7963 22.8039 25.5682 22.7652 25.2607L23.0002 25.2104C22.9972 25.4206 23.161 25.5732 23.3608 25.5732C23.5622 25.5732 23.7055 25.401 23.7055 25.1997C23.7055 24.9945 23.5447 24.9051 23.3839 24.836L23.2555 24.7809C23.0415 24.6868 22.8483 24.5626 22.8483 24.2957C22.8483 23.9854 23.1159 23.7995 23.3993 23.7995C23.6066 23.7995 23.7781 23.9043 23.8791 24.0893L23.6938 24.2044ZM24.995 23.8409H25.9998V24.0593H25.2287V24.5959H25.9787V24.814H25.2287V25.5383H25.9998V25.7556H24.995V23.8409ZM27.323 24.0542H27.3828C27.6155 24.0542 27.8924 24.0974 27.8924 24.3976C27.8924 24.702 27.6331 24.7474 27.3955 24.7474H27.3228V24.0542H27.323ZM27.6621 24.9232C27.9322 24.8896 28.1106 24.6617 28.1106 24.387C28.1106 24.2044 28.0209 24.0235 27.8643 23.9294C27.7161 23.8433 27.5374 23.8409 27.3721 23.8409H27.0897V25.7556H27.3232V24.9465H27.4191L27.9696 25.7556H28.2517L27.6621 24.9232ZM29.8531 25.2581L30.4085 23.8409H30.6644L29.8531 25.8582L29.0404 23.8409H29.2958L29.8531 25.2581ZM31.6162 23.8409H31.8496V25.7556H31.6162V23.8409ZM34.3631 24.207C34.2284 24.0845 34.044 24.0189 33.8671 24.0189C33.4495 24.0189 33.1296 24.3769 33.1296 24.8012C33.1296 25.2202 33.4461 25.578 33.8628 25.578C34.0468 25.578 34.2238 25.5074 34.3631 25.3799V25.6623C34.2129 25.749 34.0437 25.7951 33.8713 25.7963C33.3387 25.7963 32.8959 25.3623 32.8959 24.8084C32.8959 24.2419 33.3417 23.7995 33.8909 23.7995C34.0549 23.7995 34.2208 23.8409 34.3633 23.9296V24.207H34.3631ZM35.4398 23.8409H36.4444V24.0593H35.6738V24.5959H36.4223V24.814H35.6738V25.5383H36.4444V25.7556H35.4398V23.8409ZM38.3628 24.2044C38.2947 24.0843 38.2054 24.0235 38.0641 24.0235C37.9159 24.0235 37.7517 24.1275 37.7517 24.2957C37.7517 24.4449 37.8963 24.5242 38.0118 24.5698L38.1469 24.6236C38.4111 24.7297 38.6093 24.8801 38.6093 25.1997C38.6093 25.5481 38.3464 25.7963 38.0118 25.7963C37.7102 25.7963 37.473 25.5682 37.4352 25.2607L37.6696 25.2104C37.6666 25.4206 37.8317 25.5732 38.0318 25.5732C38.2328 25.5732 38.377 25.401 38.377 25.1997C38.377 24.9945 38.2145 24.9051 38.0541 24.836L37.9255 24.7809C37.7115 24.6868 37.5183 24.5626 37.5183 24.2957C37.5183 23.9854 37.7864 23.7995 38.0692 23.7995C38.2766 23.7995 38.4485 23.9043 38.5508 24.0893L38.3628 24.2044ZM38.7899 16.81C38.7899 16.8562 38.759 16.8806 38.6965 16.8806H38.6752V16.7427H38.698C38.7601 16.7429 38.7899 16.7647 38.7899 16.81ZM38.9732 17.1745L38.8029 16.9553C38.8756 16.9361 38.9175 16.8817 38.9175 16.8067C38.9175 16.703 38.8465 16.6444 38.7201 16.6444H38.5553V17.1745H38.6774V16.9693L38.8224 17.1745H38.9732ZM39.1908 16.9085C39.1908 16.6553 38.9898 16.4465 38.7459 16.4465C38.6865 16.4461 38.6276 16.4578 38.5727 16.4809C38.5177 16.5039 38.4678 16.5379 38.4257 16.5809C38.3837 16.6238 38.3504 16.6749 38.3278 16.7311C38.3051 16.7874 38.2936 16.8476 38.2939 16.9085C38.2939 17.1658 38.4957 17.3711 38.7459 17.3711C38.9898 17.3708 39.1908 17.1623 39.1908 16.9085ZM39.0998 16.9098C39.0998 17.1177 38.9403 17.288 38.7437 17.288C38.5459 17.288 38.3832 17.1185 38.3832 16.9098C38.3832 16.6986 38.5444 16.5309 38.7437 16.5309C38.9403 16.5309 39.0998 16.7013 39.0998 16.9098Z" fill="white"/>
</svg>
