<svg width="101" height="101" viewBox="0 0 101 101" fill="none" xmlns="http://www.w3.org/2000/svg">
<path d="M95.7924 72.8124C83.3924 97.8124 53.1925 108.012 28.1925 95.7124C3.19246 83.4124 -7.10755 53.1125 5.19245 28.1125C17.5925 3.11245 47.7924 -7.08757 72.7924 5.21243C97.7924 17.5124 108.092 47.8124 95.7924 72.8124Z" fill="url(#paint0_radial_198_81)"/>
<path d="M75.393 61.8124C68.193 70.6791 55.8263 75.1457 38.293 75.2124C27.6263 61.2124 23.6596 48.6791 26.393 37.6124C27.893 31.3124 36.193 22.2124 46.693 27.3124C53.9596 30.9124 56.593 35.8457 54.593 42.1124C58.393 36.7124 63.9263 35.8124 71.193 39.4124C81.693 44.6124 79.493 56.7124 75.393 61.8124Z" fill="url(#paint1_radial_198_81)"/>
<path style="mix-blend-mode:overlay" opacity="0.5" d="M56.793 51.6125C52.293 35.1125 57.693 18.7124 68.893 15.0124C79.993 11.3124 92.693 21.8124 97.193 38.3124C101.693 54.9124 96.293 71.3124 85.193 75.0124C73.993 78.6124 61.293 68.2125 56.793 51.6125Z" fill="url(#paint2_radial_198_81)"/>
<path style="mix-blend-mode:overlay" opacity="0.4" d="M24.3919 65.7125C27.1919 77.4125 24.8919 85.9125 19.3919 84.6125C13.7919 83.3125 6.99185 72.8125 4.29184 61.0125C1.49185 49.3125 3.69184 40.8125 9.29184 42.1125C14.8918 43.4125 21.5919 53.9125 24.3919 65.7125Z" fill="url(#paint3_radial_198_81)"/>
<path style="mix-blend-mode:overlay" opacity="0.4" d="M92.692 45.9125C87.192 50.9125 75.392 46.8124 66.392 36.8124C57.392 26.8124 54.592 14.7124 60.192 9.71244C65.692 4.71244 77.492 8.81245 86.492 18.8124C95.492 28.8125 98.192 40.9125 92.692 45.9125Z" fill="url(#paint4_linear_198_81)"/>
<path style="mix-blend-mode:overlay" opacity="0.4" d="M9.59165 61.5125C13.5916 58.2125 21.7917 61.4125 27.6917 68.7125C33.6917 76.1125 35.1917 84.7125 31.1917 88.0125C27.0917 91.3125 18.9916 88.1125 12.9916 80.7125C6.99164 73.4125 5.49165 64.8125 9.59165 61.5125Z" fill="url(#paint5_linear_198_81)"/>
<defs>
<radialGradient id="paint0_radial_198_81" cx="0" cy="0" r="1" gradientUnits="userSpaceOnUse" gradientTransform="translate(75.8924 28.2124) scale(82.1)">
<stop offset="0.2" stop-color="#FF4651"/>
<stop offset="1" stop-color="#8D1C16"/>
</radialGradient>
<radialGradient id="paint1_radial_198_81" cx="0" cy="0" r="1" gradientUnits="userSpaceOnUse" gradientTransform="translate(76.093 36.4124) scale(66.5)">
<stop offset="0.2" stop-color="white"/>
<stop offset="1" stop-color="#FEA6C0"/>
</radialGradient>
<radialGradient id="paint2_radial_198_81" cx="0" cy="0" r="1" gradientUnits="userSpaceOnUse" gradientTransform="translate(76.993 45.0124) scale(18.8)">
<stop stop-color="white"/>
<stop offset="1" stop-color="white" stop-opacity="0"/>
</radialGradient>
<radialGradient id="paint3_radial_198_81" cx="0" cy="0" r="1" gradientUnits="userSpaceOnUse" gradientTransform="translate(14.2918 63.4125) scale(20.7)">
<stop stop-color="white"/>
<stop offset="1" stop-color="white" stop-opacity="0"/>
</radialGradient>
<linearGradient id="paint4_linear_198_81" x1="76.192" y1="59.3125" x2="55.292" y2="22.6125" gradientUnits="userSpaceOnUse">
<stop stop-color="white"/>
<stop offset="1" stop-color="white" stop-opacity="0"/>
</linearGradient>
<linearGradient id="paint5_linear_198_81" x1="22.0916" y1="52.3125" x2="35.5916" y2="78.9125" gradientUnits="userSpaceOnUse">
<stop stop-color="white"/>
<stop offset="1" stop-color="white" stop-opacity="0"/>
</linearGradient>
</defs>
</svg>
