<svg width="112" height="112" viewBox="0 0 112 112" fill="none" xmlns="http://www.w3.org/2000/svg">
<path d="M56 112C86.9279 112 112 86.9279 112 56C112 25.0721 86.9279 0 56 0C25.0721 0 0 25.0721 0 56C0 86.9279 25.0721 112 56 112Z" fill="url(#paint0_radial_198_89)"/>
<path d="M63.7008 61.4003C46.7008 76.2003 26.4008 75.1003 14.3008 58.8003C18.6008 48.8003 26.5008 43.9003 38.4008 43.8003C50.2008 44.5003 59.2008 49.9003 65.2008 59.8003C64.8008 60.3003 64.2008 61.0003 63.7008 61.4003Z" fill="url(#paint1_linear_198_89)"/>
<path d="M30.201 17.7002C29.901 18.1002 29.301 19.0002 28.001 19.7002C22.801 22.7002 22.701 22.8002 18.201 26.1002C16.401 27.4002 15.501 26.7002 15.801 25.3002C16.201 22.9002 18.301 21.5002 22.901 18.5002C22.301 18.1002 21.401 17.6002 20.801 17.2002C20.001 16.2002 22.801 13.4002 24.701 12.8002C25.101 12.7002 25.101 12.7002 30.101 15.4002C31.001 16.0002 30.501 17.1002 30.201 17.7002Z" fill="#252C37"/>
<path d="M74.2 17.3003C73.9 18.1003 73.9 18.1003 67.7 19.6003C69.1 20.6003 71.1 22.0003 72.6 23.1003C75.2 25.5003 73.7 28.0003 71.4 28.1003C70.7 28.1003 70 27.9003 69.4 27.5003C69.3 27.4003 69.2 27.3003 69.1 27.3003C65.1 24.3003 64.2 23.6003 59.4 20.4003C57.7 19.2003 57.7 17.5003 59.4 16.4003C60 16.0003 65.4 14.8003 70.2 13.8003C70.7 13.8003 71 13.8003 71.5 13.9003C73.9 14.5003 74.6 16.3003 74.2 17.3003Z" fill="#252C37"/>
<path d="M75.301 44.8001C72.701 52.4001 67.601 57.4001 65.201 59.8001C58.401 49.4001 50.901 44.9001 38.401 43.8001C27.701 44.3001 20.001 46.9001 14.401 58.7001C8.70098 49.7001 7.601 38.6001 12.101 36.7001C18.501 34.5001 27.201 33.3001 37.801 33.4001C49.601 33.5001 62.001 35.3001 73.101 38.1001C77.201 39.4001 76.401 41.8001 75.301 44.8001Z" fill="#252C37"/>
<defs>
<radialGradient id="paint0_radial_198_89" cx="0" cy="0" r="1" gradientUnits="userSpaceOnUse" gradientTransform="translate(78.1 19.2) scale(89.6)">
<stop stop-color="#FFF2C3"/>
<stop offset="0.2" stop-color="#FFD452"/>
<stop offset="0.9" stop-color="#F17224"/>
<stop offset="1" stop-color="#FFA032"/>
</radialGradient>
<linearGradient id="paint1_linear_198_89" x1="58.8008" y1="39.2003" x2="69.2008" y2="62.7003" gradientUnits="userSpaceOnUse">
<stop stop-color="#FF3218"/>
<stop offset="1" stop-color="#AF2437"/>
</linearGradient>
</defs>
</svg>
