<svg width="75" height="82" viewBox="0 0 75 82" fill="none" xmlns="http://www.w3.org/2000/svg">
<path d="M49.442 79.027C47.1086 79.4936 44.8086 79.9936 42.542 80.527C37.742 81.527 32.542 81.327 27.342 79.727C8.94197 73.827 -2.95804 51.927 0.641956 30.727C3.34196 15.527 13.242 4.82695 25.442 2.12695C26.642 1.86029 27.8086 1.62695 28.942 1.42695C30.0753 1.16029 31.242 0.89362 32.442 0.626953C20.142 3.32695 10.242 14.027 7.54198 29.227C3.94198 50.427 15.842 72.327 34.242 78.227C39.442 79.827 44.642 80.027 49.442 79.027Z" fill="url(#paint0_linear_198_129)"/>
<path d="M47.5423 1.42685C65.9423 7.32685 77.9423 29.2269 74.2423 50.4269C70.5423 71.6269 52.6423 84.0269 34.2423 78.2269C15.8423 72.3269 3.94235 50.4269 7.54235 29.2269C11.2423 8.02685 29.1423 -4.37315 47.5423 1.42685Z" fill="url(#paint1_linear_198_129)"/>
<path d="M49.4411 79.0269C48.5745 79.1602 47.7411 79.3269 46.9411 79.5269C42.6411 80.1269 38.2411 79.8269 33.7411 78.4268C15.3411 72.5268 3.34115 50.6269 7.04115 29.4269C9.44115 15.3269 18.2411 5.12686 29.2411 1.52686C18.4411 5.22686 9.94115 15.3269 7.54115 29.2269C3.94115 50.4269 15.8411 72.3269 34.2411 78.2269C39.4411 79.8269 44.6411 80.0269 49.4411 79.0269Z" fill="url(#paint2_linear_198_129)"/>
<path d="M52.2415 59.8269L48.7415 60.5269C48.1415 60.6269 47.2415 60.5269 45.9415 60.1269L36.5415 57.1269C32.8415 55.9269 30.5415 53.5269 30.9415 51.3269L33.0415 38.8269C34.1415 32.7269 40.5415 29.4269 41.2415 25.2269L41.7415 19.8269C41.8415 19.5269 42.0415 18.8269 42.2415 18.6269C42.3415 18.5269 42.6415 18.3269 43.0415 18.2269L46.5415 17.5269C46.1415 17.6269 45.9415 17.7269 45.7415 17.9269C45.5415 18.0269 45.3415 18.8269 45.3415 19.1269L44.8415 24.5269C44.0415 28.6269 37.6415 32.0269 36.5415 38.0269L34.4415 50.6269C34.0415 52.8269 36.3415 55.2269 40.1415 56.4269L50.4415 59.7269C51.7415 60.1269 51.6415 59.9269 52.2415 59.8269Z" fill="#0D4B98"/>
<path d="M53.941 59.6269L50.341 60.3269C49.741 60.5269 48.941 60.3269 47.541 59.9269L37.241 56.6269C33.441 55.4269 31.141 53.0269 31.541 50.8269L33.741 38.3269C34.741 32.2269 41.141 28.9269 41.941 24.7269L42.441 19.3269C42.441 19.0269 42.641 18.3269 42.841 18.1269C43.041 18.0269 43.241 17.8269 43.641 17.8269L47.141 17.0269C46.841 17.1269 46.541 17.2269 46.341 17.4269C46.141 17.5269 45.941 18.3269 45.941 18.6269L45.441 24.0269C44.741 28.2269 38.241 31.5269 37.241 37.5269L35.041 50.1269C34.641 52.3269 36.941 54.7269 40.741 55.9269L51.041 59.2269C52.441 59.6269 53.241 59.7269 53.941 59.6269Z" fill="#DBDBDB"/>
<path d="M48.941 17.1268C49.741 17.4268 50.241 17.8268 50.841 18.4268C52.841 20.4268 52.841 24.1268 52.341 26.8268C52.141 28.2268 49.841 31.6268 49.441 32.9268C49.541 33.0268 52.841 33.0268 56.641 34.2268C56.7077 34.2935 56.7744 34.3268 56.841 34.3268C60.741 35.5268 63.141 37.3268 62.541 40.5268C62.341 41.7268 61.341 42.8268 60.841 43.3268C61.441 44.2268 61.941 45.0268 61.541 47.1268C61.141 49.2268 60.141 49.7268 59.141 50.0268C59.341 50.8268 59.341 51.8268 59.041 52.8268C58.441 54.4268 57.041 55.3268 55.841 55.4268C56.141 56.5268 56.141 57.5268 55.441 58.4268C54.441 59.7268 53.741 60.0268 51.041 59.2268L40.741 55.9268C36.941 54.7268 34.641 52.3268 35.041 50.1268L37.241 37.5268C38.241 31.5268 44.741 28.2268 45.441 24.0268L45.941 18.6268C45.941 18.3268 46.141 17.5268 46.341 17.4268C46.741 17.1268 47.641 16.7268 48.941 17.1268Z" fill="#FBFBFB"/>
<path d="M31.2409 54.6266L27.7409 55.3266C27.3409 55.3933 26.9075 55.3599 26.4409 55.2266L20.9409 53.5266C19.3409 53.0266 18.4409 51.2266 18.7409 49.5266L21.7409 32.1266C21.9409 30.9266 22.7409 30.0266 23.7409 29.8266L27.2409 29.0266C26.2409 29.3266 25.4409 30.1266 25.2409 31.4266L22.2409 48.7266C21.9409 50.5266 22.9409 52.3266 24.4409 52.8266L29.9409 54.5266C30.4075 54.6599 30.8409 54.6933 31.2409 54.6266Z" fill="#0D4B98"/>
<path d="M32.6403 54.4266L29.1403 55.1266C28.7403 55.1933 28.3403 55.1599 27.9403 55.0266L21.5403 53.0266C20.0403 52.5266 19.0403 50.7266 19.3403 49.0266L22.3403 31.6266C22.5403 30.4266 23.3403 29.5266 24.3403 29.3266L27.8403 28.5266C26.8403 28.8266 26.0403 29.6266 25.8403 30.9266L22.8403 48.2266C22.5403 50.0266 23.5403 51.8266 25.0403 52.3266L31.4403 54.3266C31.8403 54.4599 32.2403 54.4933 32.6403 54.4266Z" fill="#117ED1"/>
<path d="M35.5403 30.6267C37.0403 31.1267 38.0403 32.9267 37.7403 34.7267L37.2403 37.5267L35.0403 50.1267L34.7403 52.0267C34.4403 53.8267 32.9403 54.8267 31.4403 54.3267L25.0403 52.3267C23.5403 51.8267 22.5403 50.0267 22.8403 48.2267L25.8403 30.9267C26.1403 29.2267 27.6403 28.1267 29.1403 28.6267L35.5403 30.6267Z" fill="url(#paint3_linear_198_129)"/>
<g style="mix-blend-mode:overlay" opacity="0.4">
<path d="M32.6415 54.4268L31.6415 54.6268C31.4415 54.6268 31.2748 54.5934 31.1415 54.5268L24.7415 52.4268C23.2415 52.0268 22.2415 50.2268 22.5415 48.4268L25.5415 31.1268C25.7415 30.1268 26.3415 29.3268 27.0415 28.9268C26.4415 29.3268 26.0415 30.0268 25.8415 30.9268L22.8415 48.2268C22.5415 50.0268 23.5415 51.8268 25.0415 52.3268L31.4415 54.3268C31.8415 54.4601 32.2415 54.4934 32.6415 54.4268Z" fill="#FBFBFB"/>
</g>
<defs>
<linearGradient id="paint0_linear_198_129" x1="39.442" y1="-23.473" x2="53.742" y2="97.127" gradientUnits="userSpaceOnUse">
<stop offset="0.1" stop-color="#2878C1"/>
<stop offset="1" stop-color="#15265B"/>
</linearGradient>
<linearGradient id="paint1_linear_198_129" x1="79.5423" y1="39.8269" x2="34.0423" y2="174.327" gradientUnits="userSpaceOnUse">
<stop offset="0.1" stop-color="#2878C1"/>
<stop offset="1" stop-color="#15265B"/>
</linearGradient>
<linearGradient id="paint2_linear_198_129" x1="65.7411" y1="37.9269" x2="19.1411" y2="175.827" gradientUnits="userSpaceOnUse">
<stop stop-color="#53B1E1"/>
<stop offset="0.1" stop-color="#53B1E1"/>
<stop offset="1" stop-color="#2E64B5"/>
</linearGradient>
<linearGradient id="paint3_linear_198_129" x1="44.6403" y1="44.9267" x2="12.7403" y2="80.2267" gradientUnits="userSpaceOnUse">
<stop stop-color="#53B1E1"/>
<stop offset="0.1" stop-color="#53B1E1"/>
<stop offset="1" stop-color="#2E64B5"/>
</linearGradient>
</defs>
</svg>
