<svg width="11" height="12" viewBox="0 0 11 12" fill="none" xmlns="http://www.w3.org/2000/svg">
<g clip-path="url(#clip0_117_375)">
<path d="M8.08073 0.527832H2.80295C1.35169 0.527832 0.164062 1.71495 0.164062 3.16672V8.4445C0.164062 9.89576 1.35169 11.0834 2.80295 11.0834H8.08073C9.53199 11.0834 10.7196 9.89576 10.7196 8.4445V3.16672C10.7196 1.71495 9.53199 0.527832 8.08073 0.527832ZM5.44184 8.0046C4.22715 8.0046 3.24272 7.01976 3.24272 5.80561C3.24272 4.59092 4.22715 3.60649 5.44184 3.60649C6.65599 3.60649 7.64096 4.59092 7.64096 5.80561C7.64096 7.01976 6.65599 8.0046 5.44184 8.0046ZM8.30068 3.60649C7.93598 3.60649 7.64096 3.31106 7.64096 2.94677C7.64096 2.58248 7.93598 2.28705 8.30068 2.28705C8.66538 2.28705 8.9604 2.58248 8.9604 2.94677C8.9604 3.31106 8.66538 3.60649 8.30068 3.60649Z" fill="white"/>
</g>
<defs>
<clipPath id="clip0_117_375">
<rect width="10.5556" height="10.5556" fill="white" transform="translate(0.164062 0.527832)"/>
</clipPath>
</defs>
</svg>
