<svg width="8" height="15" viewBox="0 0 8 15" fill="none" xmlns="http://www.w3.org/2000/svg">
<path d="M0.993821 6.95307C0.862004 7.10885 0.800001 7.30755 0.800001 7.50003C0.800001 7.6925 0.862003 7.8912 0.993822 8.04699L5.99376 13.956C5.99377 13.956 5.99378 13.9561 5.9938 13.9561C6.12697 14.1135 6.30949 14.2 6.49996 14.2C6.69041 14.2 6.87291 14.1134 7.00611 13.9561L7.00611 13.9561C7.26465 13.6508 7.2646 13.1676 7.00615 12.8621L2.46898 7.50003L7.00611 2.13795C7.00612 2.13794 7.00613 2.13792 7.00615 2.13791C7.2647 1.83249 7.2644 1.34939 7.00619 1.04403C6.87303 0.886565 6.69051 0.8 6.50002 0.8C6.30953 0.8 6.127 0.886558 5.9938 1.04399L0.993821 6.95307Z" fill="white" stroke="white" stroke-width="0.4"/>
</svg>
