<svg width="44" height="44" viewBox="0 0 44 44" fill="none" xmlns="http://www.w3.org/2000/svg">
<path fill-rule="evenodd" clip-rule="evenodd" d="M22.0008 31.5388C23.3243 30.3269 24.3812 28.8529 25.1042 27.2104C25.8272 25.568 26.2006 23.7931 26.2006 21.9986C26.2006 20.204 25.8272 18.4291 25.1042 16.7867C24.3812 15.1442 23.3243 13.6702 22.0008 12.4583C19.6603 10.3132 16.5998 9.12466 13.425 9.12794C10.0411 9.173 6.8112 10.5488 4.43425 12.9577C2.05731 15.3665 0.724609 18.6144 0.724609 21.9986C0.724609 25.3827 2.05731 28.6306 4.43425 31.0395C6.8112 33.4483 10.0411 34.8241 13.425 34.8692C16.5998 34.8724 19.6603 33.6839 22.0008 31.5388Z" fill="#0097D9"/>
<path fill-rule="evenodd" clip-rule="evenodd" d="M30.5866 9.12827C27.4117 9.125 24.3513 10.3135 22.0107 12.4586C21.5483 12.8834 21.1173 13.3411 20.7211 13.8282H23.2822C23.6354 14.2634 23.9602 14.7209 24.2546 15.1978H19.735C19.4622 15.6392 19.216 16.0966 18.9977 16.5674H24.9987C25.2047 17.0133 25.3854 17.4706 25.5397 17.9369H18.4635C18.3155 18.3864 18.192 18.8436 18.0938 19.3065H25.9186C26.1096 20.2024 26.206 21.1159 26.2062 22.032C26.2073 23.4213 25.9846 24.8017 25.5465 26.1202H18.4704C18.6244 26.5867 18.805 27.0439 19.0114 27.4898H25.0124C24.7941 27.9605 24.5479 28.4179 24.2751 28.8593H19.735C20.0294 29.3368 20.355 29.7943 20.7097 30.2289H23.2822C22.8853 30.7154 22.4543 31.1731 21.9925 31.5985C24.348 33.723 27.4146 34.887 30.5866 34.8604C37.6422 34.8604 43.3693 29.0967 43.3693 21.9886C43.3753 20.3042 43.0494 18.6351 42.4102 17.0766C41.771 15.5182 40.8311 14.1009 39.644 12.9058C38.457 11.7107 37.0461 10.7612 35.492 10.1114C33.9379 9.46171 32.271 9.12453 30.5866 9.11914V9.12827Z" fill="#E40520"/>
<path fill-rule="evenodd" clip-rule="evenodd" d="M41.6504 29.1745C41.6508 29.0929 41.6755 29.0133 41.7211 28.9456C41.7668 28.878 41.8315 28.8254 41.907 28.7945C41.9825 28.7635 42.0655 28.7557 42.1455 28.7719C42.2255 28.7881 42.2989 28.8276 42.3565 28.8855C42.414 28.9434 42.4532 29.017 42.4689 29.0971C42.4847 29.1771 42.4764 29.2601 42.445 29.3355C42.4137 29.4108 42.3607 29.4752 42.2928 29.5205C42.225 29.5658 42.1452 29.59 42.0635 29.59C41.9538 29.5894 41.8487 29.5453 41.7713 29.4675C41.6938 29.3897 41.6504 29.2843 41.6504 29.1745ZM42.0635 29.4895C42.1265 29.49 42.1881 29.4717 42.2407 29.437C42.2932 29.4023 42.3342 29.3528 42.3585 29.2947C42.3828 29.2367 42.3893 29.1727 42.3771 29.1109C42.365 29.0492 42.3347 28.9924 42.2902 28.9479C42.2457 28.9034 42.1889 28.8731 42.1272 28.861C42.0654 28.8488 42.0014 28.8553 41.9434 28.8796C41.8853 28.9039 41.8358 28.9449 41.8011 28.9974C41.7664 29.0499 41.7481 29.1116 41.7485 29.1745C41.7482 29.216 41.7562 29.2571 41.7719 29.2954C41.7876 29.3338 41.8108 29.3687 41.8401 29.398C41.8694 29.4273 41.9043 29.4505 41.9426 29.4662C41.981 29.4819 42.0221 29.4899 42.0635 29.4895ZM42.0065 29.3549H41.922V28.9897H42.075C42.1075 28.9872 42.14 28.9943 42.1685 29.0102C42.1831 29.0204 42.195 29.0341 42.2029 29.0501C42.2109 29.066 42.2148 29.0837 42.2142 29.1015C42.2147 29.1215 42.2091 29.1412 42.1981 29.158C42.187 29.1747 42.1712 29.1876 42.1526 29.1951L42.2188 29.3549H42.1252L42.0681 29.2111H41.9996V29.154H42.0476C42.0641 29.1575 42.0812 29.1575 42.0978 29.154C42.1047 29.149 42.1104 29.1425 42.1143 29.135C42.1183 29.1275 42.1204 29.1191 42.1206 29.1106C42.1204 29.1033 42.1184 29.0962 42.1148 29.0899C42.1112 29.0835 42.1062 29.0781 42.1001 29.0741C42.0821 29.0697 42.0633 29.0697 42.0453 29.0741H41.9996V29.3731L42.0065 29.3549Z" fill="#E40520"/>
<path fill-rule="evenodd" clip-rule="evenodd" d="M38.9492 24.787C38.9501 24.7055 38.9751 24.6261 39.0211 24.5587C39.067 24.4914 39.1318 24.4391 39.2074 24.4086C39.283 24.378 39.3659 24.3705 39.4457 24.3869C39.5256 24.4034 39.5988 24.4431 39.6561 24.501C39.7134 24.559 39.7523 24.6326 39.7679 24.7126C39.7835 24.7927 39.775 24.8755 39.7436 24.9507C39.7122 25.0259 39.6593 25.0902 39.5914 25.1354C39.5236 25.1806 39.4439 25.2047 39.3624 25.2047C39.3078 25.2044 39.2539 25.1934 39.2036 25.1722C39.1533 25.1511 39.1076 25.1202 39.0693 25.0814C39.0309 25.0426 39.0006 24.9967 38.98 24.9462C38.9594 24.8956 38.9489 24.8416 38.9492 24.787ZM39.3624 25.1043C39.4253 25.1052 39.4871 25.0874 39.5399 25.0531C39.5927 25.0187 39.634 24.9695 39.6588 24.9116C39.6835 24.8537 39.6904 24.7898 39.6787 24.728C39.667 24.6661 39.6371 24.6091 39.5929 24.5643C39.5487 24.5195 39.4922 24.4888 39.4305 24.4762C39.3689 24.4636 39.3048 24.4696 39.2466 24.4935C39.1884 24.5173 39.1385 24.558 39.1035 24.6103C39.0684 24.6625 39.0497 24.7241 39.0497 24.787C39.0494 24.8284 39.0572 24.8694 39.0728 24.9077C39.0883 24.9461 39.1113 24.981 39.1403 25.0104C39.1693 25.0399 39.2039 25.0633 39.242 25.0794C39.2801 25.0955 39.321 25.104 39.3624 25.1043ZM39.3076 24.9696H39.2209V24.6044H39.3761C39.4079 24.6021 39.4396 24.6093 39.4674 24.6249C39.482 24.6352 39.4938 24.6489 39.5018 24.6648C39.5097 24.6808 39.5136 24.6984 39.513 24.7162C39.5135 24.7363 39.5079 24.756 39.4969 24.7727C39.4859 24.7894 39.47 24.8024 39.4514 24.8098L39.5176 24.9696H39.424L39.3692 24.8258H39.3076V24.7642H39.3532C39.3706 24.7677 39.3884 24.7677 39.4058 24.7642C39.4124 24.7591 39.4177 24.7525 39.4213 24.745C39.4248 24.7374 39.4266 24.7291 39.4263 24.7208C39.426 24.7135 39.424 24.7064 39.4205 24.7001C39.4169 24.6937 39.4118 24.6883 39.4058 24.6843C39.3878 24.6798 39.369 24.6798 39.351 24.6843H39.3076V24.9833V24.9696Z" fill="white"/>
<path fill-rule="evenodd" clip-rule="evenodd" d="M11.8259 25.2048H10.2372L11.1822 20.1875L9.00456 25.2048H7.55509L7.29031 20.2172L6.34301 25.2048H4.90039L6.13301 18.6787H8.61423L8.74434 22.719L10.4951 18.6787H13.0791L11.8259 25.2048Z" fill="white"/>
<path fill-rule="evenodd" clip-rule="evenodd" d="M29.5963 25.1386C29.226 25.2498 28.8417 25.3075 28.455 25.3098C27.6401 25.3098 27.1973 24.8989 27.1973 24.1456C27.1987 23.9856 27.214 23.826 27.2429 23.6686L27.3411 23.1504L27.4141 22.7304L28.1514 18.6787H29.7333L29.505 19.8954H30.3153L30.0871 21.1873H29.2745L28.8545 23.4015C28.8385 23.4766 28.8293 23.553 28.8271 23.6297C28.8271 23.9037 28.9914 24.0224 29.3703 24.0224C29.5149 24.0266 29.6594 24.0104 29.7995 23.9744L29.5872 25.1477L29.5963 25.1386Z" fill="white"/>
<path fill-rule="evenodd" clip-rule="evenodd" d="M34.239 19.9411C34.1812 19.9155 34.1207 19.8963 34.0587 19.8841L33.9217 19.8521C33.869 19.8426 33.8155 19.838 33.7619 19.8384C33.2392 19.8384 32.8626 20.0667 32.3764 20.7012L32.5179 19.8955H31.0775L30.1074 25.2049H31.7053C32.2759 21.959 32.5202 21.3906 33.2826 21.3906C33.3396 21.3906 33.4058 21.3906 33.4834 21.402L33.6683 21.4408L34.2458 19.9411H34.239Z" fill="white"/>
<path fill-rule="evenodd" clip-rule="evenodd" d="M23.2947 21.5734C23.2947 22.2445 23.669 22.7148 24.5205 23.0526C25.171 23.3197 25.2714 23.3973 25.2714 23.6392C25.2714 23.9679 24.9838 24.1186 24.3584 24.1186C23.87 24.1169 23.3843 24.0462 22.9158 23.9086L22.6875 25.1321L22.7605 25.1435L23.055 25.1983C23.1486 25.2142 23.2833 25.2302 23.475 25.2462C23.8562 25.2759 24.1598 25.2896 24.3607 25.2896C26.0589 25.2896 26.8442 24.728 26.8442 23.5182C26.8442 22.7901 26.5155 22.3632 25.7029 22.0414C25.0181 21.772 24.9496 21.7127 24.9496 21.4662C24.9496 21.1786 25.2167 21.0325 25.7371 21.0325C26.1241 21.0372 26.5104 21.0639 26.8944 21.1124L27.1227 19.8843C26.6533 19.8228 26.1808 19.7877 25.7074 19.7793C23.9064 19.7793 23.2855 20.5942 23.2901 21.5734H23.2947Z" fill="white"/>
<path fill-rule="evenodd" clip-rule="evenodd" d="M16.996 25.2045H15.6744L15.7063 24.6544C15.3023 25.0881 14.7659 25.2958 14.0377 25.2958C13.8445 25.3059 13.6513 25.2754 13.4706 25.2062C13.2899 25.137 13.1258 25.0307 12.9887 24.8941C12.8517 24.7575 12.7448 24.5936 12.6751 24.4131C12.6053 24.2327 12.5742 24.0396 12.5837 23.8463C12.5837 22.5521 13.6109 21.7919 15.3776 21.7919C15.558 21.7919 15.7885 21.8079 16.0259 21.833C16.0634 21.7218 16.0842 21.6057 16.0875 21.4884C16.0875 21.1368 15.8113 21.0067 15.0672 21.0067C14.6232 21.0053 14.1805 21.0551 13.7479 21.1551L13.5196 21.2099L13.3758 21.2441L13.604 20.0526C14.2229 19.8724 14.8633 19.7772 15.5078 19.7695C16.8773 19.7695 17.5964 20.3082 17.5964 21.3263C17.5879 21.6804 17.5451 22.0328 17.4685 22.3786L17.1353 24.2617L17.0782 24.5996L17.0394 24.8689L17.012 25.0538L16.996 25.1976V25.2045ZM15.8365 22.8397C15.7184 22.8246 15.5994 22.8169 15.4804 22.8168C14.5787 22.8168 14.1222 23.0885 14.1222 23.6249C14.1189 23.6994 14.1317 23.7737 14.1596 23.8428C14.1875 23.912 14.23 23.9743 14.2841 24.0256C14.3382 24.0769 14.4027 24.116 14.4732 24.1402C14.5437 24.1644 14.6186 24.1731 14.6929 24.1659C15.3411 24.1659 15.8091 23.6249 15.8342 22.8397H15.8365Z" fill="white"/>
<path fill-rule="evenodd" clip-rule="evenodd" d="M22.2113 25.0881C21.6802 25.2328 21.1321 25.3058 20.5815 25.3049C18.8057 25.3049 17.8789 24.4877 17.8789 22.9264C17.8789 21.1003 19.0567 19.7627 20.6569 19.7627C21.9671 19.7627 22.8025 20.5137 22.8025 21.6915C22.7954 22.135 22.7294 22.5756 22.6062 23.0018H19.4448C19.4358 23.0576 19.4312 23.1141 19.4311 23.1707C19.4311 23.7847 19.9013 24.0997 20.8258 24.0997C21.3931 24.0996 21.9544 23.9847 22.4761 23.7619L22.2113 25.0881ZM21.3645 21.9312C21.3645 21.8216 21.3782 21.7303 21.3782 21.6596C21.3782 21.2304 21.0997 20.9748 20.6249 20.9748C20.1501 20.9748 19.7575 21.3126 19.6114 21.9266L21.3645 21.9312Z" fill="white"/>
<path fill-rule="evenodd" clip-rule="evenodd" d="M39.1833 22.797C38.955 24.5638 37.7224 25.3467 36.0949 25.3467C34.2962 25.3467 33.5703 24.2465 33.5703 22.8997C33.5703 21.0188 34.8006 19.7451 36.6998 19.7451C38.3501 19.7451 39.2267 20.7928 39.2267 22.1396C39.2345 22.3596 39.22 22.5799 39.1833 22.797ZM37.5467 22.1122C37.5467 21.5575 37.3184 21.0325 36.6701 21.0325C35.8598 21.0325 35.3576 21.9981 35.3576 22.8586C35.3576 23.5777 35.7023 24.0616 36.2707 24.0524C36.6153 24.0524 37.3503 23.5777 37.4942 22.7536C37.5301 22.544 37.5477 22.3317 37.5467 22.1191V22.1122Z" fill="white"/>
</svg>
