<svg width="81" height="77" viewBox="0 0 81 77" fill="none" xmlns="http://www.w3.org/2000/svg">
<path d="M56.7793 67.4082L28.7873 59.6738C23.9531 58.3407 20.2476 52.6522 20.5076 46.9896L21.9781 14.114C22.0971 11.5523 23.0017 9.4196 24.4126 7.97543C24.7953 7.58256 25.2162 7.24091 25.6692 6.96725C25.8167 6.86848 25.9749 6.79237 26.139 6.69949C26.2971 6.62338 26.4553 6.54727 26.6135 6.47116L18.6641 9.80937C16.0465 10.902 14.1942 13.6994 14.0348 17.4354L12.5642 50.311C12.3042 55.9737 16.0098 61.6621 20.8439 62.9952L48.8133 70.7406C50.4544 71.1892 52.0284 71.0857 53.3711 70.5231L61.3312 67.2075C59.9884 67.7701 58.4145 67.8736 56.7793 67.4082Z" fill="url(#paint0_linear_166_153)"/>
<path d="M65.9832 59.5707L67.4537 26.6951C67.7137 21.0324 64.0082 15.344 59.174 14.0109L31.182 6.27639C26.3479 4.94331 22.2381 8.45139 21.9722 14.1308L20.5017 47.0064C20.2417 52.6691 23.9472 58.3575 28.7813 59.6906L56.7793 67.4083C61.6075 68.7582 65.7232 65.2333 65.9832 59.5707Z" fill="#F2FBFE"/>
<path d="M50.6636 50.3576C50.2126 50.2546 49.765 49.9831 49.3993 49.5329C46.6644 46.1879 40.3738 38.3207 38.2917 34.5085C37.051 32.2394 35.8518 29.8528 35.8267 27.2213C35.795 23.8139 37.2975 21.1569 39.6272 19.9246L32.1579 23.8666C29.8509 25.0881 28.3257 27.7559 28.3575 31.1634C28.3825 33.7948 29.5817 36.1814 30.8224 38.4505C32.8986 42.2795 39.2118 50.1358 41.93 53.4749C42.2957 53.9251 42.7433 54.1967 43.1943 54.2996C43.562 54.3731 43.9094 54.3451 44.2317 54.1761L51.701 50.2341C51.3954 50.409 51.0313 50.4311 50.6636 50.3576Z" fill="#7A11FF" fill-opacity="0.73"/>
<path d="M65.1476 32.5771C64.6077 27.7446 61.0841 23.2903 56.8891 22.1645C56.7665 22.14 56.6666 22.1046 56.544 22.0801C54.1437 21.5516 51.9884 22.1852 50.4538 23.6611C48.8753 21.4988 46.7037 19.9002 44.3034 19.3717C39.5754 18.3215 35.7679 21.8233 35.8265 27.2213C35.8516 29.8528 37.0507 32.2394 38.2914 34.5085C40.3676 38.3374 46.6808 46.1938 49.399 49.5329C49.7647 49.983 50.2123 50.2546 50.6634 50.3576C51.1144 50.4606 51.5747 50.3782 51.9219 50.0859C54.7145 47.8099 61.3661 42.2578 63.5999 39.1237C64.7858 37.4679 65.4464 35.2299 65.1476 32.5771Z" fill="url(#paint1_linear_166_153)"/>
<path d="M49.6498 49.6214C46.915 46.2764 40.6244 38.4092 38.5422 34.597C37.3015 32.3279 36.1024 29.9413 36.0773 27.3098C36.0353 21.9177 39.8262 18.41 44.5542 19.4602C44.8327 19.521 45.1052 19.5986 45.3885 19.6988C45.0386 19.575 44.666 19.4621 44.3043 19.3718C39.5763 18.3216 35.7687 21.8234 35.8274 27.2214C35.8524 29.8529 37.0516 32.2394 38.2923 34.5086C40.3685 38.3375 46.6817 46.1939 49.3999 49.533C49.7382 49.9546 50.1525 50.2144 50.5583 50.3391C50.2369 50.1876 49.9286 49.9464 49.6498 49.6214Z" fill="#D2A8FC"/>
<path d="M50.7042 23.7496C52.2388 22.2737 54.3941 21.6401 56.7944 22.1686C56.917 22.1931 57.0169 22.2285 57.1395 22.253C57.3287 22.3011 57.512 22.3659 57.6953 22.4308C57.4287 22.3365 57.1621 22.2421 56.8896 22.1646C56.767 22.1401 56.667 22.1047 56.5445 22.0802C54.2001 21.5526 52.09 22.1645 50.5684 23.5506C50.6173 23.6245 50.6554 23.6757 50.7042 23.7496Z" fill="#D2A8FC"/>
<defs>
<linearGradient id="paint0_linear_166_153" x1="41.227" y1="75.4793" x2="22.7507" y2="9.90327" gradientUnits="userSpaceOnUse">
<stop stop-color="#D2A8FC"/>
<stop offset="0.0970381" stop-color="#9C70F3"/>
<stop offset="0.5106" stop-color="#DECAEB"/>
<stop offset="0.8246" stop-color="#DECAEB"/>
<stop offset="1" stop-color="#DECAEB"/>
</linearGradient>
<linearGradient id="paint1_linear_166_153" x1="35.6168" y1="41.1677" x2="63.9017" y2="24.242" gradientUnits="userSpaceOnUse">
<stop stop-color="#7A11FF" stop-opacity="0.4"/>
<stop offset="1" stop-color="#7A11FF"/>
</linearGradient>
</defs>
</svg>
