<svg width="105" height="105" viewBox="0 0 105 105" fill="none" xmlns="http://www.w3.org/2000/svg">
<path d="M25.3658 84.765L38.9771 83.3035L45.8848 89.0574L32.2735 90.5189C30.8636 90.6623 29.5186 90.5731 28.2667 90.269C27.9098 90.1853 27.5702 90.0734 27.2306 89.9615C26.7272 89.7681 26.2238 89.5748 25.7496 89.3021C25.1171 88.9708 24.5419 88.5776 24.0015 88.1279L17.0937 82.3739C19.2328 84.1782 22.1251 85.1038 25.3658 84.765Z" fill="#3249B3"/>
<path d="M47.4093 91.0082C47.9267 90.9572 48.4406 90.69 48.8145 90.2392L56.222 81.4336L69.8788 79.9612C76.7528 79.2141 82.4526 72.9371 82.6115 65.9321L83.6572 20.5535C83.7306 16.8234 82.2478 13.6331 79.7875 11.5921L86.6725 17.3514C89.1328 19.3925 90.6155 22.5828 90.5422 26.3128L89.5074 71.7371C89.3485 78.742 83.6486 85.0191 76.7747 85.7661L63.1178 87.2385L55.7331 96.0387C55.3592 96.4895 54.8225 96.7621 54.328 96.8077C53.8844 96.8653 53.4201 96.7349 53.0652 96.4579L46.1574 90.704C46.5014 90.9354 46.9657 91.0657 47.4093 91.0082Z" fill="#3249B3"/>
<path d="M13.201 73.4179L14.2358 27.9937C14.3948 20.9887 20.0946 14.7117 26.9686 13.9646L71.4922 9.20648C78.3661 8.45942 83.7929 13.554 83.634 20.5589L82.6165 65.955C82.4576 72.9599 76.7577 79.2369 69.8838 79.984L56.2269 81.4564L48.8422 90.2566C48.4683 90.7074 47.9316 90.98 47.4371 91.0256C46.9197 91.0766 46.4272 90.9289 46.0733 90.5552L38.9997 83.298L25.3884 84.7595C18.4862 85.4892 13.0421 80.4229 13.201 73.4179Z" fill="url(#paint0_linear_166_106)"/>
<path d="M13.2009 73.4181L14.2357 27.9938C14.3947 20.9888 20.0945 14.7118 26.9685 13.9648L71.4921 9.20661C74.2382 8.91343 76.7474 9.54461 78.7723 10.8699C76.8419 9.73905 74.4792 9.21758 71.9435 9.48469L27.4199 14.2428C20.5459 14.9899 14.8461 21.2669 14.6871 28.2719L13.6524 73.6962C13.5511 77.915 15.468 81.4116 18.5139 83.3854C15.2174 81.4713 13.0977 77.8303 13.2009 73.4181Z" fill="#7B90F3"/>
<path d="M39.4286 83.5817L46.5023 90.8389C46.5359 90.8791 46.5641 90.8965 46.5924 90.9139C46.383 90.8432 46.2083 90.7162 46.0509 90.5608L39.2692 83.6197L39.4286 83.5817Z" fill="#7B90F3"/>
<path d="M46.9577 90.7301C47.475 90.6791 47.9889 90.4119 48.3628 89.9611L55.7475 81.1609L69.4044 79.6885C76.2784 78.9414 81.9782 72.6644 82.1371 65.6595L83.2056 20.2754C83.3068 16.0565 81.3672 12.5654 78.344 10.5862C81.6405 12.5002 83.7602 16.1413 83.657 20.5535L82.6167 65.9549C82.4578 72.9599 76.758 79.2369 69.884 79.984L56.2272 81.4564L48.8425 90.2566C48.4686 90.7074 47.9319 90.98 47.4373 91.0256C46.9655 91.0658 46.5012 90.9354 46.1636 90.6302C46.4012 90.7181 46.6789 90.7725 46.9577 90.7301Z" fill="#3249B3"/>
<path d="M24.9145 84.4867L38.5258 83.0252L38.8124 83.3185L25.3659 84.7648C22.6198 85.058 20.1106 84.4268 18.0857 83.1016C20.0161 84.2324 22.356 84.7593 24.9145 84.4867Z" fill="#3249B3"/>
<path d="M35.9737 21.7495L39.9871 25.156C40.2574 25.3808 40.4756 25.6904 40.6082 26.0445C41.4699 28.3462 42.456 30.1603 43.5981 31.7201C44.5948 33.0736 45.7127 34.2293 46.9392 35.3351L48.1775 36.3899C51.594 39.3119 53.0533 43.1105 53.125 43.3103L49.1116 39.9038C49.0399 39.704 47.6914 36.1683 44.5298 33.306L43.4717 32.4011C40.5729 29.9343 38.3182 27.2415 36.5948 22.638C36.484 22.3752 36.3504 22.1177 36.1593 21.9222C36.1203 21.8592 36.0584 21.8016 35.9737 21.7495Z" fill="#8EA0F5"/>
<path d="M23.4726 62.7959C24.9774 63.3532 27.2609 63.8453 30.3768 63.488C32.2531 63.2817 34.4166 62.7659 36.8976 61.7645C37.3422 61.6102 45.6149 58.5529 48.8541 52.959L49.5937 52.8308L49.7474 39.8484L53.7608 43.2549L53.6071 56.2373L52.8675 56.3655C49.6337 61.9822 41.3328 65.0222 40.911 65.171C38.43 66.1724 36.2665 66.6882 34.3902 66.8946C31.297 67.2464 28.9907 66.7597 27.486 66.2024C27.2993 66.1263 27.1355 66.0449 26.9717 65.9634C26.8078 65.8819 26.6613 65.7722 26.5322 65.6343L22.5188 62.2278C22.7944 62.4754 23.1276 62.6612 23.4726 62.7959Z" fill="#8EA0F5"/>
<path d="M34.2635 21.241C34.0759 21.2617 33.8709 21.3105 33.6714 21.3822L33.5402 21.4376C30.9919 22.3586 29.3223 25.0469 29.7211 27.6278L30.7834 34.6067C30.9643 35.769 30.2927 36.9899 29.2019 37.5633C28.0255 38.1814 26.2287 38.9232 23.7236 39.5205C22.4027 39.8355 21.0717 41.1171 21.0574 42.4706L21.3658 46.0855C21.3577 46.8589 21.8906 47.4791 22.6738 47.5334L22.2965 47.7681C21.7306 48.12 21.372 48.7358 21.3822 49.3843L21.4571 54.1397C21.4673 54.7882 21.8537 55.2987 22.4255 55.4758L22.7368 55.5703L22.0496 56.1199C21.6831 56.4002 21.4741 56.8357 21.4809 57.268L21.4619 59.611C21.4521 61.0839 22.2567 62.3385 23.5749 62.8197C25.0796 63.377 27.3632 63.8692 30.4791 63.5119C32.3554 63.3056 34.5189 62.7897 36.9999 61.7883C37.4445 61.6341 45.7172 58.5767 48.9564 52.9828L49.696 52.8547L49.8497 39.8723L49.2185 39.9505C49.1468 39.7506 47.6494 35.7924 44.0854 32.8573C40.9436 30.2796 38.5305 27.5282 36.7017 22.6847C36.2411 21.6615 35.2982 21.139 34.2635 21.241Z" fill="#ECEFFD"/>
<path d="M34.7432 21.5365C34.5556 21.5571 34.3506 21.606 34.1511 21.6777L34.0199 21.7331C31.4716 22.6541 29.802 25.3424 30.2008 27.9233L31.2631 34.9022C31.444 36.0645 30.7724 37.2853 29.6816 37.8588C28.5052 38.4768 26.7085 39.2186 24.2033 39.816C22.8825 40.1309 21.5514 41.4126 21.5371 42.766L21.8455 46.381C21.8523 46.8133 22.0131 47.1848 22.266 47.4379C21.7116 47.2325 21.3479 46.7166 21.3377 46.0681L21.0293 42.4532C21.049 41.1226 22.3801 39.8409 23.6955 39.5031C26.218 38.8776 27.9919 38.1412 29.1738 37.546C30.2873 36.9671 30.9362 35.7516 30.7553 34.5894L29.693 27.6104C29.2942 25.0296 30.9638 22.3412 33.5121 21.4202L33.6433 21.3648C33.8428 21.2932 34.0478 21.2443 34.2354 21.2236C34.8666 21.1455 35.4893 21.3345 35.9397 21.7092C35.5947 21.5745 35.1922 21.5018 34.7432 21.5365Z" fill="white"/>
<path d="M22.4974 47.5996C22.6949 47.7212 22.9043 47.7918 23.1255 47.8114L22.7482 48.046C22.1823 48.3979 21.8237 49.0138 21.8339 49.6623L21.9088 54.4177C21.9102 54.8272 22.071 55.1987 22.3466 55.4464C21.7922 55.241 21.434 54.7479 21.4292 54.1222L21.3543 49.3668C21.3441 48.7183 21.7027 48.1024 22.2686 47.7505L22.4974 47.5996Z" fill="white"/>
<path d="M21.3609 59.5869L21.3799 57.244C21.3959 56.8062 21.6049 56.3707 21.9486 56.0959L22.5556 55.6136C22.6403 55.6657 22.7477 55.7125 22.8269 55.7418L23.1382 55.8363L22.4509 56.3859C22.0845 56.6661 21.8755 57.1017 21.8823 57.534L21.8633 59.877C21.8457 61.0142 22.3518 62.0266 23.1744 62.6501C22.0557 62.0972 21.3467 60.9403 21.3609 59.5869Z" fill="white"/>
<path d="M49.6195 40.2165C49.614 40.1937 49.5586 40.0623 49.4923 39.8852L49.7711 39.8429L49.7616 40.2068L49.6195 40.2165Z" fill="white"/>
<path d="M52.4131 56.3775L63.0061 55.1776L67.0194 58.5841L56.4265 59.784C55.676 59.8665 54.9969 59.6428 54.4846 59.2104L50.4712 55.8039C50.9607 56.2417 51.6398 56.4655 52.4131 56.3775Z" fill="#BF9447"/>
<path d="M63.2435 33.7618L67.2569 37.1683L66.9973 58.5895L63.0067 55.1775L63.2435 33.7618Z" fill="#BF9447"/>
<path d="M52.6447 34.9388C51.0753 35.1201 49.7823 36.5615 49.7769 38.1539L49.7477 39.8484L49.594 52.8308L49.5838 53.7975C49.5556 55.3953 50.8157 56.5413 52.385 56.36L62.978 55.1601L63.2376 33.7389L52.6447 34.9388Z" fill="#FEC55E"/>
<path d="M52.8255 35.0888C51.2561 35.2701 49.9631 36.7115 49.9577 38.3039L49.9285 39.9983L49.7748 52.9807L49.7646 53.9475C49.751 54.698 50.0226 55.3324 50.4666 55.781C49.9207 55.3085 49.5872 54.6166 49.6072 53.7921L49.6174 52.8254L49.7711 39.843L49.8003 38.1485C49.8285 36.5507 51.0987 35.1148 52.6681 34.9334L63.261 33.7336L63.2535 33.9041L52.8255 35.0888Z" fill="#FFE8BF"/>
<defs>
<linearGradient id="paint0_linear_166_106" x1="80.5064" y1="76.4959" x2="18.6548" y2="19.7538" gradientUnits="userSpaceOnUse">
<stop offset="0.00342466" stop-color="#4361EE"/>
<stop offset="0.4209" stop-color="#506CEF"/>
<stop offset="1" stop-color="#6981F1"/>
</linearGradient>
</defs>
</svg>
