<svg width="130" height="126" viewBox="0 0 130 126" fill="none" xmlns="http://www.w3.org/2000/svg">
<path d="M69.985 105.307C67.164 105.192 64.2656 105.766 61.5219 107.108L25.3506 124.544C24.1913 125.119 22.9933 125.349 21.834 125.31L37.2531 126C38.4125 126.038 39.6104 125.808 40.7698 125.234L76.941 107.797C79.7234 106.456 82.5831 105.881 85.4041 105.996L69.985 105.307Z" fill="#419973"/>
<path d="M89.23 0.766421L6.95589 40.3522C1.73889 42.8431 -1.15945 50.8139 0.424977 58.0949L13.0231 115.845C14.6075 123.126 20.1337 127.035 25.312 124.505L61.4832 107.069C67.3572 104.234 73.6562 104.732 79.1051 108.411L95.7222 119.6C96.6883 120.252 97.7318 120.29 98.6206 119.83C100.553 118.911 101.944 115.922 101.248 112.741L99.2775 103.735L98.5819 100.516C97.3453 94.8449 99.6253 88.7135 103.644 86.7591L107.547 84.8814C112.764 82.3905 115.663 74.4197 114.078 67.1387L101.558 9.42701C99.9731 2.14598 94.447 -1.72445 89.23 0.766421Z" fill="url(#paint0_linear_166_134)"/>
<path d="M89.2309 0.766421L6.95682 40.3522C4.71544 41.4252 2.89915 43.4945 1.70117 46.1004C2.89915 43.9927 4.48357 42.3449 6.4158 41.4252L88.6899 1.83941C94.9116 -0.651462 99.433 2.60584 100.979 10.5L113.113 66.6788C114.698 73.9599 111.761 81.9307 106.582 84.4215L102.679 86.2993C98.6601 88.2537 96.3801 94.385 97.6167 100.057L98.3123 103.276L100.786 113.891C101.133 115.462 100.94 116.995 100.438 118.259C101.327 116.88 101.79 114.887 101.327 112.818L99.3558 103.812L98.6601 100.593C97.4235 94.9215 99.7035 88.7902 103.723 86.8358L107.626 84.958C112.843 82.4672 115.741 74.4964 114.157 67.2153L101.558 9.42701C99.9741 2.14598 94.4479 -1.72445 89.2309 0.766421Z" fill="#C7F9CC"/>
<path d="M116.629 8.73723C115.624 5.36496 113.305 1.95438 109.711 0.958029C109.595 0.65146 93.4421 0.114964 92.7852 0C97.6544 0.306569 100.63 5.09672 101.557 9.42701L114.156 67.177C114.271 67.7902 114.387 68.4416 114.465 69.0931C114.851 72.5037 114.349 76.0292 112.88 79.1715C108.629 88.5219 100.63 83.3485 98.4659 95.0748C97.9249 97.8723 98.6978 101.053 99.3161 103.774L101.287 112.779C101.944 115.615 100.746 119.984 97.3066 120.137L112.726 120.827C113.962 120.903 115.006 120.06 115.701 119.102C116.822 117.454 117.131 115.347 116.706 113.431L114.735 104.425C114.117 101.704 113.305 98.5237 113.885 95.7263C114.387 92.469 116.01 88.9818 119.102 87.4489C119.798 87.104 123.353 85.4562 123.933 85.073C126.56 83.3485 128.222 80.5128 129.15 77.562C130 74.8412 130.193 71.8905 129.768 69.0547C129.691 68.6332 129.652 68.25 129.536 67.8285L116.977 10.1551C116.861 9.65693 116.745 9.19708 116.629 8.73723Z" fill="url(#paint1_linear_166_134)"/>
<path d="M93.4441 40.0456C91.5891 33.7226 86.9132 34.6423 81.5802 34.374C90.4685 35.7153 89.6569 52.7682 80.6914 53.2664C82.5463 53.1897 87.6088 54.0711 89.2705 53.0364C93.7146 50.5839 94.7966 44.5675 93.4441 40.0456Z" fill="url(#paint2_linear_166_134)"/>
<path d="M79.2216 34.8722C75.705 36.5583 73.7341 41.9233 74.8162 46.8667C75.8982 51.8102 79.6081 54.416 83.1247 52.7299C86.6414 51.0437 88.6122 45.6788 87.5302 40.7354C86.4481 35.7919 82.7383 33.1861 79.2216 34.8722Z" fill="#F9FEFA"/>
<path d="M63.03 54.8375C61.1751 48.4762 56.4991 49.3959 51.1662 49.1277C60.0544 50.4689 59.2429 67.5218 50.2773 68.02C52.1323 67.9434 57.1947 68.8248 58.8564 67.7901C63.3005 65.3759 64.3826 59.3594 63.03 54.8375Z" fill="url(#paint3_linear_166_134)"/>
<path d="M48.8076 49.6642C45.2909 51.3503 43.32 56.7153 44.4021 61.6587C45.4841 66.6021 49.194 69.208 52.7107 67.5219C56.2273 65.8357 58.1982 60.4708 57.1161 55.5273C56.0341 50.5839 52.3242 47.9781 48.8076 49.6642Z" fill="#F9FEFA"/>
<path d="M32.6531 69.6295C30.7981 63.2682 26.1221 64.1879 20.7892 63.9197C29.6774 65.2609 28.8659 82.3138 19.9004 82.812C21.7553 82.7354 26.8177 83.6168 28.4795 82.5821C32.8849 80.1679 33.967 74.1514 32.6531 69.6295Z" fill="url(#paint4_linear_166_134)"/>
<path d="M18.3935 64.4562C14.8769 66.1423 12.906 71.5073 13.988 76.4507C15.0701 81.3942 18.7799 84 22.2966 82.3139C25.8132 80.6277 27.7841 75.2628 26.7021 70.3193C25.62 65.3759 21.9101 62.7701 18.3935 64.4562Z" fill="#F9FEFA"/>
<defs>
<linearGradient id="paint0_linear_166_134" x1="26.9096" y1="125.206" x2="89.7754" y2="11.3018" gradientUnits="userSpaceOnUse">
<stop stop-color="#57CC99"/>
<stop offset="0.6222" stop-color="#6FDF99"/>
<stop offset="1" stop-color="#80ED99"/>
</linearGradient>
<linearGradient id="paint1_linear_166_134" x1="82.3126" y1="118.284" x2="127.99" y2="-5.38585" gradientUnits="userSpaceOnUse">
<stop stop-color="#3C8763"/>
<stop offset="0.2768" stop-color="#4C9F70"/>
<stop offset="0.8594" stop-color="#75DD91"/>
<stop offset="1" stop-color="#80ED99"/>
</linearGradient>
<linearGradient id="paint2_linear_166_134" x1="88.1396" y1="58.054" x2="86.7593" y2="40.5783" gradientUnits="userSpaceOnUse">
<stop offset="0.153" stop-color="#57CC99"/>
<stop offset="0.2928" stop-color="#62D19E"/>
<stop offset="0.5406" stop-color="#80DDAC"/>
<stop offset="0.8654" stop-color="#B1F0C2"/>
<stop offset="1" stop-color="#C7F9CC"/>
</linearGradient>
<linearGradient id="paint3_linear_166_134" x1="57.7337" y1="72.8459" x2="56.3534" y2="55.3702" gradientUnits="userSpaceOnUse">
<stop offset="0.153" stop-color="#57CC99"/>
<stop offset="0.2928" stop-color="#62D19E"/>
<stop offset="0.5406" stop-color="#80DDAC"/>
<stop offset="0.8654" stop-color="#B1F0C2"/>
<stop offset="1" stop-color="#C7F9CC"/>
</linearGradient>
<linearGradient id="paint4_linear_166_134" x1="27.3263" y1="87.6378" x2="25.946" y2="70.1621" gradientUnits="userSpaceOnUse">
<stop offset="0.153" stop-color="#57CC99"/>
<stop offset="0.2928" stop-color="#62D19E"/>
<stop offset="0.5406" stop-color="#80DDAC"/>
<stop offset="0.8654" stop-color="#B1F0C2"/>
<stop offset="1" stop-color="#C7F9CC"/>
</linearGradient>
</defs>
</svg>
