<svg width="32" height="25" viewBox="0 0 32 25" fill="none" xmlns="http://www.w3.org/2000/svg">
<path d="M5.80067 24.9451V23.286C5.80067 22.6513 5.41636 22.2357 4.75663 22.2357C4.42677 22.2357 4.06808 22.3453 3.82148 22.7061C3.62933 22.4033 3.35391 22.2357 2.94078 22.2357C2.66536 22.2357 2.38994 22.3195 2.17216 22.6223V22.2905H1.5957V24.9451H2.17216V23.4793C2.17216 23.0089 2.41876 22.7866 2.80307 22.7866C3.18738 22.7866 3.37953 23.0347 3.37953 23.4793V24.9451H3.95599V23.4793C3.95599 23.0089 4.23141 22.7866 4.5869 22.7866C4.9712 22.7866 5.16336 23.0347 5.16336 23.4793V24.9451H5.80067ZM14.3515 22.2905H13.4164V21.4883H12.8399V22.2905H12.3179V22.8156H12.8399V24.0334C12.8399 24.6423 13.0865 24.9999 13.7462 24.9999C13.9928 24.9999 14.2682 24.9161 14.4604 24.8066L14.2939 24.3072C14.1273 24.4168 13.9352 24.4458 13.7975 24.4458C13.522 24.4458 13.4132 24.2783 13.4132 24.0044V22.8156H14.3483V22.2905H14.3515ZM19.245 22.2325C18.9152 22.2325 18.6942 22.4 18.5565 22.6191V22.2873H17.98V24.9419H18.5565V23.4471C18.5565 23.0057 18.7486 22.7544 19.1073 22.7544C19.2162 22.7544 19.3539 22.7834 19.466 22.8092L19.6325 22.2551C19.5172 22.2325 19.3539 22.2325 19.245 22.2325ZM11.8503 22.5096C11.5749 22.3163 11.1906 22.2325 10.7775 22.2325C10.1177 22.2325 9.67897 22.5643 9.67897 23.0895C9.67897 23.5308 10.0088 23.7821 10.5853 23.8627L10.8607 23.8917C11.1618 23.9464 11.3283 24.0302 11.3283 24.1687C11.3283 24.362 11.1073 24.5005 10.723 24.5005C10.3387 24.5005 10.0345 24.362 9.8423 24.2235L9.56688 24.6648C9.86792 24.8871 10.2811 24.9967 10.6942 24.9967C11.4628 24.9967 11.9048 24.6359 11.9048 24.1397C11.9048 23.6694 11.5461 23.4213 10.9984 23.3375L10.723 23.3085C10.4764 23.2795 10.2843 23.2248 10.2843 23.0605C10.2843 22.8672 10.4764 22.7576 10.7807 22.7576C11.1105 22.7576 11.4404 22.8962 11.6069 22.9799L11.8503 22.5096ZM27.1874 22.2325C26.8575 22.2325 26.6365 22.4 26.4988 22.6191V22.2873H25.9224V24.9419H26.4988V23.4471C26.4988 23.0057 26.691 22.7544 27.0497 22.7544C27.1586 22.7544 27.2963 22.7834 27.4084 22.8092L27.5749 22.2615C27.4628 22.2325 27.2995 22.2325 27.1874 22.2325ZM19.8215 23.6178C19.8215 24.42 20.3723 24.9999 21.2242 24.9999C21.6085 24.9999 21.8839 24.9161 22.1594 24.6971L21.8839 24.2267C21.663 24.3942 21.4452 24.4748 21.1954 24.4748C20.7278 24.4748 20.398 24.1429 20.398 23.6178C20.398 23.1185 20.7278 22.7866 21.1954 22.7609C21.442 22.7609 21.663 22.8446 21.8839 23.0089L22.1594 22.5386C21.8839 22.3163 21.6085 22.2357 21.2242 22.2357C20.3723 22.2325 19.8215 22.8156 19.8215 23.6178ZM25.1538 23.6178V22.2905H24.5773V22.6223C24.3851 22.3743 24.1097 22.2357 23.751 22.2357C23.008 22.2357 22.4316 22.8156 22.4316 23.6178C22.4316 24.42 23.008 24.9999 23.751 24.9999C24.1353 24.9999 24.4108 24.8614 24.5773 24.6133V24.9451H25.1538V23.6178ZM23.0369 23.6178C23.0369 23.1475 23.3379 22.7609 23.8343 22.7609C24.3019 22.7609 24.6317 23.1217 24.6317 23.6178C24.6317 24.0882 24.3019 24.4748 23.8343 24.4748C23.3411 24.4458 23.0369 24.085 23.0369 23.6178ZM16.1385 22.2325C15.3699 22.2325 14.8191 22.7866 14.8191 23.6146C14.8191 24.4458 15.3699 24.9967 16.1674 24.9967C16.5517 24.9967 16.936 24.8871 17.2402 24.6359L16.9648 24.2203C16.7438 24.3878 16.4684 24.4973 16.1962 24.4973C15.8375 24.4973 15.482 24.3298 15.3987 23.8627H17.3491C17.3491 23.7789 17.3491 23.7241 17.3491 23.6404C17.3747 22.7866 16.8783 22.2325 16.1385 22.2325ZM16.1385 22.7319C16.4972 22.7319 16.7438 22.9542 16.7983 23.3665H15.4244C15.4788 23.0089 15.7254 22.7319 16.1385 22.7319ZM30.4604 23.6178V21.2402H29.8839V22.6223C29.6918 22.3743 29.4164 22.2357 29.0577 22.2357C28.3147 22.2357 27.7382 22.8156 27.7382 23.6178C27.7382 24.42 28.3147 24.9999 29.0577 24.9999C29.442 24.9999 29.7174 24.8614 29.8839 24.6133V24.9451H30.4604V23.6178ZM28.3435 23.6178C28.3435 23.1475 28.6446 22.7609 29.1409 22.7609C29.6085 22.7609 29.9384 23.1217 29.9384 23.6178C29.9384 24.0882 29.6085 24.4748 29.1409 24.4748C28.6446 24.4458 28.3435 24.085 28.3435 23.6178ZM9.04486 23.6178V22.2905H8.4684V22.6223C8.27625 22.3743 8.00083 22.2357 7.64214 22.2357C6.89915 22.2357 6.32269 22.8156 6.32269 23.6178C6.32269 24.42 6.89915 24.9999 7.64214 24.9999C8.02645 24.9999 8.30187 24.8614 8.4684 24.6133V24.9451H9.04486V23.6178ZM6.90235 23.6178C6.90235 23.1475 7.20339 22.7609 7.69979 22.7609C8.16736 22.7609 8.49723 23.1217 8.49723 23.6178C8.49723 24.0882 8.16736 24.4748 7.69979 24.4748C7.20339 24.4458 6.90235 24.085 6.90235 23.6178Z" fill="white"/>
<path d="M20.3179 2.12939H11.6582V17.7802H20.3179V2.12939Z" fill="#FF5A00"/>
<path d="M12.2338 9.9549C12.2338 6.77513 13.7198 3.95296 16 2.12951C14.3219 0.802191 12.205 0 9.89592 0C4.42594 0 0 4.45232 0 9.9549C0 15.4575 4.42594 19.9098 9.89592 19.9098C12.205 19.9098 14.3219 19.1076 16 17.7803C13.7166 15.9826 12.2338 13.1347 12.2338 9.9549Z" fill="#EB001B"/>
<path d="M32 9.9549C32 15.4575 27.5741 19.9098 22.1041 19.9098C19.795 19.9098 17.6781 19.1076 16 17.7803C18.309 15.9536 19.7662 13.1347 19.7662 9.9549C19.7662 6.77513 18.2802 3.95296 16 2.12951C17.6749 0.802191 19.7918 0 22.1009 0C27.5741 0 32 4.48131 32 9.9549Z" fill="#F79E1B"/>
</svg>
