<svg width="113" height="113" viewBox="0 0 113 113" fill="none" xmlns="http://www.w3.org/2000/svg">
    <g filter="url(#filter0_d_1_10)">
        <rect x="33" y="20" width="47" height="47" rx="23.5" fill="url(#paint0_linear_1_10)"/>
    </g>
    <path d="M60.2 43.5C60.2 43.6924 60.138 43.8911 60.0062 44.0469L55.0062 49.956C54.873 50.1134 54.6905 50.2 54.5 50.2C54.3095 50.2 54.127 50.1134 53.9938 49.956C53.7356 49.6506 53.7353 49.1675 53.9939 48.862M60.2 43.5L58.793 43.5M60.2 43.5C60.2 43.3075 60.138 43.1088 60.0062 42.953L55.0062 37.044L54.8535 37.1731L55.0062 37.0439M60.2 43.5L55.0062 37.0439M53.9939 48.862L54.1465 48.9913L53.9939 48.8621L53.9939 48.862ZM53.9939 48.862L58.531 43.5M58.531 43.5L58.6403 43.6292L58.793 43.5M58.531 43.5L53.9939 38.1379C53.7354 37.8324 53.7353 37.3492 53.9939 37.0439C54.1271 36.8866 54.3096 36.8 54.5 36.8C54.6905 36.8 54.873 36.8865 55.0062 37.0439M58.531 43.5L58.6403 43.3708L58.793 43.5M58.793 43.5L55.0062 37.0439" fill="white" stroke="white" stroke-width="0.4"/>
    <defs>
        <filter id="filter0_d_1_10" x="0" y="0" width="113" height="113" filterUnits="userSpaceOnUse" color-interpolation-filters="sRGB">
            <feFlood flood-opacity="0" result="BackgroundImageFix"/>
            <feColorMatrix in="SourceAlpha" type="matrix" values="0 0 0 0 0 0 0 0 0 0 0 0 0 0 0 0 0 0 127 0" result="hardAlpha"/>
            <feOffset dy="13"/>
            <feGaussianBlur stdDeviation="16.5"/>
            <feComposite in2="hardAlpha" operator="out"/>
            <feColorMatrix type="matrix" values="0 0 0 0 0.298039 0 0 0 0 0.160784 0 0 0 0 1 0 0 0 0.43 0"/>
            <feBlend mode="normal" in2="BackgroundImageFix" result="effect1_dropShadow_1_10"/>
            <feBlend mode="normal" in="SourceGraphic" in2="effect1_dropShadow_1_10" result="shape"/>
        </filter>
        <linearGradient id="paint0_linear_1_10" x1="25.5789" y1="62.3" x2="85.1197" y2="60.5529" gradientUnits="userSpaceOnUse">
            <stop stop-color="#FEDA7D"/>
            <stop offset="0.401042" stop-color="#D62F81"/>
            <stop offset="1" stop-color="#5E0DFF"/>
        </linearGradient>
    </defs>
</svg>
