<svg width="8" height="15" viewBox="0 0 8 15" fill="none" xmlns="http://www.w3.org/2000/svg">
<path d="M7.00618 8.04693C7.138 7.89115 7.2 7.69245 7.2 7.49997C7.2 7.3075 7.138 7.1088 7.00618 6.95301L2.00624 1.04398C2.00623 1.04396 2.00622 1.04395 2.0062 1.04393C1.87303 0.886465 1.69051 0.799973 1.50005 0.799999C1.30959 0.800027 1.12709 0.886562 0.993893 1.04388L0.993893 1.04388C0.735348 1.34924 0.735402 1.83241 0.993852 2.13785L5.53102 7.49997L0.993894 12.862C0.99388 12.8621 0.993867 12.8621 0.993853 12.8621C0.735305 13.1675 0.735598 13.6506 0.993812 13.956C1.12697 14.1134 1.30949 14.2 1.49998 14.2C1.69047 14.2 1.873 14.1134 2.0062 13.956L7.00618 8.04693Z" fill="white" stroke="white" stroke-width="0.4"/>
</svg>
