<svg width="63" height="63" viewBox="0 0 63 63" fill="none" xmlns="http://www.w3.org/2000/svg">
<g clip-path="url(#clip0_166_205)">
<path d="M54.1447 0H51.4361C50.2454 0 50.2454 1.84597 51.4361 1.84597H54.1447C56.942 1.84597 59.2178 4.11356 59.2178 6.90073V28.2613C59.2178 31.0486 56.9421 33.3162 54.1447 33.3162H51.0727C50.87 33.3162 50.673 33.3829 50.5119 33.5061L44.8748 37.818V34.2392C44.8748 33.7294 44.4616 33.3162 43.9518 33.3162H32.7184C31.7985 33.3162 30.9144 33.0734 30.1347 32.6118V22.2507C30.1347 20.31 29.1462 18.5953 27.6452 17.5809V6.90073C27.6452 4.11356 29.9211 1.84597 32.7184 1.84597H45.652C46.8426 1.84597 46.8426 0 45.652 0H32.7184C28.9032 0 25.7993 3.09569 25.7993 6.90073V16.7696C25.3767 16.6687 24.9363 16.6137 24.4832 16.6137H7.58692C4.4708 16.6137 1.93555 19.1425 1.93555 22.2507V24.2437C1.93555 25.4343 3.78152 25.4343 3.78152 24.2437V22.2507C3.78152 20.1603 5.48855 18.4597 7.58692 18.4597H24.4833C26.5817 18.4597 28.2889 20.1603 28.2889 22.2507V32.9792C28.2778 33.0607 28.2783 33.1428 28.2889 33.2236V39.0953C28.2889 39.2113 28.2818 39.3269 28.2714 39.4418H26.3679C24.2705 39.4418 22.522 40.9557 22.1595 42.9453C22.0756 42.9769 21.995 43.0211 21.9203 43.0787L17.7921 46.2662V43.8093C17.7921 43.2996 17.3789 42.8863 16.8691 42.8863H7.58692C5.48855 42.8863 3.78152 41.1857 3.78152 39.0953V29.7816C3.78152 28.5911 1.93555 28.5911 1.93555 29.7816V39.0954C1.93555 42.2037 4.4708 44.7324 7.58692 44.7324H15.9462V48.145C15.9462 48.8853 16.8452 49.3295 17.4333 48.8756L22.0895 45.2805V55.6641C22.0895 58.0177 24.0089 59.9324 26.3681 59.9324H32.0321V62.0861C32.0321 62.8262 32.9311 63.2709 33.5191 62.8167L37.2549 59.9324H38.3585C40.7176 59.9324 42.6371 58.0176 42.6371 55.6641V54.0254C42.6371 52.8349 40.7911 52.8349 40.7911 54.0254V55.6641C40.7911 56.9999 39.6999 58.0864 38.3585 58.0864H36.9399C36.7358 58.0864 36.5374 58.1541 36.3759 58.2787L33.878 60.2073V59.0093C33.878 58.4995 33.4648 58.0863 32.955 58.0863H26.3679C25.0267 58.0863 23.9353 56.9996 23.9353 55.664V43.7102C23.9353 42.3745 25.0265 41.2879 26.3679 41.2879H38.3585C39.6998 41.2879 40.7911 42.3746 40.7911 43.7102V48.2413C40.7911 49.4319 42.6371 49.4319 42.6371 48.2413V43.7103C42.6371 41.3567 40.7176 39.4421 38.3585 39.4421H30.1242C30.1313 39.3268 30.1348 34.665 30.1348 34.665C30.9486 34.9922 31.8212 35.1623 32.7186 35.1623H43.0289V39.6861C43.0289 40.4246 43.9241 40.8693 44.5127 40.4192L51.3854 35.1623H54.1449C57.96 35.1623 61.0639 32.0666 61.0639 28.2614V6.90073C61.0638 3.09569 57.9599 0 54.1447 0V0Z" fill="#FEC55E"/>
<path d="M45.7393 6.81934C44.5674 6.52017 43.3732 7.44611 43.3732 8.65706C43.3732 9.98013 42.891 11.2552 42.0161 12.2467L39.4731 15.1244C39.3085 14.8717 39.0239 14.7045 38.6999 14.7045H33.7355C33.2256 14.7045 32.8125 15.1177 32.8125 15.6274V26.7974C32.8125 27.3071 33.2256 27.7204 33.7355 27.7204H38.6999C39.0729 27.7204 39.3934 27.4988 39.539 27.1805C40.544 27.7946 41.7087 28.1266 42.8937 28.1266H51.6672C53.0079 28.1266 54.1139 26.9633 54.051 25.6261C54.0231 25.0339 54.0536 17.0823 54.0536 16.9057C54.0536 15.5899 52.9831 14.5192 51.67 14.5192L47.1076 14.5056L47.2965 14.0582C48.1598 12.0138 48.0176 9.64306 46.9167 7.71623C46.6597 7.26606 46.2414 6.94769 45.7393 6.81934C46.2414 6.94769 45.237 6.6911 45.7393 6.81934C46.2414 6.94769 44.5675 6.52017 45.7393 6.81934ZM37.7769 25.8744H34.6585V16.5504H37.7769V25.8744ZM51.6672 16.3651C51.9653 16.3651 52.2077 16.6075 52.2077 16.9056C52.2077 17.0812 52.2059 17.5578 52.2034 18.204C52.1898 21.7719 52.1807 25.1511 52.207 25.7127C52.2166 25.9154 52.118 26.0505 52.0585 26.113C51.9553 26.2211 51.8164 26.2805 51.6672 26.2805H42.8937C41.8479 26.2805 40.8244 25.9181 40.0114 25.2601L39.6229 24.9455V17.7424L43.3999 13.4685C44.5731 12.1389 45.2191 10.4302 45.2191 8.65694C45.2191 8.60476 45.2904 8.59122 45.314 8.63183C46.1314 10.0622 46.2368 11.8222 45.596 13.3399L44.8675 15.0652C44.7473 15.3498 44.7776 15.6756 44.9478 15.9333C45.1182 16.191 45.4062 16.3463 45.715 16.3472L51.6672 16.3651Z" fill="#FEC55E"/>
<path d="M9.839 32.0582C9.32914 32.0582 8.91602 32.4715 8.91602 32.9812C8.91602 33.4909 9.32914 33.9042 9.839 33.9042H12.5597L12.0515 36.9782C11.9683 37.4811 12.3087 37.9562 12.8115 38.0394C12.8626 38.0479 12.9132 38.052 12.9631 38.052C13.4066 38.052 13.7979 37.7314 13.8727 37.2794L14.4307 33.9043H16.6573L16.149 36.9783C16.0658 37.4812 16.4062 37.9563 16.9091 38.0395C16.9601 38.048 17.0107 38.0521 17.0607 38.0521C17.5042 38.0521 17.8954 37.7315 17.9703 37.2795L18.5282 33.9044H22.2316C22.7415 33.9044 23.1546 33.4912 23.1546 32.9814C23.1546 32.4717 22.7415 32.0585 22.2316 32.0585H18.8334L19.2057 29.8069H22.2316C22.7415 29.8069 23.1546 29.3936 23.1546 28.8839C23.1546 28.3742 22.7415 27.9609 22.2316 27.9609H19.5109L20.0192 24.8869C20.1024 24.384 19.762 23.9089 19.2591 23.8257C18.7557 23.7422 18.2811 24.0829 18.1979 24.5857L17.64 27.9608H15.4133L15.9216 24.8867C16.0048 24.3839 15.6644 23.9088 15.1616 23.8256C14.6575 23.7421 14.1837 24.0828 14.1004 24.5856L13.5424 27.9607H9.839C9.32914 27.9607 8.91602 28.3739 8.91602 28.8836C8.91602 29.3934 9.32914 29.8066 9.839 29.8066H13.2372L12.8649 32.0582H9.839ZM15.1083 29.8066H17.3349L16.9626 32.0582H14.736L15.1083 29.8066Z" fill="#FEC55E"/>
<path d="M32.3527 46.0503C31.6074 45.4367 30.6159 45.1946 29.6213 45.4365C28.3467 45.746 27.0605 46.9375 27.0605 48.9015C27.0605 50.1239 27.5067 51.1849 28.4243 52.1453C29.1739 52.9299 30.2557 53.6759 31.9316 54.5644C32.0668 54.6362 32.2154 54.672 32.3639 54.672C32.5124 54.672 32.661 54.6362 32.7962 54.5644C35.72 53.0144 37.6671 51.4583 37.6671 48.9015C37.6671 46.9268 36.3353 45.7474 35.0153 45.4547C34.0237 45.2346 33.0623 45.4682 32.3527 46.0503ZM35.821 48.9015C35.821 50.2805 34.9063 51.3004 32.3638 52.7C29.8213 51.3003 28.9064 50.2804 28.9064 48.9015C28.9064 47.8754 29.5006 47.3654 30.0567 47.2303C30.1592 47.2054 30.269 47.1914 30.3818 47.1914C30.8001 47.1914 31.26 47.3846 31.5435 47.9343C31.7051 48.2471 32.0317 48.4411 32.3821 48.4338C32.734 48.4268 33.0513 48.2203 33.2001 47.9013C33.4988 47.2611 34.1269 47.1485 34.6152 47.257C35.1983 47.3861 35.821 47.8861 35.821 48.9015Z" fill="#FEC55E"/>
</g>
<defs>
<clipPath id="clip0_166_205">
<rect width="63" height="63" fill="white"/>
</clipPath>
</defs>
</svg>
