<svg width="63" height="63" viewBox="0 0 63 63" fill="none" xmlns="http://www.w3.org/2000/svg">
<path d="M47.2131 13.3709L34.2129 0.290391C34.1214 0.198357 34.0127 0.125321 33.8928 0.0754844C33.773 0.0256479 33.6445 -5.53964e-06 33.5148 8.9728e-10L5.04492 8.9728e-10C3.96838 0.00123752 2.93628 0.429441 2.17505 1.19067C1.41382 1.95191 0.985613 2.984 0.984375 4.06055V58.9395C0.985613 60.016 1.41382 61.0481 2.17505 61.8093C2.93628 62.5706 3.96838 62.9988 5.04492 63H43.4391C44.5157 62.9988 45.5478 62.5706 46.309 61.8093C47.0702 61.0481 47.4984 60.016 47.4997 58.9395V39.7195L60.3319 26.8871C61.4137 25.8053 62.0214 24.338 62.0214 22.8081C62.0214 21.2782 61.4137 19.8109 60.3319 18.7291C59.25 17.6473 57.7828 17.0395 56.2528 17.0395C54.7229 17.0395 53.2557 17.6473 52.1738 18.7291L47.4993 23.4036V14.0644C47.4992 13.8045 47.3963 13.5552 47.2131 13.3709ZM49.0268 24.6606L54.4004 30.0341L35.5619 48.8726L30.1883 43.499L49.0268 24.6606ZM51.7417 21.9455L57.1153 27.3191L55.7924 28.642L50.4192 23.2682L51.7417 21.9455ZM29.2984 45.392L33.6494 49.743L28.2196 50.7555L29.2984 45.392ZM34.9855 3.8606L43.5865 12.5141H34.9855V3.8606ZM45.5309 58.9395C45.5303 59.494 45.3097 60.0257 44.9176 60.4179C44.5254 60.81 43.9937 61.0306 43.4391 61.0312H5.04492C4.49033 61.0306 3.95864 60.81 3.56648 60.4179C3.17433 60.0257 2.95374 59.494 2.95312 58.9395V4.06055C2.95374 3.50596 3.17433 2.97426 3.56648 2.58211C3.95864 2.18995 4.49033 1.96937 5.04492 1.96875H33.0168V13.4982C33.0168 13.7593 33.1205 14.0097 33.3051 14.1943C33.4897 14.3789 33.7401 14.4826 34.0012 14.4826H45.5307V25.3723L27.9486 42.9548C27.8115 43.0919 27.7179 43.2666 27.6796 43.4567L26.002 51.7967C25.9703 51.9546 25.9777 52.1179 26.0238 52.2722C26.0698 52.4265 26.153 52.5672 26.2661 52.6819C26.3792 52.7966 26.5187 52.8818 26.6723 52.93C26.826 52.9782 26.9891 52.988 27.1475 52.9585L35.5908 51.3844C35.7862 51.348 35.966 51.2533 36.1065 51.1128L45.5309 41.6883V58.9395ZM58.9395 20.1214C59.6486 20.8358 60.0466 21.8015 60.0466 22.8082C60.0466 23.8148 59.6486 24.7806 58.9395 25.4949L58.5073 25.9271L53.1339 20.5535L53.5659 20.1214C54.279 19.4098 55.2453 19.0102 56.2527 19.0102C57.2601 19.0102 58.2263 19.4098 58.9395 20.1214ZM24.8604 46.1434C24.8604 46.4045 24.7567 46.6549 24.5721 46.8395C24.3875 47.0241 24.1371 47.1278 23.876 47.1278H8.50709C8.24602 47.1278 7.99564 47.0241 7.81103 46.8395C7.62643 46.6549 7.52272 46.4045 7.52272 46.1434C7.52272 45.8824 7.62643 45.632 7.81103 45.4474C7.99564 45.2628 8.24602 45.1591 8.50709 45.1591H23.8756C24.0049 45.159 24.133 45.1844 24.2525 45.2339C24.3719 45.2833 24.4805 45.3558 24.5719 45.4473C24.6634 45.5387 24.7359 45.6472 24.7854 45.7666C24.8349 45.8861 24.8604 46.0141 24.8604 46.1434ZM7.52309 37.5646C7.52309 37.3035 7.6268 37.0532 7.8114 36.8686C7.99601 36.6839 8.24639 36.5802 8.50746 36.5802H28.8145C29.0756 36.5802 29.326 36.6839 29.5106 36.8686C29.6952 37.0532 29.7989 37.3035 29.7989 37.5646C29.7989 37.8257 29.6952 38.0761 29.5106 38.2607C29.326 38.4453 29.0756 38.549 28.8145 38.549H8.50709C8.24602 38.549 7.99564 38.4453 7.81103 38.2607C7.62643 38.0761 7.52272 37.8257 7.52272 37.5646H7.52309ZM7.52309 28.9858C7.52309 28.7247 7.6268 28.4743 7.8114 28.2897C7.99601 28.1051 8.24639 28.0014 8.50746 28.0014H39.9769C40.238 28.0014 40.4884 28.1051 40.673 28.2897C40.8576 28.4743 40.9613 28.7247 40.9613 28.9858C40.9613 29.2469 40.8576 29.4972 40.673 29.6818C40.4884 29.8664 40.238 29.9702 39.9769 29.9702H8.50709C8.24602 29.9702 7.99564 29.8664 7.81103 29.6818C7.62643 29.4972 7.52272 29.2469 7.52272 28.9858H7.52309ZM7.52309 20.4071C7.52309 20.146 7.6268 19.8956 7.8114 19.711C7.99601 19.5264 8.24639 19.4227 8.50746 19.4227H39.9769C40.238 19.4227 40.4884 19.5264 40.673 19.711C40.8576 19.8956 40.9613 20.146 40.9613 20.4071C40.9613 20.6682 40.8576 20.9185 40.673 21.1031C40.4884 21.2877 40.238 21.3915 39.9769 21.3915H8.50709C8.24602 21.3915 7.99564 21.2877 7.81103 21.1031C7.62643 20.9185 7.52272 20.6682 7.52272 20.4071H7.52309ZM7.52309 11.8282C7.52309 11.5672 7.6268 11.3168 7.8114 11.1322C7.99601 10.9476 8.24639 10.8439 8.50746 10.8439H29.3457C29.6068 10.8439 29.8571 10.9476 30.0418 11.1322C30.2264 11.3168 30.3301 11.5672 30.3301 11.8282C30.3301 12.0893 30.2264 12.3397 30.0418 12.5243C29.8571 12.7089 29.6068 12.8126 29.3457 12.8126H8.50709C8.24602 12.8126 7.99564 12.7089 7.81103 12.5243C7.62643 12.3397 7.52272 12.0893 7.52272 11.8282H7.52309Z" fill="#009BFF"/>
</svg>
