<svg width="62" height="62" viewBox="0 0 62 62" fill="none" xmlns="http://www.w3.org/2000/svg">
<path d="M27.125 35.8438C24.9937 35.8438 23.25 37.5875 23.25 39.7188V41.6562C23.25 43.7875 24.9937 45.5312 27.125 45.5312C29.2562 45.5312 31 43.7875 31 41.6562V39.7188C31 37.5875 29.2562 35.8438 27.125 35.8438ZM29.0625 41.6562C29.0625 42.7219 28.1906 43.5938 27.125 43.5938C26.0594 43.5938 25.1875 42.7219 25.1875 41.6562V39.7188C25.1875 38.6531 26.0594 37.7812 27.125 37.7812C28.1906 37.7812 29.0625 38.6531 29.0625 39.7188V41.6562Z" fill="#FF26C2"/>
<path d="M15.5 49.4061C16.0813 49.4061 16.4688 49.0186 16.4688 48.4374C16.4688 47.8561 16.0813 47.4686 15.5 47.4686C14.4344 47.4686 13.5625 46.5968 13.5625 45.5311V43.5937C13.5625 43.2062 13.6594 42.8187 13.95 42.528C14.2406 42.0437 14.1438 41.4624 13.6594 41.1718C13.175 40.8812 12.5937 40.978 12.3031 41.4624C11.8187 42.0437 11.625 42.8187 11.625 43.5937V45.5311C11.625 47.6624 13.3687 49.4061 15.5 49.4061Z" fill="#FF26C2"/>
<path d="M46.5 49.4062C48.6312 49.4062 50.375 47.6625 50.375 45.5312V43.5938C50.375 41.4625 48.6312 39.7188 46.5 39.7188C44.3687 39.7188 42.625 41.4625 42.625 43.5938V45.5312C42.625 47.6625 44.3687 49.4062 46.5 49.4062ZM44.5625 43.5938C44.5625 42.5281 45.4344 41.6562 46.5 41.6562C47.5656 41.6562 48.4375 42.5281 48.4375 43.5938V45.5312C48.4375 46.5969 47.5656 47.4688 46.5 47.4688C45.4344 47.4688 44.5625 46.5969 44.5625 45.5312V43.5938Z" fill="#FF26C2"/>
<path d="M58.1255 41.947C58.7068 41.947 59.0943 41.5595 59.0943 40.9782V36.9095C59.0943 35.4564 58.1255 34.197 56.7693 33.9064C54.9287 33.6157 53.2818 35.0689 53.2818 36.8126V42.4314L49.6974 51.3438H43.3037L40.8818 45.1438C40.688 44.6595 40.1068 44.3689 39.6224 44.5626C39.138 44.7564 38.8474 45.3376 39.0412 45.822L41.7537 52.6032C41.9474 52.9907 42.238 53.1845 42.6255 53.1845H50.3755C50.763 53.1845 51.1505 52.9907 51.2474 52.6032L55.2193 42.8189V36.8126C55.2193 36.2314 55.6068 35.8439 56.188 35.8439C56.7693 35.8439 57.1568 36.2314 57.1568 36.8126V40.9782C57.1568 41.4626 57.5443 41.947 58.1255 41.947Z" fill="#FF26C2"/>
<path d="M43.7877 14.8218C43.9814 15.1124 44.4658 15.4999 45.1439 15.0155C45.5314 14.7249 45.6283 14.0468 45.3377 13.6593C43.1096 10.8499 39.9127 9.00928 36.3283 8.42803C35.8439 8.33115 35.2627 8.71866 35.2627 9.20303C35.2627 9.68741 35.5533 10.2687 36.0377 10.2687C39.1377 10.753 41.8502 12.3999 43.7877 14.8218Z" fill="#FF26C2"/>
<path d="M49.6969 19.1811C49.7938 19.1811 50.5688 19.4718 50.9563 18.5999C51.15 18.1155 50.9563 17.5343 50.375 17.3405C49.7938 17.1468 49.2125 16.8561 48.7282 16.5655C48.2438 16.2749 47.6625 16.4686 47.3719 16.953C47.0813 17.4374 47.275 18.0186 47.7594 18.3093C48.4375 18.5999 49.0188 18.9874 49.6969 19.1811Z" fill="#FF26C2"/>
<path d="M60.0621 59.0938H54.2496L55.1215 54.5407L58.609 45.7251C58.8996 45.0469 58.9965 44.3688 58.9965 43.6907C58.9965 43.1094 58.609 42.7219 58.0277 42.7219C57.4465 42.7219 57.059 43.1094 57.059 43.6907C57.059 44.175 56.9621 44.5626 56.7684 45.0469L53.2809 53.9594L52.3121 59.0938H50.5684C49.9871 59.0938 49.5996 59.4813 49.5996 60.0625C49.5996 60.6438 49.9871 61.0313 50.5684 61.0313H60.0621C60.6434 61.0313 61.0309 60.6438 61.0309 60.0625C61.0309 59.4813 60.6434 59.0938 60.0621 59.0938Z" fill="#FF26C2"/>
<path d="M46.8875 59.0936H40.6875L39.7188 53.9593L38.4594 50.8593C38.2656 50.3749 37.6844 50.0843 37.2 50.278C36.7156 50.4718 36.425 51.053 36.6188 51.5374L37.7813 54.4436L38.75 59.0936H34.1L35.7469 50.6655L39.2344 41.8499C39.525 41.1718 39.6219 40.4936 39.6219 39.8155V33.0343C39.6219 31.5811 38.6531 30.3218 37.2969 30.0311C35.5531 29.7405 33.9063 31.1936 33.9063 32.9374V38.5561L30.3219 47.4686H23.9281L20.3438 38.5561V32.9374C20.3438 32.0655 19.9563 31.2905 19.375 30.8061L25.7688 19.7624L30.3219 20.4405C33.4219 20.9249 36.1344 22.4749 38.0719 24.8968C38.2656 25.1874 38.75 25.478 39.4281 25.0905C39.9125 24.7999 39.9125 24.1218 39.6219 23.7343C37.3938 20.9249 34.1969 19.0843 30.6125 18.503L26.8344 17.9218L33.5187 6.29676L38.0719 6.97488C41.1719 7.45926 43.8844 9.00926 45.8219 11.4311C48.05 14.2405 51.2469 16.0811 54.8312 16.6624L58.6094 17.2436L51.925 28.8686L47.3719 28.1905C45.3375 27.8999 43.3031 27.028 41.6563 25.7686C41.2688 25.478 40.5906 25.478 40.3 25.9624C40.0094 26.3499 40.0094 27.028 40.4938 27.3186C42.4313 28.7718 44.6594 29.7405 47.0812 30.128L52.2156 30.903C52.2156 30.903 52.8938 31.0968 53.1844 30.4186L60.9344 16.953C61.3219 15.8874 60.5469 15.5968 60.2563 15.4999L55.1219 14.7249C52.0219 14.2405 49.3094 12.6905 47.3719 10.2686C45.1438 7.45926 41.9469 5.61863 38.3625 5.03738L34.5844 4.45613L35.8438 2.32488C36.0375 1.93738 35.8438 1.35613 35.3594 1.0655C34.875 0.774879 34.2938 0.968629 34.1 1.453L17.5344 30.0311C17.5344 30.0311 14.8219 29.7405 14.5313 32.9374V39.8155C14.5313 40.4936 14.6281 41.1718 14.9187 41.8499L18.4063 50.6655L20.0531 59.0936H14.5313C13.95 59.0936 13.5625 59.4811 13.5625 60.0624C13.5625 60.6436 13.95 61.0311 14.5313 61.0311H46.8875C47.4688 61.0311 47.8563 60.6436 47.8563 60.0624C47.8563 59.4811 47.4688 59.0936 46.8875 59.0936ZM33.9063 50.0843L32.1625 59.0936H22.0875L20.3438 50.0843L16.7594 41.0749C16.5656 40.6874 16.4688 40.2999 16.4688 39.8155V32.9374C16.4688 32.3561 16.8563 31.9686 17.4375 31.9686C18.0188 31.9686 18.4063 32.3561 18.4063 32.9374V38.9436L22.3781 48.8249C22.5719 49.2124 22.8625 49.4061 23.25 49.4061H31C31.3875 49.4061 31.775 49.2124 31.8719 48.8249L35.8438 38.9436V32.9374C35.8438 32.3561 36.2313 31.9686 36.8125 31.9686C37.3938 31.9686 37.7813 32.3561 37.7813 32.9374V39.8155C37.7813 40.2999 37.6844 40.6874 37.4906 41.1718L33.9063 50.0843Z" fill="#FF26C2"/>
<path d="M10.9469 59.0938H9.6875L8.71875 53.9595L5.13438 44.9501C4.94062 44.5626 4.84375 44.1751 4.84375 43.6907V36.8126C4.84375 36.2314 5.23125 35.8439 5.8125 35.8439C6.39375 35.8439 6.78125 36.2314 6.78125 36.8126V42.8189L10.7531 52.7001C10.9469 53.0876 11.2375 53.2813 11.625 53.2813H16.8562C17.4375 53.2813 17.825 52.8938 17.825 52.3126C17.825 51.7313 17.4375 51.3438 16.8562 51.3438H12.3031L8.71875 42.4314V36.9095C8.71875 35.4564 7.75 34.197 6.39375 33.9064C4.55312 33.6157 2.90625 35.0689 2.90625 36.8126V43.6907C2.90625 44.3689 3.00312 45.047 3.29375 45.7251L6.78125 54.5407L7.75 59.0938H1.9375C1.35625 59.0938 0.96875 59.4813 0.96875 60.0626C0.96875 60.6438 1.35625 61.0313 1.9375 61.0313H10.9469C11.5281 61.0313 11.9156 60.6438 11.9156 60.0626C11.9156 59.4813 11.5281 59.0938 10.9469 59.0938Z" fill="#FF26C2"/>
</svg>
