<svg width="51" height="59" viewBox="0 0 51 59" fill="none" xmlns="http://www.w3.org/2000/svg">
<path fill-rule="evenodd" clip-rule="evenodd" d="M10.7344 40.9188V47.2188C10.7344 47.7621 11.1754 48.2031 11.7188 48.2031C12.2621 48.2031 12.7031 47.7621 12.7031 47.2188V44.2656H15.6562C16.1996 44.2656 16.6406 43.8246 16.6406 43.2812C16.6406 42.7379 16.1996 42.2969 15.6562 42.2969H12.7031V40.9188C12.7031 40.7622 12.7651 40.6116 12.8764 40.5014C12.9866 40.3901 13.1372 40.3281 13.2938 40.3281H15.6562C16.1996 40.3281 16.6406 39.8871 16.6406 39.3438C16.6406 38.8004 16.1996 38.3594 15.6562 38.3594C15.6562 38.3594 14.3903 38.3594 13.2938 38.3594C12.6145 38.3594 11.9639 38.6291 11.4845 39.1095C11.0041 39.5889 10.7344 40.2395 10.7344 40.9188Z" fill="#57CC99"/>
<path fill-rule="evenodd" clip-rule="evenodd" d="M18.6094 39.3438V47.2188C18.6094 47.7621 19.0504 48.2031 19.5938 48.2031C20.1371 48.2031 20.5781 47.7621 20.5781 47.2188V44.2656H21.9562C22.1128 44.2656 22.2634 44.3276 22.3736 44.4389C22.4849 44.5491 22.5469 44.6997 22.5469 44.8563V47.2188C22.5469 47.7621 22.9879 48.2031 23.5312 48.2031C24.0746 48.2031 24.5156 47.7621 24.5156 47.2188C24.5156 47.2188 24.5156 45.9528 24.5156 44.8563C24.5156 44.2824 24.3227 43.7291 23.9732 43.2812C24.3227 42.8334 24.5156 42.2801 24.5156 41.7062V40.9188C24.5156 40.2395 24.2459 39.5889 23.7655 39.1095C23.2861 38.6291 22.6355 38.3594 21.9562 38.3594C20.8597 38.3594 19.5938 38.3594 19.5938 38.3594C19.0504 38.3594 18.6094 38.8004 18.6094 39.3438ZM20.5781 42.2969V40.3281H21.9562C22.1128 40.3281 22.2634 40.3901 22.3736 40.5014C22.4849 40.6116 22.5469 40.7622 22.5469 40.9188V41.7062C22.5469 41.8628 22.4849 42.0134 22.3736 42.1236C22.2634 42.2349 22.1128 42.2969 21.9562 42.2969H20.5781Z" fill="#57CC99"/>
<path fill-rule="evenodd" clip-rule="evenodd" d="M26.4844 40.9188V45.6437C26.4844 46.323 26.7541 46.9736 27.2345 47.453C27.7139 47.9334 28.3645 48.2031 29.0438 48.2031H31.4062C31.9496 48.2031 32.3906 47.7621 32.3906 47.2188C32.3906 46.6754 31.9496 46.2344 31.4062 46.2344H29.0438C28.8872 46.2344 28.7366 46.1724 28.6264 46.0611C28.5151 45.9509 28.4531 45.8003 28.4531 45.6437V44.2656H31.4062C31.9496 44.2656 32.3906 43.8246 32.3906 43.2812C32.3906 42.7379 31.9496 42.2969 31.4062 42.2969H28.4531V40.9188C28.4531 40.7622 28.5151 40.6116 28.6264 40.5014C28.7366 40.3901 28.8872 40.3281 29.0438 40.3281H31.4062C31.9496 40.3281 32.3906 39.8871 32.3906 39.3438C32.3906 38.8004 31.9496 38.3594 31.4062 38.3594H29.0438C28.3645 38.3594 27.7139 38.6291 27.2345 39.1095C26.7541 39.5889 26.4844 40.2395 26.4844 40.9188Z" fill="#57CC99"/>
<path fill-rule="evenodd" clip-rule="evenodd" d="M34.3594 40.9188V45.6437C34.3594 46.323 34.6291 46.9736 35.1095 47.453C35.5889 47.9334 36.2395 48.2031 36.9188 48.2031H39.2812C39.8246 48.2031 40.2656 47.7621 40.2656 47.2188C40.2656 46.6754 39.8246 46.2344 39.2812 46.2344H36.9188C36.7622 46.2344 36.6116 46.1724 36.5014 46.0611C36.3901 45.9509 36.3281 45.8003 36.3281 45.6437V44.2656H39.2812C39.8246 44.2656 40.2656 43.8246 40.2656 43.2812C40.2656 42.7379 39.8246 42.2969 39.2812 42.2969H36.3281V40.9188C36.3281 40.7622 36.3901 40.6116 36.5014 40.5014C36.6116 40.3901 36.7622 40.3281 36.9188 40.3281H39.2812C39.8246 40.3281 40.2656 39.8871 40.2656 39.3438C40.2656 38.8004 39.8246 38.3594 39.2812 38.3594H36.9188C36.2395 38.3594 35.5889 38.6291 35.1095 39.1095C34.6291 39.5889 34.3594 40.2395 34.3594 40.9188Z" fill="#57CC99"/>
<path fill-rule="evenodd" clip-rule="evenodd" d="M12.0584 16.7031H3.84375C2.21264 16.7031 0.890625 18.0251 0.890625 19.6562V27.5312C0.890625 29.1624 2.21264 30.4844 3.84375 30.4844H4.82812V34.4219H3.84375C2.21264 34.4219 0.890625 35.7439 0.890625 37.375V49.1875C0.890625 50.8186 2.21264 52.1406 3.84375 52.1406H4.82812V55.0938C4.82812 56.7249 6.15014 58.0469 7.78125 58.0469H43.2188C44.8499 58.0469 46.1719 56.7249 46.1719 55.0938V52.1406H47.1562C48.7874 52.1406 50.1094 50.8186 50.1094 49.1875V37.375C50.1094 35.7439 48.7874 34.4219 47.1562 34.4219H46.1719V30.4844H47.1562C48.7874 30.4844 50.1094 29.1624 50.1094 27.5312V19.6562C50.1094 18.0251 48.7874 16.7031 47.1562 16.7031H38.9416C40.9498 15.0779 42.2344 12.5943 42.2344 9.8125C42.2344 4.92311 38.2644 0.953125 33.375 0.953125C29.9484 0.953125 26.9736 2.90219 25.5 5.75195C24.0264 2.90219 21.0516 0.953125 17.625 0.953125C12.7356 0.953125 8.76562 4.92311 8.76562 9.8125C8.76562 12.5943 10.0502 15.0779 12.0584 16.7031ZM20.5781 56.0781V52.1406H6.79688V55.0938C6.79688 55.6371 7.23787 56.0781 7.78125 56.0781H20.5781ZM22.5469 56.0781V52.1406H28.4531V56.0781H22.5469ZM44.2031 52.1406H30.4219V56.0781H43.2188C43.7621 56.0781 44.2031 55.6371 44.2031 55.0938V52.1406ZM47.1562 36.3906H3.84375C3.30037 36.3906 2.85938 36.8316 2.85938 37.375V49.1875C2.85938 49.7309 3.30037 50.1719 3.84375 50.1719H47.1562C47.6996 50.1719 48.1406 49.7309 48.1406 49.1875V37.375C48.1406 36.8316 47.6996 36.3906 47.1562 36.3906ZM20.5781 30.4844H6.79688V34.4219H20.5781V30.4844ZM22.5469 34.4219V30.4844H28.4531V34.4219H22.5469ZM47.1562 18.6719H32.3906V28.5156H37.3125C37.8559 28.5156 38.2969 28.9566 38.2969 29.5C38.2969 30.0434 37.8559 30.4844 37.3125 30.4844H30.4219V34.4219H44.2031V30.4844H41.25C40.7066 30.4844 40.2656 30.0434 40.2656 29.5C40.2656 28.9566 40.7066 28.5156 41.25 28.5156H47.1562C47.6996 28.5156 48.1406 28.0746 48.1406 27.5312V19.6562C48.1406 19.1129 47.6996 18.6719 47.1562 18.6719ZM18.6094 18.6719H3.84375C3.30037 18.6719 2.85938 19.1129 2.85938 19.6562V27.5312C2.85938 28.0746 3.30037 28.5156 3.84375 28.5156H18.6094V18.6719ZM30.4219 18.6719H20.5781V28.5156H30.4219V18.6719ZM33.375 16.7031H17.625C13.8224 16.7031 10.7344 13.6151 10.7344 9.8125C10.7344 6.00986 13.8224 2.92188 17.625 2.92188C21.4276 2.92188 24.5156 6.00986 24.5156 9.8125C24.5156 10.3559 24.9566 10.7969 25.5 10.7969C26.0434 10.7969 26.4844 10.3559 26.4844 9.8125C26.4844 6.00986 29.5724 2.92188 33.375 2.92188C37.1776 2.92188 40.2656 6.00986 40.2656 9.8125C40.2656 13.6151 37.1776 16.7031 33.375 16.7031Z" fill="#57CC99"/>
<path fill-rule="evenodd" clip-rule="evenodd" d="M17.625 4.89062C14.9081 4.89062 12.7031 7.09562 12.7031 9.8125C12.7031 12.5294 14.9081 14.7344 17.625 14.7344H21.5625C22.1059 14.7344 22.5469 14.2934 22.5469 13.75V9.8125C22.5469 7.09562 20.3419 4.89062 17.625 4.89062ZM17.625 6.85938C19.2551 6.85938 20.5781 8.18237 20.5781 9.8125V12.7656H17.625C15.9949 12.7656 14.6719 11.4426 14.6719 9.8125C14.6719 8.18237 15.9949 6.85938 17.625 6.85938Z" fill="#57CC99"/>
<path fill-rule="evenodd" clip-rule="evenodd" d="M33.375 4.89062C30.6581 4.89062 28.4531 7.09562 28.4531 9.8125V13.75C28.4531 14.2934 28.8941 14.7344 29.4375 14.7344H33.375C36.0919 14.7344 38.2969 12.5294 38.2969 9.8125C38.2969 7.09562 36.0919 4.89062 33.375 4.89062ZM33.375 6.85938C35.0051 6.85938 36.3281 8.18237 36.3281 9.8125C36.3281 11.4426 35.0051 12.7656 33.375 12.7656H30.4219V9.8125C30.4219 8.18237 31.7449 6.85938 33.375 6.85938Z" fill="#57CC99"/>
</svg>
