<svg width="61" height="63" viewBox="0 0 61 63" fill="none" xmlns="http://www.w3.org/2000/svg">
<path d="M37.1562 24.6582C36.6454 24.6582 36.2315 25.0721 36.2315 25.5829V31.728C34.862 32.1289 33.8584 33.3955 33.8584 34.893C33.8584 36.7114 35.3378 38.1908 37.1562 38.1908C38.9746 38.1908 40.454 36.7114 40.454 34.893C40.454 33.3956 39.4504 32.1289 38.0809 31.728V25.5829C38.0809 25.0721 37.6669 24.6582 37.1562 24.6582ZM38.6046 34.893C38.6046 35.6916 37.9547 36.3414 37.1562 36.3414C36.3576 36.3414 35.7078 35.6916 35.7078 34.893C35.7078 34.0943 36.3576 33.4445 37.1562 33.4445C37.9547 33.4445 38.6046 34.0942 38.6046 34.893Z" fill="#9C70F3"/>
<path d="M54.5024 19.2902L56.7654 16.4739C57.2531 15.867 57.4752 15.1066 57.391 14.3326C57.3067 13.5587 56.9261 12.8638 56.3192 12.3762L54.5608 10.9632C53.3083 9.95658 51.4698 10.157 50.4632 11.4095L48.1398 14.3009C46.0019 13.1558 43.6663 12.3338 41.1982 11.9011V7.97073H41.6334C43.3172 7.97073 44.6871 6.60085 44.6871 4.91708V3.05353C44.6872 1.36976 43.3173 0 41.6336 0H32.6782C30.9945 0 29.6247 1.36976 29.6247 3.05353V4.91695C29.6247 6.60073 30.9945 7.97061 32.6782 7.97061H33.1136V11.9011C32.0405 12.0892 30.9928 12.3516 29.9753 12.6813C30.0427 12.1287 29.8606 11.5585 29.4389 11.137L28.0715 9.76931C27.4118 9.11002 26.3887 9.03361 25.6385 9.58769L24.004 10.7949C22.8123 10.0631 21.5271 9.5306 20.1698 9.20588L19.8678 7.19726C19.7291 6.2749 18.9516 5.6054 18.0188 5.6054H16.0851C15.1523 5.6054 14.3748 6.27478 14.2361 7.19726L13.9341 9.20588C12.5767 9.5306 11.2916 10.0631 10.0999 10.7949L8.46543 9.58769C7.71546 9.03361 6.69208 9.10978 6.03243 9.76955L4.66501 11.137C4.00535 11.7966 3.92894 12.8199 4.48314 13.5701L5.69048 15.2045C4.95872 16.3962 4.42605 17.6812 4.10145 19.0389L2.09296 19.3408C1.17047 19.4793 0.500977 20.257 0.500977 21.1899V23.1236C0.500977 24.0562 1.17035 24.8338 2.09283 24.9727L4.10145 25.2746C4.42617 26.6321 4.95872 27.9171 5.69048 29.109L4.48314 30.7434C3.92894 31.4936 4.00535 32.5169 4.66501 33.1765L6.0323 34.5438C6.69208 35.2033 7.71534 35.2799 8.46531 34.7257L10.0997 33.5183C11.2565 34.2287 12.502 34.7486 13.8155 35.0755C13.8206 35.7002 13.8497 36.3317 13.9055 36.9624C13.7361 37.0547 13.5681 37.1498 13.4026 37.2505L11.9466 36.1749C11.228 35.6443 10.2479 35.7174 9.61629 36.3492L8.3633 37.6021C7.73146 38.2337 7.65824 39.2138 8.18907 39.9325L9.2645 41.3885C8.6126 42.46 8.1348 43.613 7.83838 44.8295L6.04891 45.0985C5.16568 45.2314 4.52449 45.9762 4.52449 46.8694V48.6414C4.52449 49.5347 5.16568 50.2795 6.04904 50.4124L7.83826 50.6814C8.13468 51.898 8.61247 53.0509 9.26437 54.1224L8.18907 55.5783C7.65812 56.2968 7.73133 57.2767 8.36306 57.9088L9.61617 59.1618C10.2479 59.7934 11.2278 59.8666 11.9464 59.3359L13.4024 58.2604C14.4739 58.9121 15.6268 59.3901 16.8434 59.6865L17.1124 61.4757C17.2453 62.359 17.9901 63.0002 18.8833 63.0002H20.6553C21.5486 63.0002 22.2934 62.359 22.4262 61.4757L22.6952 59.6865C23.9119 59.3901 25.0647 58.9121 26.1362 58.2604L27.5922 59.336C28.3108 59.8665 29.2906 59.7933 29.9225 59.1618L31.1756 57.9087C31.29 57.7943 31.3855 57.668 31.463 57.5344C33.3192 57.9999 35.2292 58.2362 37.1557 58.2362C41.1895 58.2362 45.1658 57.1906 48.6546 55.2121C52.0367 53.2942 54.913 50.5357 56.9728 47.235C57.2433 46.8017 57.1111 46.2313 56.678 45.9611C56.2449 45.6906 55.6745 45.8228 55.4041 46.2559C53.5067 49.2961 50.8574 51.8369 47.7425 53.6033C44.5313 55.4244 40.8706 56.3868 37.1558 56.3868C35.1896 56.3868 33.2423 56.1206 31.361 55.5952C31.3571 55.5896 31.3539 55.584 31.3498 55.5786L30.2743 54.1225C30.6451 53.5128 30.9577 52.8759 31.2145 52.2168C33.1222 52.872 35.1162 53.2044 37.1557 53.2044C47.2524 53.2044 55.4666 44.9901 55.4666 34.8934C55.4666 28.5272 52.2373 22.7138 46.828 19.3425C46.3945 19.0724 45.8243 19.2048 45.5542 19.6382C45.2841 20.0715 45.4165 20.6419 45.8499 20.9119C46.6656 21.4202 47.4247 21.9917 48.1255 22.6155L46.4456 24.2955C45.7355 25.0234 46.6908 26.476 47.7533 25.6032L49.4368 23.9197C51.905 26.6707 53.3821 30.1886 53.5902 33.9687H51.2183C50.7075 33.9687 50.2936 34.3826 50.2936 34.8934C50.2936 35.4042 50.7075 35.8181 51.2183 35.8181H53.5907C53.3768 39.6617 51.8382 43.1571 49.4251 45.8551L47.7533 44.1833C47.3922 43.8223 46.8067 43.8223 46.4456 44.1833C46.0844 44.5444 46.0844 45.1299 46.4456 45.491L48.1174 47.1629C45.4192 49.5761 41.9238 51.1147 38.0802 51.3285V48.956C38.0802 48.4453 37.6663 48.0313 37.1555 48.0313C36.6448 48.0313 36.2308 48.4453 36.2308 48.956V51.3285C34.8635 51.2531 33.5233 51.0101 32.2255 50.6024L33.4893 50.4124C34.3728 50.2797 35.014 49.5349 35.014 48.6414V46.8694C35.014 45.9763 34.3729 45.2315 33.4896 45.0985C33.4896 45.0984 33.4895 45.0984 33.4893 45.0984L31.7002 44.8295C31.4038 43.6131 30.9259 42.46 30.2741 41.3885L31.3498 39.9324C31.8804 39.2137 31.8071 38.2337 31.1755 37.6021L29.9225 36.3493C29.2909 35.7176 28.3108 35.6443 27.5921 36.1749L26.1361 37.2505C25.0646 36.5986 23.9116 36.1209 22.6951 35.8245L22.4262 34.0354C22.304 33.2223 21.6629 32.6158 20.8652 32.524C21.3272 29.3201 22.7215 26.3381 24.8801 23.9255L26.5579 25.6031C27.2831 26.3878 28.6921 25.2856 27.8655 24.2954L26.1885 22.6184C28.9792 20.1223 32.5058 18.6656 36.2308 18.4581V20.8304C36.2308 21.3411 36.6448 21.7551 37.1555 21.7551C37.6663 21.7551 38.0802 21.3411 38.0802 20.8304V18.4578C39.6636 18.5453 41.2144 18.8568 42.7017 19.3889C43.1826 19.5609 43.7117 19.3106 43.8839 18.8297C44.0559 18.3489 43.8056 17.8196 43.3247 17.6476C41.3484 16.9406 39.2728 16.582 37.1555 16.582C32.5323 16.582 28.1181 18.3099 24.7262 21.4473C21.5638 24.3724 19.5501 28.2745 18.9993 32.5106H18.8832C17.9899 32.5106 17.2452 33.1518 17.1123 34.0353L16.8433 35.8245C16.4554 35.919 16.0748 36.034 15.7003 36.1652C15.6751 35.7391 15.662 35.3141 15.662 34.8931C15.662 23.0415 25.3039 13.3994 37.1555 13.3994C49.0073 13.3994 58.6492 23.0414 58.6492 34.8931C58.6492 37.7366 58.1031 40.4987 57.0259 43.103C56.8307 43.5748 57.055 44.1156 57.527 44.3108C57.6426 44.3585 57.7623 44.3812 57.8801 44.3812C58.2431 44.3812 58.5876 44.166 58.7349 43.8096C59.9052 40.9801 60.4986 37.9803 60.4986 34.893C60.4989 28.9 58.2279 23.4279 54.5024 19.2902ZM17.8336 37.5021C18.2205 37.4296 18.519 37.12 18.5775 36.7308L18.934 34.3599H20.6052L20.9617 36.7308C21.0201 37.12 21.3187 37.4296 21.7056 37.5021C23.1266 37.7686 24.4538 38.3188 25.6503 39.1369C25.9751 39.359 26.4051 39.3513 26.7216 39.1173L28.6508 37.6923L29.8325 38.8742L28.4075 40.8033C28.1737 41.1199 28.1658 41.5499 28.3879 41.8747C29.2062 43.0713 29.7562 44.3985 30.0226 45.8193C30.0951 46.2062 30.4048 46.5048 30.7941 46.5633L33.165 46.9195V48.5908L30.794 48.9472C30.4048 49.0056 30.0952 49.3043 30.0226 49.6911C29.7562 51.1119 29.2062 52.4391 28.3879 53.6358C28.1658 53.9606 28.1736 54.3905 28.4075 54.7071L29.8325 56.6363L28.6508 57.8181L26.7216 56.3931C26.4051 56.1592 25.9752 56.1513 25.6503 56.3736C24.4538 57.1917 23.1266 57.7417 21.7056 58.0084C21.3188 58.081 21.0203 58.3904 20.9617 58.7796L20.6052 61.1505H18.934L18.5775 58.7796C18.519 58.3904 18.2206 58.081 17.8336 58.0084C16.4125 57.7417 15.0854 57.1917 13.889 56.3736C13.5641 56.1513 13.1341 56.1591 12.8176 56.3931L10.8885 57.8181L9.70673 56.6363L11.1317 54.7071C11.3655 54.3907 11.3734 53.9606 11.1512 53.6358C10.333 52.4393 9.78302 51.1121 9.5165 49.6911C9.4439 49.3043 9.13444 49.0056 8.74512 48.9472L6.37413 48.5908V46.9195L8.74512 46.5633C9.13431 46.5048 9.4439 46.2062 9.5165 45.8193C9.78302 44.3984 10.333 43.0712 11.1512 41.8747C11.3733 41.5499 11.3655 41.1199 11.1317 40.8033L9.7066 38.8742L10.8883 37.6923L12.8175 39.1173C13.134 39.351 13.5639 39.3589 13.8888 39.1369C15.0855 38.3188 16.4125 37.7686 17.8336 37.5021ZM31.474 4.91695V3.05353C31.474 2.38957 32.0141 1.84927 32.6782 1.84927H41.6336C42.2977 1.84927 42.838 2.38945 42.838 3.05353V4.91695C42.838 5.58104 42.2977 6.12134 41.6336 6.12134H40.2737H34.0383H32.6782C32.0141 6.12134 31.474 5.58116 31.474 4.91695ZM9.51601 31.6504L7.36662 33.238C7.35862 33.2438 7.34718 33.2431 7.34004 33.2358L5.97275 31.8685C5.96549 31.8613 5.96463 31.8501 5.97078 31.8419L7.55845 29.6926C7.79224 29.3761 7.80012 28.946 7.57802 28.6212C6.67854 27.3057 6.07389 25.8467 5.78092 24.2847C5.70832 23.8978 5.39873 23.5992 5.00954 23.5407L2.36797 23.1438C2.35788 23.1422 2.35049 23.1337 2.35049 23.1235V21.1899C2.35049 21.1798 2.358 21.1711 2.36784 21.1697L5.00954 20.7726C5.39873 20.7141 5.70832 20.4156 5.78092 20.0287C6.07389 18.4665 6.67854 17.0075 7.57802 15.6922C7.80012 15.3673 7.79236 14.9374 7.55845 14.6209L5.97078 12.4715C5.96475 12.4633 5.96549 12.4521 5.97275 12.4448L7.33992 11.0777C7.34718 11.0705 7.35862 11.0693 7.36662 11.0756L9.51601 12.6631C9.8326 12.8968 10.2624 12.9049 10.5873 12.6827C11.903 11.7832 13.362 11.1786 14.9238 10.8856C15.3107 10.8131 15.6093 10.5035 15.6677 10.1143L16.0648 7.47264C16.0664 7.46255 16.0749 7.45516 16.0851 7.45516H18.0188C18.029 7.45516 18.0375 7.46255 18.0391 7.47264L18.4362 10.1143C18.4946 10.5035 18.7932 10.8131 19.1801 10.8856C20.7419 11.1786 22.201 11.7832 23.5166 12.6827C23.8415 12.9048 24.2713 12.8972 24.5879 12.6631L26.7372 11.0754C26.7453 11.0693 26.7567 11.0702 26.7639 11.0773L28.1311 12.4448C28.1384 12.4521 28.1393 12.4633 28.1331 12.4714L27.1458 13.8081C25.2592 14.7073 23.5115 15.8521 21.9444 17.2015C20.6479 15.915 18.9128 15.191 17.0518 15.191C14.8149 15.191 12.6991 16.2766 11.3921 18.0953C11.094 18.5099 11.1886 19.0878 11.6032 19.3857C11.7667 19.5031 11.9553 19.5597 12.1422 19.5597C12.4298 19.5597 12.7133 19.4259 12.8938 19.1745C13.8544 17.8382 15.4087 17.0403 17.0519 17.0403C18.3925 17.0403 19.6442 17.5519 20.5907 18.4633C18.2318 20.8414 16.3798 23.7227 15.2122 26.9304C13.2739 26.1809 11.9355 24.2867 11.9355 22.1568C11.9355 21.646 11.5214 21.2321 11.0108 21.2321C10.5001 21.2321 10.0861 21.646 10.0861 22.1568C10.0861 25.0933 11.9555 27.701 14.6499 28.6943C14.2516 30.1386 13.9884 31.6383 13.876 33.1793C12.7066 32.8442 11.6039 32.326 10.5873 31.6308C10.2624 31.4086 9.8326 31.4163 9.51601 31.6504ZM34.963 11.6538V7.97073H39.349V11.6538C38.6267 11.5861 37.8955 11.5499 37.1559 11.5499C36.4163 11.5499 35.6851 11.5861 34.963 11.6538ZM49.7516 15.2478L51.9049 12.568C52.2729 12.1104 52.9449 12.0369 53.4026 12.4048L55.161 13.8177C55.3827 13.996 55.522 14.2499 55.5528 14.5328C55.5835 14.8156 55.5023 15.0935 55.324 15.3153L53.2023 17.9556C52.141 16.9498 50.9861 16.0422 49.7516 15.2478Z" fill="#9C70F3"/>
<path d="M19.7697 52.9168C22.6158 52.9168 24.931 50.6014 24.931 47.7553C24.931 44.9092 22.6157 42.594 19.7697 42.594C16.9238 42.594 14.6084 44.9092 14.6084 47.7553C14.6084 50.6013 16.9238 52.9168 19.7697 52.9168ZM16.4577 47.7553C16.4577 47.2367 16.5778 46.7456 16.7912 46.3082C17.7531 48.0228 18.9237 49.6021 20.2886 51.0265C20.1195 51.0532 19.9463 51.0675 19.7697 51.0675C17.9435 51.0674 16.4577 49.5816 16.4577 47.7553ZM23.0818 47.7553C23.0818 48.705 22.6794 49.562 22.037 50.1664C20.4614 48.6084 19.1485 46.8369 18.1222 44.884C18.6079 44.6043 19.1702 44.4434 19.7697 44.4434C21.596 44.4434 23.0818 45.9291 23.0818 47.7553Z" fill="#9C70F3"/>
</svg>
