<svg width="26" height="26" viewBox="0 0 26 26" fill="none" xmlns="http://www.w3.org/2000/svg">
<path d="M10.8998 18.6111C10.4882 18.6111 10.562 18.4527 10.4143 18.0622L9.21094 14.0933L16.6843 9.42773L17.5604 9.65996L16.832 11.6444L10.8998 18.6111Z" fill="#C8DAEA"/>
<path d="M10.8984 18.6111C11.2151 18.6111 11.3523 18.4634 11.5318 18.2945C11.8062 18.0306 15.3318 14.6 15.3318 14.6L13.1679 14.0723L11.1623 15.3389L10.8984 18.5056V18.6111Z" fill="#A9C9DD"/>
<path d="M11.1099 15.3811L16.2187 19.1495C16.7993 19.4661 17.2215 19.3078 17.3693 18.6111L19.4487 8.81558C19.6598 7.96057 19.1215 7.58058 18.5621 7.83391L6.35985 12.5417C5.52596 12.8795 5.53652 13.3439 6.21207 13.5445L9.34707 14.5261L16.5987 9.95558C16.9365 9.74447 17.2532 9.86058 16.9998 10.0928L11.1099 15.3811Z" fill="url(#paint0_linear_117_366)"/>
<defs>
<linearGradient id="paint0_linear_117_366" x1="14.17" y1="13.2019" x2="16.8089" y2="17.4242" gradientUnits="userSpaceOnUse">
<stop stop-color="#EFF7FC"/>
<stop offset="1" stop-color="white"/>
</linearGradient>
</defs>
</svg>
