<svg width="11" height="13" viewBox="0 0 11 13" fill="none" xmlns="http://www.w3.org/2000/svg">
<path d="M10.7504 3.4394C10.0877 3.4394 9.47634 3.21988 8.98536 2.84955C8.42227 2.42501 8.01769 1.80228 7.87482 1.08452C7.83944 0.907179 7.82039 0.724168 7.81858 0.536621H5.92565V5.70901L5.92338 8.54216C5.92338 9.29961 5.43014 9.94185 4.7464 10.1677C4.54796 10.2333 4.33366 10.2643 4.11051 10.2521C3.82567 10.2364 3.55875 10.1505 3.32676 10.0117C2.83306 9.71643 2.49833 9.18077 2.48926 8.56802C2.47497 7.61033 3.2492 6.82952 4.20621 6.82952C4.39511 6.82952 4.57654 6.86037 4.7464 6.91638V5.50264V4.99443C4.56724 4.96789 4.38491 4.95406 4.20054 4.95406C3.15304 4.95406 2.17336 5.38948 1.47306 6.17391C0.943757 6.76671 0.626266 7.52302 0.577281 8.31606C0.513103 9.35789 0.894319 10.3482 1.63362 11.0789C1.74225 11.1862 1.85632 11.2857 1.9756 11.3776C2.60945 11.8654 3.38436 12.1298 4.20054 12.1298C4.38491 12.1298 4.56724 12.1162 4.7464 12.0897C5.50883 11.9767 6.2123 11.6277 6.76746 11.0789C7.44961 10.4047 7.82652 9.5096 7.8306 8.5569L7.82085 4.32611C8.14628 4.57715 8.50209 4.78488 8.88399 4.94612C9.47792 5.19671 10.1077 5.32371 10.7558 5.32348V3.94897V3.43894C10.7563 3.4394 10.7508 3.4394 10.7504 3.4394Z" fill="white"/>
</svg>
