<svg width="13" height="11" viewBox="0 0 13 11" fill="none" xmlns="http://www.w3.org/2000/svg">
<path d="M12.9241 1.80133C12.465 2.0003 11.9905 2.13805 11.4854 2.19927C12.0058 1.89316 12.4038 1.40339 12.5874 0.806469C12.0976 1.09727 11.5619 1.29625 10.9956 1.41869C10.5365 0.928914 9.87833 0.622803 9.15897 0.622803C7.76617 0.622803 6.64886 1.75541 6.64886 3.13291C6.64886 3.33189 6.66417 3.51555 6.71008 3.69922C4.62852 3.60739 2.79186 2.59722 1.55211 1.08197C0.664382 2.67375 1.65924 3.99002 2.31738 4.43389C1.91944 4.43389 1.52149 4.31144 1.18477 4.12777C1.18477 5.36752 2.05719 6.393 3.1898 6.62258C2.94491 6.69911 2.39391 6.74502 2.05719 6.6685C2.37861 7.66336 3.31225 8.39802 4.39894 8.41333C3.54183 9.08677 2.28677 9.62247 0.679688 9.45411C1.79699 10.1735 3.11327 10.5867 4.53669 10.5867C9.15897 10.5867 11.6691 6.76033 11.6691 3.45433C11.6691 3.34719 11.6691 3.24005 11.6538 3.13291C12.1742 2.75027 12.6027 2.30641 12.9241 1.80133Z" fill="white"/>
</svg>
