<svg width="41" height="41" viewBox="0 0 41 41" fill="none" xmlns="http://www.w3.org/2000/svg">
<path d="M38.5567 33.0813H2.44457H1.80859V32.4454V8.55279V7.91895H2.44457H38.5567H39.1906V8.55279V32.4454V33.0813H38.5567Z" fill="#005597"/>
<path fill-rule="evenodd" clip-rule="evenodd" d="M38.5555 32.4453H2.44336V8.55273H38.5555V32.4453Z" fill="white"/>
<path fill-rule="evenodd" clip-rule="evenodd" d="M15.4961 24.3796L17.8422 16.6479H19.9351L17.5891 24.3796H15.4961Z" fill="#005597"/>
<path fill-rule="evenodd" clip-rule="evenodd" d="M14.5586 16.6479L12.6762 19.9342C12.1977 20.785 11.9169 21.2274 11.7829 21.7698H11.7552C11.7871 21.0827 11.6914 20.2383 11.6829 19.7597L11.4702 16.6565H7.95218L7.91602 16.8692C8.81999 16.8692 9.35812 17.3243 9.50488 18.2538L10.1919 24.3923H12.3593L16.7431 16.6607L14.5586 16.6479Z" fill="#005597"/>
<path fill-rule="evenodd" clip-rule="evenodd" d="M30.841 24.3798L30.7836 23.2291H28.161L27.6271 24.382H25.3555L29.4755 16.6631H32.264L32.968 24.3798H30.841ZM30.6006 19.8174C30.5699 19.2123 30.5699 18.6061 30.6006 18.001H30.5709C30.4433 18.386 29.8966 19.5388 29.6563 20.1046L28.8778 21.8062H30.7113L30.6049 19.8238L30.6006 19.8174Z" fill="#005597"/>
<path fill-rule="evenodd" clip-rule="evenodd" d="M22.1213 24.5986C21.006 24.6105 19.9107 24.3027 18.9648 23.7116L19.9603 22.1908C20.5984 22.5418 21.0833 22.9459 22.2191 22.9459C22.5829 22.9459 22.9338 22.8523 23.1338 22.5056C23.4252 22.0037 23.0678 21.7335 22.2511 21.2698L21.8469 21.0082C20.6345 20.1787 20.1113 19.3938 20.6813 18.0198C21.045 17.1413 22.0086 16.4756 23.5974 16.4756C24.5803 16.4947 25.5321 16.8229 26.3179 17.4136L25.1714 18.7579C24.5865 18.2857 24.1079 18.0453 23.5506 18.0453C23.1082 18.0453 22.7722 18.2155 22.6573 18.4452C22.4446 18.8706 22.7275 19.1726 23.3635 19.5682L23.8442 19.8724C25.3161 20.7998 25.6649 21.7739 25.2969 22.6822C24.6588 24.2498 23.4209 24.5965 22.1213 24.5965V24.5986Z" fill="#005597"/>
<path fill-rule="evenodd" clip-rule="evenodd" d="M33.5829 17.6944H33.4936V17.1414H33.7063C33.8403 17.1414 33.9083 17.1882 33.9083 17.3009C33.9095 17.3205 33.9066 17.3402 33.8999 17.3586C33.8931 17.377 33.8826 17.3939 33.869 17.408C33.8554 17.4222 33.8391 17.4334 33.8209 17.441C33.8028 17.4485 33.7833 17.4523 33.7637 17.4519L33.919 17.6944H33.819L33.6765 17.4583H33.5893V17.6944H33.5829ZM33.685 17.3818C33.7531 17.3818 33.8126 17.3818 33.8126 17.2945C33.8126 17.2073 33.7488 17.2201 33.6935 17.2201H33.5829V17.3818H33.685ZM33.685 17.9071C33.6195 17.9086 33.5544 17.8967 33.4937 17.8721C33.433 17.8476 33.378 17.8109 33.332 17.7643C33.286 17.7176 33.25 17.6621 33.2262 17.6011C33.2024 17.5401 33.1913 17.4749 33.1937 17.4094C33.1953 17.3131 33.2254 17.2195 33.2801 17.1402C33.3347 17.0609 33.4116 16.9995 33.501 16.9638C33.5904 16.928 33.6884 16.9194 33.7826 16.939C33.8769 16.9587 33.9633 17.0057 34.0309 17.0742C34.0986 17.1428 34.1445 17.2297 34.163 17.3243C34.1814 17.4188 34.1715 17.5166 34.1346 17.6056C34.0976 17.6945 34.0353 17.7706 33.9553 17.8242C33.8753 17.8778 33.7813 17.9067 33.685 17.9071ZM33.685 16.9968C33.6321 16.9969 33.5798 17.008 33.5314 17.0291C33.4829 17.0503 33.4393 17.0811 33.4032 17.1198C33.3672 17.1585 33.3394 17.2041 33.3216 17.2539C33.3039 17.3037 33.2965 17.3566 33.3 17.4094C33.3 17.5109 33.3404 17.6083 33.4122 17.6801C33.484 17.7519 33.5813 17.7923 33.6829 17.7923C33.7844 17.7923 33.8818 17.7519 33.9536 17.6801C34.0254 17.6083 34.0657 17.5109 34.0657 17.4094C34.0692 17.357 34.062 17.3044 34.0445 17.2549C34.027 17.2054 33.9996 17.1599 33.964 17.1213C33.9284 17.0827 33.8852 17.0518 33.8373 17.0304C33.7893 17.009 33.7375 16.9975 33.685 16.9968Z" fill="#005597"/>
<path fill-rule="evenodd" clip-rule="evenodd" d="M37.6667 26.7812H3.39648V31.3671H37.6667V26.7812Z" fill="#F8AB10"/>
<path fill-rule="evenodd" clip-rule="evenodd" d="M37.6022 9.69727H3.33203V14.2809H37.6022V9.69727Z" fill="#005597"/>
<path fill-rule="evenodd" clip-rule="evenodd" d="M36.8205 31.0395H36.729V30.4886H36.9417C37.0757 30.4886 37.1438 30.5354 37.1438 30.646C37.1453 30.6656 37.1426 30.6854 37.136 30.704C37.1293 30.7226 37.1189 30.7395 37.1052 30.7538C37.0916 30.768 37.0751 30.7792 37.0568 30.7867C37.0385 30.7941 37.0189 30.7976 36.9992 30.797L37.1544 31.0395H37.0523L36.9098 30.8034H36.8247V31.0395H36.8205ZM36.9205 30.7268C36.9885 30.7268 37.0481 30.7268 37.0481 30.6396C37.0481 30.5524 36.9843 30.5651 36.929 30.5651H36.8205V30.7268H36.9205ZM36.9205 31.2522C36.8216 31.2543 36.7243 31.2269 36.6411 31.1735C36.5579 31.1201 36.4924 31.0431 36.4531 30.9524C36.4138 30.8617 36.4024 30.7613 36.4204 30.664C36.4384 30.5668 36.4849 30.4771 36.5541 30.4064C36.6233 30.3358 36.7119 30.2873 36.8087 30.2672C36.9056 30.2471 37.0062 30.2563 37.0978 30.2937C37.1893 30.331 37.2677 30.3948 37.3229 30.4768C37.378 30.5589 37.4075 30.6556 37.4075 30.7544C37.4099 30.8195 37.3989 30.8844 37.3754 30.9451C37.3519 31.0059 37.3163 31.0612 37.2707 31.1077C37.2252 31.1543 37.1706 31.1911 37.1104 31.2159C37.0502 31.2407 36.9856 31.2531 36.9205 31.2522ZM36.9205 30.3418C36.8372 30.3349 36.7539 30.3534 36.6813 30.3947C36.6087 30.436 36.5503 30.4983 36.5137 30.5733C36.477 30.6484 36.4639 30.7327 36.4761 30.8154C36.4882 30.898 36.525 30.9751 36.5816 31.0364C36.6382 31.0978 36.7121 31.1407 36.7935 31.1594C36.8749 31.1781 36.96 31.1718 37.0378 31.1413C37.1155 31.1109 37.1823 31.0576 37.2293 30.9886C37.2763 30.9196 37.3013 30.838 37.3012 30.7544C37.3047 30.702 37.2974 30.6495 37.2799 30.5999C37.2624 30.5504 37.2351 30.505 37.1994 30.4664C37.1638 30.4278 37.1207 30.3968 37.0728 30.3754C37.0248 30.354 36.973 30.3426 36.9205 30.3418Z" fill="#005597"/>
</svg>
