<svg width="15" height="15" viewBox="0 0 15 15" fill="none" xmlns="http://www.w3.org/2000/svg">
<g clip-path="url(#clip0_117_379)">
<path d="M13.9997 4.53596C13.9276 3.9351 13.3614 3.35893 12.7689 3.28174C9.15617 2.83284 5.50288 2.83284 1.89128 3.28174C1.29832 3.35876 0.732069 3.9351 0.660039 4.53596C0.404987 6.73809 0.404987 8.87328 0.660039 11.0749C0.732069 11.6758 1.29832 12.2525 1.89128 12.3291C5.50288 12.778 9.1563 12.778 12.7689 12.3291C13.3614 12.2526 13.9276 11.6758 13.9997 11.0749C14.2548 8.87349 14.2548 6.73809 13.9997 4.53596ZM6.18626 10.0929V5.51868L9.61689 7.80587L6.18626 10.0929Z" fill="white"/>
</g>
<defs>
<clipPath id="clip0_117_379">
<rect width="13.7222" height="13.7222" fill="white" transform="translate(0.46875 0.944336)"/>
</clipPath>
</defs>
</svg>
